999
dxfrw 0.6.3
  0
SECTION
  2
HEADER
  9
$ACADVER
  1
AC1021
  9
$DWGCODEPAGE
  3
ANSI_1252
  9
$INSBASE
 10
0
 20
0
 30
0
  9
$EXTMIN
 10
-5000
 20
-4920
 30
0
  9
$EXTMAX
 10
5000
 20
5080
 30
0
  9
$LIMMIN
 10
0
 20
0
  9
$LIMMAX
 10
420
 20
297
  9
$ORTHOMODE
 70
    0
  9
$REGENMODE
 70
    1
  9
$FILLMODE
 70
    1
  9
$QTEXTMODE
 70
    0
  9
$MIRRTEXT
 70
    0
  9
$LTSCALE
 40
1
  9
$ATTMODE
 70
    0
  9
$TEXTSIZE
 40
2.5
  9
$TRACEWID
 40
15.68
  9
$TEXTSTYLE
  7
STANDARD
  9
$CLAYER
  8
Text
  9
$CELTYPE
  6
BYLAYER
  9
$CECOLOR
 62
  256
  9
$CELTSCALE
 40
1
  9
$DISPSILH
 70
    0
  9
$DIMSCALE
 40
2.5
  9
$DIMASZ
 40
2.5
  9
$DIMEXO
 40
0.625
  9
$DIMDLI
 40
3.75
  9
$DIMRND
 40
0
  9
$DIMDLE
 40
0
  9
$DIMEXE
 40
1.25
  9
$DIMTP
 40
0
  9
$DIMTM
 40
0
  9
$DIMTXT
 40
2.5
  9
$DIMCEN
 40
2.5
  9
$DIMTSZ
 40
0
  9
$DIMTOL
 70
    0
  9
$DIMLIM
 70
    0
  9
$DIMTIH
 70
    0
  9
$DIMTOH
 70
    0
  9
$DIMSE1
 70
    0
  9
$DIMSE2
 70
    0
  9
$DIMTAD
 70
    1
  9
$DIMZIN
 70
    8
  9
$DIMBLK
  1

  9
$DIMASO
 70
    1
  9
$DIMSHO
 70
    1
  9
$DIMPOST
  1

  9
$DIMAPOST
  1

  9
$DIMALT
 70
    0
  9
$DIMALTD
 70
    3
  9
$DIMALTF
 40
0.03937
  9
$DIMLFAC
 40
1
  9
$DIMTOFL
 70
    1
  9
$DIMTVP
 40
0
  9
$DIMTIX
 70
    0
  9
$DIMSOXD
 70
    0
  9
$DIMSAH
 70
    0
  9
$DIMBLK1
  1

  9
$DIMBLK2
  1

  9
$DIMSTYLE
  2
STANDARD
  9
$DIMCLRD
 70
    0
  9
$DIMCLRE
 70
    0
  9
$DIMCLRT
 70
    1
  9
$DIMTFAC
 40
1
  9
$DIMGAP
 40
0.625
  9
$DIMJUST
 70
    0
  9
$DIMSD1
 70
    0
  9
$DIMSD2
 70
    0
  9
$DIMTOLJ
 70
    0
  9
$DIMTZIN
 70
    8
  9
$DIMALTZ
 70
    0
  9
$DIMALTTZ
 70
    0
  9
$DIMUPT
 70
    0
  9
$DIMDEC
 70
    4
  9
$DIMTDEC
 70
    2
  9
$DIMALTU
 70
    2
  9
$DIMALTTD
 70
    3
  9
$DIMTXSTY
  7
standard
  9
$DIMAUNIT
 70
    0
  9
$DIMADEC
 70
    2
  9
$DIMALTRND
 40
0
  9
$DIMAZIN
 70
    0
  9
$DIMDSEP
 70
    0
  9
$DIMATFIT
 70
    3
  9
$DIMFRAC
 70
    0
  9
$DIMLDRBLK
  1
STANDARD
  9
$DIMLUNIT
 70
    2
  9
$DIMLWD
 70
   -2
  9
$DIMLWE
 70
   -2
  9
$DIMTMOVE
 70
    0
  9
$DIMFXL
 40
1
  9
$DIMFXLON
 70
    0
  9
$DIMJOGANG
 40
0.7854
  9
$DIMTFILL
 70
    0
  9
$DIMTFILLCLR
 70
    0
  9
$DIMARCSYM
 70
    0
  9
$DIMLTYPE
  6

  9
$DIMLTEX1
  6

  9
$DIMLTEX2
  6

  9
$LUNITS
 70
    2
  9
$LUPREC
 70
    2
  9
$SKETCHINC
 40
1
  9
$FILLETRAD
 40
0
  9
$AUNITS
 70
    0
  9
$AUPREC
 70
    2
  9
$MENU
  1
.
  9
$ELEVATION
 40
0
  9
$PELEVATION
 40
0
  9
$THICKNESS
 40
0
  9
$LIMCHECK
 70
    0
  9
$CHAMFERA
 40
0
  9
$CHAMFERB
 40
0
  9
$CHAMFERC
 40
0
  9
$CHAMFERD
 40
0
  9
$SKPOLY
 70
    0
  9
$USRTIMER
 70
    1
  9
$ANGBASE
 50
0
  9
$ANGDIR
 70
    0
  9
$PDMODE
 70
   34
  9
$PDSIZE
 40
0
  9
$PLINEWID
 40
0
  9
$SPLFRAME
 70
    0
  9
$SPLINETYPE
 70
    2
  9
$SPLINESEGS
 70
    8
  9
$HANDSEED
  5
20000
  9
$SURFTAB1
 70
    6
  9
$SURFTAB2
 70
    6
  9
$SURFTYPE
 70
    6
  9
$SURFU
 70
    6
  9
$SURFV
 70
    6
  9
$UCSBASE
  2

  9
$UCSNAME
  2

  9
$UCSORG
 10
0
 20
0
 30
0
  9
$UCSXDIR
 10
1
 20
0
 30
0
  9
$UCSYDIR
 10
0
 20
1
 30
0
  9
$UCSORTHOREF
  2

  9
$UCSORTHOVIEW
 70
    0
  9
$UCSORGTOP
 10
0
 20
0
 30
0
  9
$UCSORGBOTTOM
 10
0
 20
0
 30
0
  9
$UCSORGLEFT
 10
0
 20
0
 30
0
  9
$UCSORGRIGHT
 10
0
 20
0
 30
0
  9
$UCSORGFRONT
 10
0
 20
0
 30
0
  9
$UCSORGBACK
 10
0
 20
0
 30
0
  9
$PUCSBASE
  2

  9
$PUCSNAME
  2

  9
$PUCSORG
 10
0
 20
0
 30
0
  9
$PUCSXDIR
 10
1
 20
0
 30
0
  9
$PUCSYDIR
 10
0
 20
1
 30
0
  9
$PUCSORTHOREF
  2

  9
$PUCSORTHOVIEW
 70
    0
  9
$PUCSORGTOP
 10
0
 20
0
 30
0
  9
$PUCSORGBOTTOM
 10
0
 20
0
 30
0
  9
$PUCSORGLEFT
 10
0
 20
0
 30
0
  9
$PUCSORGRIGHT
 10
0
 20
0
 30
0
  9
$PUCSORGFRONT
 10
0
 20
0
 30
0
  9
$PUCSORGBACK
 10
0
 20
0
 30
0
  9
$USERI1
 70
    0
  9
$USERI2
 70
    0
  9
$USERI3
 70
    0
  9
$USERI4
 70
    0
  9
$USERI5
 70
    0
  9
$USERR1
 40
0
  9
$USERR2
 40
0
  9
$USERR3
 40
0
  9
$USERR4
 40
0
  9
$USERR5
 40
0
  9
$WORLDVIEW
 70
    1
  9
$SHADEDGE
 70
    3
  9
$SHADEDIF
 70
   70
  9
$TILEMODE
 70
    1
  9
$MAXACTVP
 70
   64
  9
$PINSBASE
 10
-231.4561596085348
 20
-25.3272435358077
 30
0
  9
$PLIMCHECK
 70
    0
  9
$PEXTMIN
 10
0
 20
0
 30
0
  9
$PEXTMAX
 10
0
 20
0
 30
0
  9
$GRIDMODE
 70
    1
  9
$SNAPSTYLE
 70
    0
  9
$GRIDUNIT
 10
1
 20
1
  9
$PLIMMIN
 10
0
 20
0
  9
$PLIMMAX
 10
297
 20
210
  9
$UNITMODE
 70
    0
  9
$VISRETAIN
 70
    1
  9
$PLINEGEN
 70
    0
  9
$PSLTSCALE
 70
    1
  9
$TREEDEPTH
 70
 3020
  9
$CMLSTYLE
  2
Standard
  9
$CMLJUST
 70
    0
  9
$CMLSCALE
 40
20
  9
$PROXYGRAPHICS
 70
    1
  9
$MEASUREMENT
 70
    1
  9
$CELWEIGHT
370
   -1
  9
$ENDCAPS
280
    0
  9
$JOINSTYLE
280
    0
  9
$LWDISPLAY
290
    0
  9
$INSUNITS
 70
    4
  9
$HYPERLINKBASE
  1

  9
$STYLESHEET
  1

  9
$XEDIT
290
    1
  9
$CEPSNTYPE
380
    0
  9
$PSTYLEMODE
290
    1
  9
$EXTNAMES
290
    1
  9
$PSVPSCALE
 40
0.5
  9
$OLESTARTUP
290
    0
  9
$SORTENTS
280
  127
  9
$INDEXCTL
280
    0
  9
$HIDETEXT
280
    1
  9
$XCLIPFRAME
290
    0
  9
$HALOGAP
280
    0
  9
$OBSCOLOR
 70
  257
  9
$OBSLTYPE
280
    0
  9
$INTERSECTIONDISPLAY
280
    0
  9
$INTERSECTIONCOLOR
 70
  257
  9
$DIMASSOC
280
    1
  9
$PROJECTNAME
  1

  9
$CAMERADISPLAY
290
    0
  9
$LENSLENGTH
 40
50
  9
$CAMERAHEIGHT
 40
0
  9
$STEPSPERSEC
 40
2
  9
$STEPSIZE
 40
50
  9
$3DDWFPREC
 40
2
  9
$PSOLWIDTH
 40
5
  9
$PSOLHEIGHT
 40
80
  9
$LOFTANG1
 40
1.570796326794897
  9
$LOFTANG2
 40
1.570796326794897
  9
$LOFTMAG1
 40
0
  9
$LOFTMAG2
 40
0
  9
$LOFTPARAM
 70
    7
  9
$LOFTNORMALS
280
    1
  9
$LATITUDE
 40
1
  9
$LONGITUDE
 40
1
  9
$NORTHDIRECTION
 40
0
  9
$TIMEZONE
 70
-8000
  9
$LIGHTGLYPHDISPLAY
280
    1
  9
$TILEMODELIGHTSYNCH
280
    1
  9
$SOLIDHIST
280
    1
  9
$SHOWHIST
280
    1
  9
$DWFFRAME
280
    2
  9
$DGNFRAME
280
    0
  9
$REALWORLDSCALE
290
    1
  9
$INTERFERECOLOR
 62
    1
  9
$CSHADOW
280
    0
  9
$SHADOWPLANELOCATION
 40
0
  0
ENDSEC
  0
SECTION
  2
CLASSES
  0
ENDSEC
  0
SECTION
  2
TABLES
  0
TABLE
  2
VPORT
  5
8
330
0
100
AcDbSymbolTable
 70
    1
  0
VPORT
  5
31
330
2
100
AcDbSymbolTableRecord
100
AcDbViewportTableRecord
  2
*ACTIVE
 70
    0
 10
0
 20
0
 11
1
 21
1
 12
59.14819189565937
 22
30.54479931592038
 13
0
 23
0
 14
10
 24
10
 15
1
 25
1
 16
0
 26
0
 36
1
 17
0
 27
0
 37
0
 40
165.9255623856353
 41
2.446177847113884
 42
50
 43
0
 44
0
 50
0
 51
0
 71
    0
 72
  100
 73
    1
 74
    3
 75
    0
 76
    1
 77
    0
 78
    0
281
    0
 65
    1
110
0
120
0
130
0
111
1
121
0
131
0
112
0
122
1
132
0
 79
    0
146
0
348
10020
 60
    3
 61
    5
292
1
282
    1
141
0
142
0
 63
  250
421
3358443
  0
ENDTAB
  0
TABLE
  2
LTYPE
  5
5
330
0
100
AcDbSymbolTable
 70
    4
  0
LTYPE
  5
14
330
5
100
AcDbSymbolTableRecord
100
AcDbLinetypeTableRecord
  2
ByBlock
 70
    0
  3

 72
   65
 73
    0
 40
0
  0
LTYPE
  5
15
330
5
100
AcDbSymbolTableRecord
100
AcDbLinetypeTableRecord
  2
ByLayer
 70
    0
  3

 72
   65
 73
    0
 40
0
  0
LTYPE
  5
16
330
5
100
AcDbSymbolTableRecord
100
AcDbLinetypeTableRecord
  2
Continuous
 70
    0
  3
Solid line
 72
   65
 73
    0
 40
0
  0
LTYPE
  5
32
330
5
100
AcDbSymbolTableRecord
100
AcDbLinetypeTableRecord
  2
DOT
 70
    0
  3
Dot . . . . . . . . . . . . . . . . . . . . . .
 72
   65
 73
    2
 40
6.35
 49
0
 74
    0
 49
-6.35
 74
    0
  0
LTYPE
  5
33
330
5
100
AcDbSymbolTableRecord
100
AcDbLinetypeTableRecord
  2
DOTTINY
 70
    0
  3
Dot (.15x) .....................................
 72
   65
 73
    2
 40
0.9525
 49
0
 74
    0
 49
-0.9525
 74
    0
  0
LTYPE
  5
34
330
5
100
AcDbSymbolTableRecord
100
AcDbLinetypeTableRecord
  2
DOT2
 70
    0
  3
Dot (.5x) .....................................
 72
   65
 73
    2
 40
3.175
 49
0
 74
    0
 49
-3.175
 74
    0
  0
LTYPE
  5
35
330
5
100
AcDbSymbolTableRecord
100
AcDbLinetypeTableRecord
  2
DOTX2
 70
    0
  3
Dot (2x) .  .  .  .  .  .  .  .  .  .  .  .  .
 72
   65
 73
    2
 40
12.7
 49
0
 74
    0
 49
-12.7
 74
    0
  0
LTYPE
  5
36
330
5
100
AcDbSymbolTableRecord
100
AcDbLinetypeTableRecord
  2
DASHED
 70
    0
  3
Dashed _ _ _ _ _ _ _ _ _ _ _ _ _ _ _ _ _
 72
   65
 73
    2
 40
19.05
 49
12.7
 74
    0
 49
-6.35
 74
    0
  0
LTYPE
  5
37
330
5
100
AcDbSymbolTableRecord
100
AcDbLinetypeTableRecord
  2
DASHEDTINY
 70
    0
  3
Dashed (.15x) _ _ _ _ _ _ _ _ _ _ _ _ _ _ _ _ _
 72
   65
 73
    2
 40
2.8575
 49
1.905
 74
    0
 49
-0.9525
 74
    0
  0
LTYPE
  5
38
330
5
100
AcDbSymbolTableRecord
100
AcDbLinetypeTableRecord
  2
DASHED2
 70
    0
  3
Dashed (.5x) _ _ _ _ _ _ _ _ _ _ _ _ _ _ _ _ _
 72
   65
 73
    2
 40
9.524999999999999
 49
6.35
 74
    0
 49
-3.175
 74
    0
  0
LTYPE
  5
39
330
5
100
AcDbSymbolTableRecord
100
AcDbLinetypeTableRecord
  2
DASHEDX2
 70
    0
  3
Dashed (2x) ____  ____  ____  ____  ____  ___
 72
   65
 73
    2
 40
38.09999999999999
 49
25.4
 74
    0
 49
-12.7
 74
    0
  0
LTYPE
  5
3A
330
5
100
AcDbSymbolTableRecord
100
AcDbLinetypeTableRecord
  2
DASHDOT
 70
    0
  3
Dash dot __ . __ . __ . __ . __ . __ . __ . __
 72
   65
 73
    4
 40
25.4
 49
12.7
 74
    0
 49
-6.35
 74
    0
 49
0
 74
    0
 49
-6.35
 74
    0
  0
LTYPE
  5
3B
330
5
100
AcDbSymbolTableRecord
100
AcDbLinetypeTableRecord
  2
DASHDOTTINY
 70
    0
  3
Dash dot (.15x) _._._._._._._._._._._._._._._.
 72
   65
 73
    4
 40
3.81
 49
1.905
 74
    0
 49
-0.9525
 74
    0
 49
0
 74
    0
 49
-0.9525
 74
    0
  0
LTYPE
  5
3C
330
5
100
AcDbSymbolTableRecord
100
AcDbLinetypeTableRecord
  2
DASHDOT2
 70
    0
  3
Dash dot (.5x) _._._._._._._._._._._._._._._.
 72
   65
 73
    4
 40
12.7
 49
6.35
 74
    0
 49
-3.175
 74
    0
 49
0
 74
    0
 49
-3.175
 74
    0
  0
LTYPE
  5
3D
330
5
100
AcDbSymbolTableRecord
100
AcDbLinetypeTableRecord
  2
DASHDOTX2
 70
    0
  3
Dash dot (2x) ____  .  ____  .  ____  .  ___
 72
   65
 73
    4
 40
50.8
 49
25.4
 74
    0
 49
-12.7
 74
    0
 49
0
 74
    0
 49
-12.7
 74
    0
  0
LTYPE
  5
3E
330
5
100
AcDbSymbolTableRecord
100
AcDbLinetypeTableRecord
  2
DIVIDE
 70
    0
  3
Divide ____ . . ____ . . ____ . . ____ . . ____
 72
   65
 73
    6
 40
31.75
 49
12.7
 74
    0
 49
-6.35
 74
    0
 49
0
 74
    0
 49
-6.35
 74
    0
 49
0
 74
    0
 49
-6.35
 74
    0
  0
LTYPE
  5
3F
330
5
100
AcDbSymbolTableRecord
100
AcDbLinetypeTableRecord
  2
DIVIDETINY
 70
    0
  3
Divide (.15x) __..__..__..__..__..__..__..__.._
 72
   65
 73
    6
 40
4.7625
 49
1.905
 74
    0
 49
-0.9525
 74
    0
 49
0
 74
    0
 49
-0.9525
 74
    0
 49
0
 74
    0
 49
-0.9525
 74
    0
  0
LTYPE
  5
40
330
5
100
AcDbSymbolTableRecord
100
AcDbLinetypeTableRecord
  2
DIVIDE2
 70
    0
  3
Divide (.5x) __..__..__..__..__..__..__..__.._
 72
   65
 73
    6
 40
15.875
 49
6.35
 74
    0
 49
-3.175
 74
    0
 49
0
 74
    0
 49
-3.175
 74
    0
 49
0
 74
    0
 49
-3.175
 74
    0
  0
LTYPE
  5
41
330
5
100
AcDbSymbolTableRecord
100
AcDbLinetypeTableRecord
  2
DIVIDEX2
 70
    0
  3
Divide (2x) ________  .  .  ________  .  .  _
 72
   65
 73
    6
 40
63.5
 49
25.4
 74
    0
 49
-12.7
 74
    0
 49
0
 74
    0
 49
-12.7
 74
    0
 49
0
 74
    0
 49
-12.7
 74
    0
  0
LTYPE
  5
42
330
5
100
AcDbSymbolTableRecord
100
AcDbLinetypeTableRecord
  2
BORDER
 70
    0
  3
Border __ __ . __ __ . __ __ . __ __ . __ __ .
 72
   65
 73
    6
 40
44.45
 49
12.7
 74
    0
 49
-6.35
 74
    0
 49
12.7
 74
    0
 49
-6.35
 74
    0
 49
0
 74
    0
 49
-6.35
 74
    0
  0
LTYPE
  5
43
330
5
100
AcDbSymbolTableRecord
100
AcDbLinetypeTableRecord
  2
BORDERTINY
 70
    0
  3
Border (.15x) __.__.__.__.__.__.__.__.__.__.__.
 72
   65
 73
    6
 40
6.6675
 49
1.905
 74
    0
 49
-0.9525
 74
    0
 49
1.905
 74
    0
 49
-0.9525
 74
    0
 49
0
 74
    0
 49
-0.9525
 74
    0
  0
LTYPE
  5
44
330
5
100
AcDbSymbolTableRecord
100
AcDbLinetypeTableRecord
  2
BORDER2
 70
    0
  3
Border (.5x) __.__.__.__.__.__.__.__.__.__.__.
 72
   65
 73
    6
 40
22.225
 49
6.35
 74
    0
 49
-3.175
 74
    0
 49
6.35
 74
    0
 49
-3.175
 74
    0
 49
0
 74
    0
 49
-3.175
 74
    0
  0
LTYPE
  5
45
330
5
100
AcDbSymbolTableRecord
100
AcDbLinetypeTableRecord
  2
BORDERX2
 70
    0
  3
Border (2x) ____  ____  .  ____  ____  .  ___
 72
   65
 73
    6
 40
88.89999999999999
 49
25.4
 74
    0
 49
-12.7
 74
    0
 49
25.4
 74
    0
 49
-12.7
 74
    0
 49
0
 74
    0
 49
-12.7
 74
    0
  0
LTYPE
  5
46
330
5
100
AcDbSymbolTableRecord
100
AcDbLinetypeTableRecord
  2
CENTER
 70
    0
  3
Center ____ _ ____ _ ____ _ ____ _ ____ _ ____
 72
   65
 73
    4
 40
50.8
 49
31.75
 74
    0
 49
-6.35
 74
    0
 49
6.35
 74
    0
 49
-6.35
 74
    0
  0
LTYPE
  5
47
330
5
100
AcDbSymbolTableRecord
100
AcDbLinetypeTableRecord
  2
CENTERTINY
 70
    0
  3
Center (.15x) ___ _ ___ _ ___ _ ___ _ ___ _ ___
 72
   65
 73
    4
 40
7.619999999999999
 49
4.7625
 74
    0
 49
-0.9525
 74
    0
 49
0.9525
 74
    0
 49
-0.9525
 74
    0
  0
LTYPE
  5
48
330
5
100
AcDbSymbolTableRecord
100
AcDbLinetypeTableRecord
  2
CENTER2
 70
    0
  3
Center (.5x) ___ _ ___ _ ___ _ ___ _ ___ _ ___
 72
   65
 73
    4
 40
28.575
 49
19.05
 74
    0
 49
-3.175
 74
    0
 49
3.175
 74
    0
 49
-3.175
 74
    0
  0
LTYPE
  5
49
330
5
100
AcDbSymbolTableRecord
100
AcDbLinetypeTableRecord
  2
CENTERX2
 70
    0
  3
Center (2x) ________  __  ________  __  _____
 72
   65
 73
    4
 40
101.6
 49
63.5
 74
    0
 49
-12.7
 74
    0
 49
12.7
 74
    0
 49
-12.7
 74
    0
  0
ENDTAB
  0
TABLE
  2
LAYER
  5
2
330
0
100
AcDbSymbolTable
 70
    1
  0
LAYER
  5
10
330
2
100
AcDbSymbolTableRecord
100
AcDbLayerTableRecord
  2
0
 70
    0
 62
    7
  6
CONTINUOUS
370
   25
390
F
  0
LAYER
  5
4A
330
2
100
AcDbSymbolTableRecord
100
AcDbLayerTableRecord
  2
ESC
 70
    0
 62
    6
  6
CONTINUOUS
370
   35
390
F
  0
LAYER
  5
4B
330
2
100
AcDbSymbolTableRecord
100
AcDbLayerTableRecord
  2
Text
 70
    0
 62
    5
  6
CONTINUOUS
370
    0
390
F
  0
LAYER
  5
4C
330
2
100
AcDbSymbolTableRecord
100
AcDbLayerTableRecord
  2
battery
 70
    0
 62
    4
  6
CONTINUOUS
370
  100
390
F
  0
LAYER
  5
4D
330
2
100
AcDbSymbolTableRecord
100
AcDbLayerTableRecord
  2
bbb
 70
    0
 62
    1
  6
DASHED2
370
  100
390
F
  0
LAYER
  5
4E
330
2
100
AcDbSymbolTableRecord
100
AcDbLayerTableRecord
  2
bolts
 70
    0
 62
  253
420
10526884
  6
CONTINUOUS
370
   13
390
F
  0
LAYER
  5
4F
330
2
100
AcDbSymbolTableRecord
100
AcDbLayerTableRecord
  2
bolts_large
 70
    0
 62
    8
  6
CONTINUOUS
370
   25
390
F
  0
LAYER
  5
50
330
2
100
AcDbSymbolTableRecord
100
AcDbLayerTableRecord
  2
center
 70
    0
 62
    1
  6
BORDER2
290
0
370
   18
390
F
  0
LAYER
  5
51
330
2
100
AcDbSymbolTableRecord
100
AcDbLayerTableRecord
  2
frame
 70
    0
 62
    7
  6
CONTINUOUS
370
   70
390
F
  0
LAYER
  5
52
330
2
100
AcDbSymbolTableRecord
100
AcDbLayerTableRecord
  2
measure
 70
    0
 62
    1
  6
CONTINUOUS
370
    0
390
F
  0
LAYER
  5
53
330
2
100
AcDbSymbolTableRecord
100
AcDbLayerTableRecord
  2
misc_text
 70
    0
 62
    7
  6
CONTINUOUS
370
    0
390
F
  0
LAYER
  5
54
330
2
100
AcDbSymbolTableRecord
100
AcDbLayerTableRecord
  2
rotor_blades
 70
    0
 62
    5
  6
DASHED2
370
   25
390
F
  0
LAYER
  5
55
330
2
100
AcDbSymbolTableRecord
100
AcDbLayerTableRecord
  2
rotor_pads
 70
    0
 62
    7
  6
CONTINUOUS
370
   50
390
F
  0
LAYER
  5
56
330
2
100
AcDbSymbolTableRecord
100
AcDbLayerTableRecord
  2
rotor_shafts
 70
    0
 62
    7
  6
CONTINUOUS
370
   50
390
F
  0
LAYER
  5
57
330
2
100
AcDbSymbolTableRecord
100
AcDbLayerTableRecord
  2
rotors
 70
    0
 62
    1
  6
CONTINUOUS
370
   25
390
F
  0
ENDTAB
  0
TABLE
  2
STYLE
  5
3
330
0
100
AcDbSymbolTable
 70
    3
  0
STYLE
  5
58
330
2
100
AcDbSymbolTableRecord
100
AcDbTextStyleTableRecord
  2
standard
 70
    0
 40
0
 41
1
 50
0
 71
    0
 42
1
  3
standard
  4

  0
ENDTAB
  0
TABLE
  2
VIEW
  5
6
330
0
100
AcDbSymbolTable
 70
    0
  0
ENDTAB
  0
TABLE
  2
UCS
  5
7
330
0
100
AcDbSymbolTable
 70
    0
  0
ENDTAB
  0
TABLE
  2
APPID
  5
9
330
0
100
AcDbSymbolTable
 70
    1
  0
APPID
  5
12
330
9
100
AcDbSymbolTableRecord
100
AcDbRegAppTableRecord
  2
ACAD
 70
    0
  0
APPID
  5
59
330
9
100
AcDbSymbolTableRecord
100
AcDbRegAppTableRecord
  2
LibreCad
 70
    0
  0
ENDTAB
  0
TABLE
  2
DIMSTYLE
  5
A
330
0
100
AcDbSymbolTable
 70
    1
100
AcDbDimStyleTable
 71
    1
  0
DIMSTYLE
105
5A
330
A
100
AcDbSymbolTableRecord
100
AcDbDimStyleTableRecord
  2
Standard
 70
    0
 40
2.5
 41
2.5
 42
0.625
 43
0.38
 44
1.25
 45
0
 46
0
 47
0
 48
0
 49
1
140
2.5
141
0.09
142
0
143
25.4
144
1
145
0
146
1
147
0.625
148
0
 71
    0
 72
    0
 73
    0
 74
    1
 75
    0
 76
    0
 77
    0
 78
    8
 79
    0
170
    0
171
    2
172
    0
173
    0
174
    0
175
    0
176
    0
177
    0
178
    1
179
    2
271
    4
272
    4
273
    2
274
    2
275
    0
276
    0
277
    2
278
    0
279
    0
280
    0
281
    0
282
    0
283
    1
284
    0
285
    0
286
    0
288
    0
289
    3
340
standard
341

371
   -2
372
   -2
  0
ENDTAB
  0
TABLE
  2
BLOCK_RECORD
  5
1
330
0
100
AcDbSymbolTable
 70
    2
  0
BLOCK_RECORD
  5
1F
330
1
100
AcDbSymbolTableRecord
100
AcDbBlockTableRecord
  2
*Model_Space
 70
    0
280
    1
281
    0
  0
BLOCK_RECORD
  5
1E
330
1
100
AcDbSymbolTableRecord
100
AcDbBlockTableRecord
  2
*Paper_Space
 70
    0
280
    1
281
    0
  0
BLOCK_RECORD
  5
5B
330
1
100
AcDbSymbolTableRecord
100
AcDbBlockTableRecord
  2
*D2
 70
    0
280
    1
281
    0
  0
BLOCK_RECORD
  5
5E
330
1
100
AcDbSymbolTableRecord
100
AcDbBlockTableRecord
  2
*D8
 70
    0
280
    1
281
    0
  0
BLOCK_RECORD
  5
61
330
1
100
AcDbSymbolTableRecord
100
AcDbBlockTableRecord
  2
*D14
 70
    0
280
    1
281
    0
  0
BLOCK_RECORD
  5
64
330
1
100
AcDbSymbolTableRecord
100
AcDbBlockTableRecord
  2
*D15
 70
    0
280
    1
281
    0
  0
BLOCK_RECORD
  5
67
330
1
100
AcDbSymbolTableRecord
100
AcDbBlockTableRecord
  2
*D9
 70
    0
280
    1
281
    0
  0
BLOCK_RECORD
  5
6A
330
1
100
AcDbSymbolTableRecord
100
AcDbBlockTableRecord
  2
*D13
 70
    0
280
    1
281
    0
  0
BLOCK_RECORD
  5
6D
330
1
100
AcDbSymbolTableRecord
100
AcDbBlockTableRecord
  2
*D4
 70
    0
280
    1
281
    0
  0
BLOCK_RECORD
  5
70
330
1
100
AcDbSymbolTableRecord
100
AcDbBlockTableRecord
  2
*D7
 70
    0
280
    1
281
    0
  0
BLOCK_RECORD
  5
73
330
1
100
AcDbSymbolTableRecord
100
AcDbBlockTableRecord
  2
*D1
 70
    0
280
    1
281
    0
  0
BLOCK_RECORD
  5
76
330
1
100
AcDbSymbolTableRecord
100
AcDbBlockTableRecord
  2
*D3
 70
    0
280
    1
281
    0
  0
BLOCK_RECORD
  5
79
330
1
100
AcDbSymbolTableRecord
100
AcDbBlockTableRecord
  2
*D5
 70
    0
280
    1
281
    0
  0
BLOCK_RECORD
  5
7C
330
1
100
AcDbSymbolTableRecord
100
AcDbBlockTableRecord
  2
*D12
 70
    0
280
    1
281
    0
  0
BLOCK_RECORD
  5
7F
330
1
100
AcDbSymbolTableRecord
100
AcDbBlockTableRecord
  2
*D6
 70
    0
280
    1
281
    0
  0
BLOCK_RECORD
  5
82
330
1
100
AcDbSymbolTableRecord
100
AcDbBlockTableRecord
  2
*D10
 70
    0
280
    1
281
    0
  0
BLOCK_RECORD
  5
85
330
1
100
AcDbSymbolTableRecord
100
AcDbBlockTableRecord
  2
*D11
 70
    0
280
    1
281
    0
  0
BLOCK_RECORD
  5
88
330
1
100
AcDbSymbolTableRecord
100
AcDbBlockTableRecord
  2
Shaft
 70
    0
280
    1
281
    0
  0
BLOCK_RECORD
  5
8B
330
1
100
AcDbSymbolTableRecord
100
AcDbBlockTableRecord
  2
frame
 70
    0
280
    1
281
    0
  0
ENDTAB
  0
ENDSEC
  0
SECTION
  2
BLOCKS
  0
BLOCK
  5
20
330
1F
100
AcDbEntity
  8
0
100
AcDbBlockBegin
  2
*Model_Space
 70
    0
 10
0
 20
0
 30
0
  3
*Model_Space
  1

  0
ENDBLK
  5
21
330
1F
100
AcDbEntity
  8
0
100
AcDbBlockEnd
  0
BLOCK
  5
1C
330
1B
100
AcDbEntity
  8
0
100
AcDbBlockBegin
  2
*Paper_Space
 70
    0
 10
0
 20
0
 30
0
  3
*Paper_Space
  1

  0
ENDBLK
  5
1D
330
1F
100
AcDbEntity
  8
0
100
AcDbBlockEnd
  0
BLOCK
  5
5C
330
5B
100
AcDbEntity
  8
0
100
AcDbBlockBegin
  2
*D2
 70
    1
 10
0
 20
0
  3
*D2
  1

  0
LINE
  5
8E
100
AcDbEntity
  8
measure
  6
ByBlock
 62
    0
370
   -2
100
AcDbLine
 10
-215
 20
230
 11
-185
 21
230
  0
SOLID
  5
8F
100
AcDbEntity
  8
measure
  6
ByBlock
 62
    0
370
   -2
100
AcDbTrace
 10
-215
 20
230
 30
0
 11
-208.75
 21
231.0407116444321
 31
0
 12
-208.75
 22
228.9592883555679
 32
0
 13
-208.75
 23
228.9592883555679
 33
0
  0
SOLID
  5
90
100
AcDbEntity
  8
measure
  6
ByBlock
 62
    0
370
   -2
100
AcDbTrace
 10
-185
 20
230
 30
0
 11
-191.25
 21
228.9592883555679
 31
0
 12
-191.25
 22
231.0407116444321
 32
0
 13
-191.25
 23
231.0407116444321
 33
0
  0
MTEXT
  5
91
100
AcDbEntity
  8
measure
  6
CONTINUOUS
 62
    1
370
   -2
100
AcDbMText
 10
-200
 20
234.6875
 30
0
 40
6.25
 41
7.638888888889277
 71
    5
 72
    1
  1
30
  7
standard
210
0
220
0
230
1
 50
0
 73
    2
 44
1
  0
LINE
  5
92
100
AcDbEntity
  8
measure
  6
ByBlock
 62
    0
370
   -2
100
AcDbLine
 10
-215
 20
201.5625
 11
-215
 21
233.125
  0
LINE
  5
93
100
AcDbEntity
  8
measure
  6
ByBlock
 62
    0
370
   -2
100
AcDbLine
 10
-185
 20
201.5625
 11
-185
 21
233.125
  0
ENDBLK
  5
5D
330
5B
100
AcDbEntity
  8
0
100
AcDbBlockEnd
  0
BLOCK
  5
5F
330
5E
100
AcDbEntity
  8
0
100
AcDbBlockBegin
  2
*D8
 70
    1
 10
0
 20
0
  3
*D8
  1

  0
LINE
  5
94
100
AcDbEntity
  8
measure
  6
ByBlock
 62
    0
370
   -2
100
AcDbLine
 10
73
 20
-201.5625
 11
72.99999999999997
 21
-343.125
  0
LINE
  5
95
100
AcDbEntity
  8
measure
  6
ByBlock
 62
    0
370
   -2
100
AcDbLine
 10
327
 20
-201.5625
 11
327
 21
-343.125
  0
LINE
  5
96
100
AcDbEntity
  8
measure
  6
ByBlock
 62
    0
370
   -2
100
AcDbLine
 10
72.99999999999997
 20
-340
 11
327
 21
-340
  0
SOLID
  5
97
100
AcDbEntity
  8
measure
  6
ByBlock
 62
    0
370
   -2
100
AcDbTrace
 10
72.99999999999997
 20
-340
 30
0
 11
79.24999999999997
 21
-338.9592883555679
 31
0
 12
79.24999999999997
 22
-341.0407116444321
 32
0
 13
79.24999999999997
 23
-341.0407116444321
 33
0
  0
SOLID
  5
98
100
AcDbEntity
  8
measure
  6
ByBlock
 62
    0
370
   -2
100
AcDbTrace
 10
327
 20
-340
 30
0
 11
320.75
 21
-341.0407116444321
 31
0
 12
320.75
 22
-338.9592883555679
 32
0
 13
320.75
 23
-338.9592883555679
 33
0
  0
MTEXT
  5
99
100
AcDbEntity
  8
measure
  6
CONTINUOUS
 62
    1
370
   -2
100
AcDbMText
 10
200
 20
-335.3125
 30
0
 40
6.25
 41
13.19444444444483
 71
    5
 72
    1
  1
254
  7
standard
210
0
220
0
230
1
 50
0
 73
    2
 44
1
  0
ENDBLK
  5
60
330
5E
100
AcDbEntity
  8
0
100
AcDbBlockEnd
  0
BLOCK
  5
62
330
61
100
AcDbEntity
  8
0
100
AcDbBlockBegin
  2
*D14
 70
    1
 10
0
 20
0
  3
*D14
  1

  0
LINE
  5
9A
100
AcDbEntity
  8
measure
  6
CONTINUOUS
 62
    7
370
    0
100
AcDbLine
 10
-214
 20
-196
 11
-214
 21
-155
  0
SOLID
  5
9B
100
AcDbEntity
  8
measure
  6
CONTINUOUS
 62
    7
370
    0
100
AcDbTrace
 10
-214
 20
-196
 30
0
 11
-215.0407116444321
 21
-189.75
 31
0
 12
-212.9592883555679
 22
-189.75
 32
0
 13
-212.9592883555679
 23
-189.75
 33
0
  0
ENDBLK
  5
63
330
61
100
AcDbEntity
  8
0
100
AcDbBlockEnd
  0
BLOCK
  5
65
330
64
100
AcDbEntity
  8
0
100
AcDbBlockBegin
  2
*D15
 70
    1
 10
0
 20
0
  3
*D15
  1

  0
LINE
  5
9C
100
AcDbEntity
  8
measure
  6
ByBlock
 62
    0
370
   -2
100
AcDbLine
 10
-18.89806467308629
 20
0.1077656725587324
 11
-184.7853482602437
 21
-166.6572284097688
  0
LINE
  5
9D
100
AcDbEntity
  8
measure
  6
ByBlock
 62
    0
370
   -2
100
AcDbLine
 10
-214
 20
-153.4375
 11
-214
 21
-154.601253176162
  0
ARC
  5
9E
100
AcDbEntity
  8
measure
  6
ByBlock
 62
    0
370
   -2
100
AcDbCircle
 10
-214
 20
-196.026455026455
 40
38.30020185029298
100
AcDbArc
 50
45.1511758484249
 51
90
  0
SOLID
  5
9F
100
AcDbEntity
  8
measure
  6
ByBlock
 62
    0
370
   -2
100
AcDbTrace
 10
-186.9892189140711
 20
-168.8727597548863
 30
0
 11
-192.4361526133486
 21
-165.6360184920524
 31
0
 12
-191.0934053950401
 22
-164.04562457382
 32
0
 13
-191.0934053950401
 23
-164.04562457382
 33
0
  0
SOLID
  5
A0
100
AcDbEntity
  8
measure
  6
ByBlock
 62
    0
370
   -2
100
AcDbTrace
 10
-214
 20
-157.726253176162
 30
0
 11
-207.6859726840306
 21
-157.1983897657526
 31
0
 12
-207.8556123428102
 22
-159.2728885711501
 32
0
 13
-207.8556123428102
 23
-159.2728885711501
 33
0
  0
MTEXT
  5
A1
100
AcDbEntity
  8
measure
  6
CONTINUOUS
 62
    1
370
   -2
100
AcDbMText
 10
-198.7938037738575
 20
-159.1780277175806
 30
0
 40
6.25
 41
25.00000000000038
 71
    8
 72
    1
  1
44.85%%D
  7
standard
210
0
220
0
230
1
 50
337.5755879242124
 73
    2
 44
1
  0
ENDBLK
  5
66
330
64
100
AcDbEntity
  8
0
100
AcDbBlockEnd
  0
BLOCK
  5
68
330
67
100
AcDbEntity
  8
0
100
AcDbBlockBegin
  2
*D9
 70
    1
 10
0
 20
0
  3
*D9
  1

  0
LINE
  5
A2
100
AcDbEntity
  8
measure
  6
ByBlock
 62
    0
370
   -2
100
AcDbLine
 10
-1.10485434560398
 20
1.104854345603981
 11
-92.20970869120796
 21
92.20970869120798
  0
LINE
  5
A3
100
AcDbEntity
  8
measure
  6
ByBlock
 62
    0
370
   -2
100
AcDbLine
 10
208.895145654396
 20
211.104854345604
 11
117.790291308792
 21
302.2097086912079
  0
LINE
  5
A4
100
AcDbEntity
  8
measure
  6
ByBlock
 62
    0
370
   -2
100
AcDbLine
 10
-90
 20
90.00000000000001
 11
120
 21
300
  0
SOLID
  5
A5
100
AcDbEntity
  8
measure
  6
ByBlock
 62
    0
370
   -2
100
AcDbTrace
 10
-90
 20
90.00000000000001
 30
0
 11
-86.31647687862181
 21
95.15531164345367
 31
0
 12
-84.84468835654633
 22
93.6835231213782
 32
0
 13
-84.84468835654633
 23
93.6835231213782
 33
0
  0
SOLID
  5
A6
100
AcDbEntity
  8
measure
  6
ByBlock
 62
    0
370
   -2
100
AcDbTrace
 10
120
 20
300
 30
0
 11
116.3164768786218
 21
294.8446883565463
 31
0
 12
114.8446883565463
 22
296.3164768786218
 32
0
 13
114.8446883565463
 23
296.3164768786218
 33
0
  0
MTEXT
  5
A7
100
AcDbEntity
  8
measure
  6
CONTINUOUS
 62
    1
370
   -2
100
AcDbMText
 10
11.68543696318806
 20
198.3145630368119
 30
0
 40
6.25
 41
34.72222222222261
 71
    5
 72
    1
  1
296.9848
  7
standard
210
0
220
0
230
1
 50
45
 73
    2
 44
1
  0
ENDBLK
  5
69
330
67
100
AcDbEntity
  8
0
100
AcDbBlockEnd
  0
BLOCK
  5
6B
330
6A
100
AcDbEntity
  8
0
100
AcDbBlockBegin
  2
*D13
 70
    1
 10
0
 20
0
  3
*D13
  1

  0
LINE
  5
A8
100
AcDbEntity
  8
measure
  6
ByBlock
 62
    0
370
   -2
100
AcDbLine
 10
-205.104854345604
 20
187.104854345604
 11
-248.709708691208
 21
230.709708691208
  0
LINE
  5
A9
100
AcDbEntity
  8
measure
  6
ByBlock
 62
    0
370
   -2
100
AcDbLine
 10
-187.104854345604
 20
205.104854345604
 11
-230.709708691208
 21
248.709708691208
  0
LINE
  5
AA
100
AcDbEntity
  8
measure
  6
ByBlock
 62
    0
370
   -2
100
AcDbLine
 10
-246.5
 20
228.5
 11
-228.5
 21
246.5
  0
SOLID
  5
AB
100
AcDbEntity
  8
measure
  6
ByBlock
 62
    0
370
   -2
100
AcDbTrace
 10
-246.5
 20
228.5
 30
0
 11
-242.8164768786218
 21
233.6553116434537
 31
0
 12
-241.3446883565463
 22
232.1835231213782
 32
0
 13
-241.3446883565463
 23
232.1835231213782
 33
0
  0
SOLID
  5
AC
100
AcDbEntity
  8
measure
  6
ByBlock
 62
    0
370
   -2
100
AcDbTrace
 10
-228.5
 20
246.5
 30
0
 11
-232.1835231213782
 21
241.3446883565463
 31
0
 12
-233.6553116434537
 22
242.8164768786218
 32
0
 13
-233.6553116434537
 23
242.8164768786218
 33
0
  0
MTEXT
  5
AD
100
AcDbEntity
  8
measure
  6
CONTINUOUS
 62
    1
370
   -2
100
AcDbMText
 10
-220.1522116109917
 20
261.4769144626321
 30
0
 40
6.25
 41
29.86111111111228
 71
    5
 72
    1
  1
25.4558
  7
standard
210
0
220
0
230
1
 50
45
 73
    2
 44
1
  0
ENDBLK
  5
6C
330
6A
100
AcDbEntity
  8
0
100
AcDbBlockEnd
  0
BLOCK
  5
6E
330
6D
100
AcDbEntity
  8
0
100
AcDbBlockBegin
  2
*D4
 70
    1
 10
0
 20
0
  3
*D4
  1

  0
LINE
  5
AE
100
AcDbEntity
  8
measure
  6
ByBlock
 62
    0
370
   -2
100
AcDbLine
 10
-81.5625
 20
80
 11
-133.125
 21
80
  0
LINE
  5
AF
100
AcDbEntity
  8
measure
  6
ByBlock
 62
    0
370
   -2
100
AcDbLine
 10
-81.5625
 20
-80
 11
-133.125
 21
-80
  0
LINE
  5
B0
100
AcDbEntity
  8
measure
  6
ByBlock
 62
    0
370
   -2
100
AcDbLine
 10
-130
 20
80
 11
-130
 21
-80
  0
SOLID
  5
B1
100
AcDbEntity
  8
measure
  6
ByBlock
 62
    0
370
   -2
100
AcDbTrace
 10
-130
 20
80
 30
0
 11
-128.9592883555679
 21
73.75
 31
0
 12
-131.0407116444321
 22
73.75
 32
0
 13
-131.0407116444321
 23
73.75
 33
0
  0
SOLID
  5
B2
100
AcDbEntity
  8
measure
  6
ByBlock
 62
    0
370
   -2
100
AcDbTrace
 10
-130
 20
-80
 30
0
 11
-131.0407116444321
 21
-73.75
 31
0
 12
-128.9592883555679
 22
-73.75
 32
0
 13
-128.9592883555679
 23
-73.75
 33
0
  0
MTEXT
  5
B3
100
AcDbEntity
  8
measure
  6
CONTINUOUS
 62
    1
370
   -2
100
AcDbMText
 10
-134.6875
 20
5.740531871003218e-16
 30
0
 40
6.25
 41
11.1111111111115
 71
    5
 72
    1
  1
160
  7
standard
210
0
220
0
230
1
 50
90
 73
    2
 44
1
  0
ENDBLK
  5
6F
330
6D
100
AcDbEntity
  8
0
100
AcDbBlockEnd
  0
BLOCK
  5
71
330
70
100
AcDbEntity
  8
0
100
AcDbBlockBegin
  2
*D7
 70
    1
 10
0
 20
0
  3
*D7
  1

  0
LINE
  5
B4
100
AcDbEntity
  8
measure
  6
ByBlock
 62
    0
370
   -2
100
AcDbLine
 10
186
 20
-210
 11
214
 21
-210
  0
SOLID
  5
B5
100
AcDbEntity
  8
measure
  6
ByBlock
 62
    0
370
   -2
100
AcDbTrace
 10
198.5
 20
-210
 30
0
 11
192.25
 21
-211.0407116444321
 31
0
 12
192.25
 22
-208.9592883555679
 32
0
 13
192.25
 23
-208.9592883555679
 33
0
  0
SOLID
  5
B6
100
AcDbEntity
  8
measure
  6
ByBlock
 62
    0
370
   -2
100
AcDbTrace
 10
201.5
 20
-210
 30
0
 11
207.75
 21
-208.9592883555679
 31
0
 12
207.75
 22
-211.0407116444321
 32
0
 13
207.75
 23
-211.0407116444321
 33
0
  0
MTEXT
  5
B7
100
AcDbEntity
  8
measure
  6
CONTINUOUS
 62
    1
370
   -2
100
AcDbMText
 10
200
 20
-205.3125
 30
0
 40
6.25
 41
2.777777777778165
 71
    5
 72
    1
  1
3
  7
standard
210
0
220
0
230
1
 50
0
 73
    2
 44
1
  0
ENDBLK
  5
72
330
70
100
AcDbEntity
  8
0
100
AcDbBlockEnd
  0
BLOCK
  5
74
330
73
100
AcDbEntity
  8
0
100
AcDbBlockBegin
  2
*D1
 70
    1
 10
0
 20
0
  3
*D1
  1

  0
LINE
  5
B8
100
AcDbEntity
  8
measure
  6
ByBlock
 62
    0
370
   -2
100
AcDbLine
 10
-222
 20
215
 11
-222
 21
185
  0
SOLID
  5
B9
100
AcDbEntity
  8
measure
  6
ByBlock
 62
    0
370
   -2
100
AcDbTrace
 10
-222
 20
215
 30
0
 11
-220.9592883555679
 21
208.75
 31
0
 12
-223.0407116444321
 22
208.75
 32
0
 13
-223.0407116444321
 23
208.75
 33
0
  0
SOLID
  5
BA
100
AcDbEntity
  8
measure
  6
ByBlock
 62
    0
370
   -2
100
AcDbTrace
 10
-222
 20
185
 30
0
 11
-223.0407116444321
 21
191.25
 31
0
 12
-220.9592883555679
 22
191.25
 32
0
 13
-220.9592883555679
 23
191.25
 33
0
  0
MTEXT
  5
BB
100
AcDbEntity
  8
measure
  6
CONTINUOUS
 62
    1
370
   -2
100
AcDbMText
 10
-226.6875
 20
200
 30
0
 40
6.25
 41
7.638888888889277
 71
    5
 72
    1
  1
30
  7
standard
210
0
220
0
230
1
 50
90
 73
    2
 44
1
  0
LINE
  5
BC
100
AcDbEntity
  8
measure
  6
ByBlock
 62
    0
370
   -2
100
AcDbLine
 10
-201.5625
 20
215
 11
-225.125
 21
215
  0
LINE
  5
BD
100
AcDbEntity
  8
measure
  6
ByBlock
 62
    0
370
   -2
100
AcDbLine
 10
-201.5625
 20
185
 11
-225.125
 21
185
  0
ENDBLK
  5
75
330
73
100
AcDbEntity
  8
0
100
AcDbBlockEnd
  0
BLOCK
  5
77
330
76
100
AcDbEntity
  8
0
100
AcDbBlockBegin
  2
*D3
 70
    1
 10
0
 20
0
  3
*D3
  1

  0
LINE
  5
BE
100
AcDbEntity
  8
measure
  6
ByBlock
 62
    0
370
   -2
100
AcDbLine
 10
-80
 20
-1.5625
 11
-80.00000000000003
 21
-123.125
  0
LINE
  5
BF
100
AcDbEntity
  8
measure
  6
ByBlock
 62
    0
370
   -2
100
AcDbLine
 10
80
 20
-1.5625
 11
79.99999999999997
 21
-123.125
  0
LINE
  5
C0
100
AcDbEntity
  8
measure
  6
ByBlock
 62
    0
370
   -2
100
AcDbLine
 10
-80.00000000000003
 20
-120
 11
79.99999999999997
 21
-120
  0
SOLID
  5
C1
100
AcDbEntity
  8
measure
  6
ByBlock
 62
    0
370
   -2
100
AcDbTrace
 10
-80.00000000000003
 20
-120
 30
0
 11
-73.75000000000003
 21
-118.9592883555679
 31
0
 12
-73.75000000000003
 22
-121.0407116444321
 32
0
 13
-73.75000000000003
 23
-121.0407116444321
 33
0
  0
SOLID
  5
C2
100
AcDbEntity
  8
measure
  6
ByBlock
 62
    0
370
   -2
100
AcDbTrace
 10
79.99999999999997
 20
-120
 30
0
 11
73.74999999999997
 21
-121.0407116444321
 31
0
 12
73.74999999999997
 22
-118.9592883555679
 32
0
 13
73.74999999999997
 23
-118.9592883555679
 33
0
  0
MTEXT
  5
C3
100
AcDbEntity
  8
measure
  6
CONTINUOUS
 62
    1
370
   -2
100
AcDbMText
 10
-2.813468283685385e-14
 20
-115.3125
 30
0
 40
6.25
 41
11.1111111111115
 71
    5
 72
    1
  1
160
  7
standard
210
0
220
0
230
1
 50
0
 73
    2
 44
1
  0
ENDBLK
  5
78
330
76
100
AcDbEntity
  8
0
100
AcDbBlockEnd
  0
BLOCK
  5
7A
330
79
100
AcDbEntity
  8
0
100
AcDbBlockBegin
  2
*D5
 70
    1
 10
0
 20
0
  3
*D5
  1

  0
LINE
  5
C4
100
AcDbEntity
  8
measure
  6
ByBlock
 62
    0
370
   -2
100
AcDbLine
 10
-213.75
 20
200
 11
-186.25
 21
200
  0
SOLID
  5
C5
100
AcDbEntity
  8
measure
  6
ByBlock
 62
    0
370
   -2
100
AcDbTrace
 10
-213.75
 20
200
 30
0
 11
-207.5
 21
201.0407116444321
 31
0
 12
-207.5
 22
198.9592883555679
 32
0
 13
-207.5
 23
198.9592883555679
 33
0
  0
SOLID
  5
C6
100
AcDbEntity
  8
measure
  6
ByBlock
 62
    0
370
   -2
100
AcDbTrace
 10
-186.25
 20
200
 30
0
 11
-192.5
 21
198.9592883555679
 31
0
 12
-192.5
 22
201.0407116444321
 32
0
 13
-192.5
 23
201.0407116444321
 33
0
  0
MTEXT
  5
C7
100
AcDbEntity
  8
measure
  6
CONTINUOUS
 62
    1
370
   -2
100
AcDbMText
 10
-200
 20
204.6875
 30
0
 40
6.25
 41
14.58333333333372
 71
    5
 72
    1
  1
27.5
  7
standard
210
0
220
0
230
1
 50
0
 73
    2
 44
1
  0
ENDBLK
  5
7B
330
79
100
AcDbEntity
  8
0
100
AcDbBlockEnd
  0
BLOCK
  5
7D
330
7C
100
AcDbEntity
  8
0
100
AcDbBlockBegin
  2
*D12
 70
    1
 10
0
 20
0
  3
*D12
  1

  0
LINE
  5
C8
100
AcDbEntity
  8
measure
  6
ByBlock
 62
    0
370
   -2
100
AcDbLine
 10
-68.89514565439602
 20
88.10485434560398
 11
-51.29029130879204
 21
105.709708691208
  0
LINE
  5
C9
100
AcDbEntity
  8
measure
  6
ByBlock
 62
    0
370
   -2
100
AcDbLine
 10
-100.895145654396
 20
120.104854345604
 11
-83.29029130879204
 21
137.709708691208
  0
LINE
  5
CA
100
AcDbEntity
  8
measure
  6
ByBlock
 62
    0
370
   -2
100
AcDbLine
 10
-53.5
 20
103.5
 11
-85.5
 21
135.5
  0
SOLID
  5
CB
100
AcDbEntity
  8
measure
  6
ByBlock
 62
    0
370
   -2
100
AcDbTrace
 10
-53.5
 20
103.5
 30
0
 11
-58.65531164345366
 21
107.1835231213782
 31
0
 12
-57.18352312137818
 22
108.6553116434537
 32
0
 13
-57.18352312137818
 23
108.6553116434537
 33
0
  0
SOLID
  5
CC
100
AcDbEntity
  8
measure
  6
ByBlock
 62
    0
370
   -2
100
AcDbTrace
 10
-85.5
 20
135.5
 30
0
 11
-80.34468835654634
 21
131.8164768786218
 31
0
 12
-81.81647687862181
 22
130.3446883565463
 32
0
 13
-81.81647687862181
 23
130.3446883565463
 33
0
  0
MTEXT
  5
CD
100
AcDbEntity
  8
measure
  6
CONTINUOUS
 62
    1
370
   -2
100
AcDbMText
 10
-66.18543696318804
 20
122.8145630368119
 30
0
 40
6.25
 41
30.55555555555634
 71
    5
 72
    1
  1
45.2548
  7
standard
210
0
220
0
230
1
 50
315
 73
    2
 44
1
  0
ENDBLK
  5
7E
330
7C
100
AcDbEntity
  8
0
100
AcDbBlockEnd
  0
BLOCK
  5
80
330
7F
100
AcDbEntity
  8
0
100
AcDbBlockBegin
  2
*D6
 70
    1
 10
0
 20
0
  3
*D6
  1

  0
LINE
  5
CE
100
AcDbEntity
  8
measure
  6
ByBlock
 62
    0
370
   -2
100
AcDbLine
 10
45.5
 20
-70
 11
74.5
 21
-70
  0
SOLID
  5
CF
100
AcDbEntity
  8
measure
  6
ByBlock
 62
    0
370
   -2
100
AcDbTrace
 10
58
 20
-70
 30
0
 11
51.75
 21
-71.04071164443211
 31
0
 12
51.75
 22
-68.95928835556789
 32
0
 13
51.75
 23
-68.95928835556789
 33
0
  0
SOLID
  5
D0
100
AcDbEntity
  8
measure
  6
ByBlock
 62
    0
370
   -2
100
AcDbTrace
 10
62
 20
-70
 30
0
 11
68.25
 21
-68.95928835556791
 31
0
 12
68.25
 22
-71.04071164443211
 32
0
 13
68.25
 23
-71.04071164443211
 33
0
  0
MTEXT
  5
D1
100
AcDbEntity
  8
measure
  6
CONTINUOUS
 62
    1
370
   -2
100
AcDbMText
 10
60
 20
-65.3125
 30
0
 40
6.25
 41
3.472222222222222
 71
    5
 72
    1
  1
4
  7
standard
210
0
220
0
230
1
 50
0
 73
    2
 44
1
  0
ENDBLK
  5
81
330
7F
100
AcDbEntity
  8
0
100
AcDbBlockEnd
  0
BLOCK
  5
83
330
82
100
AcDbEntity
  8
0
100
AcDbBlockBegin
  2
*D10
 70
    1
 10
0
 20
0
  3
*D10
  1

  0
LINE
  5
D2
100
AcDbEntity
  8
measure
  6
ByBlock
 62
    0
370
   -2
100
AcDbLine
 10
-198.895145654396
 20
-201.104854345604
 11
-142.790291308792
 21
-257.2097086912079
  0
LINE
  5
D3
100
AcDbEntity
  8
measure
  6
ByBlock
 62
    0
370
   -2
100
AcDbLine
 10
201.104854345604
 20
198.895145654396
 11
257.2097086912079
 21
142.790291308792
  0
LINE
  5
D4
100
AcDbEntity
  8
measure
  6
ByBlock
 62
    0
370
   -2
100
AcDbLine
 10
-145
 20
-255
 11
255
 21
145
  0
SOLID
  5
D5
100
AcDbEntity
  8
measure
  6
ByBlock
 62
    0
370
   -2
100
AcDbTrace
 10
-145
 20
-255
 30
0
 11
-141.3164768786218
 21
-249.8446883565463
 31
0
 12
-139.8446883565463
 22
-251.3164768786218
 32
0
 13
-139.8446883565463
 23
-251.3164768786218
 33
0
  0
SOLID
  5
D6
100
AcDbEntity
  8
measure
  6
ByBlock
 62
    0
370
   -2
100
AcDbTrace
 10
255
 20
145
 30
0
 11
251.3164768786218
 21
139.8446883565463
 31
0
 12
249.8446883565463
 22
141.3164768786218
 32
0
 13
249.8446883565463
 23
141.3164768786218
 33
0
  0
MTEXT
  5
D7
100
AcDbEntity
  8
measure
  6
CONTINUOUS
 62
    1
370
   -2
100
AcDbMText
 10
51.68543696318806
 20
-51.68543696318806
 30
0
 40
6.25
 41
34.72222222222416
 71
    5
 72
    1
  1
565.6854
  7
standard
210
0
220
0
230
1
 50
45
 73
    2
 44
1
  0
ENDBLK
  5
84
330
82
100
AcDbEntity
  8
0
100
AcDbBlockEnd
  0
BLOCK
  5
86
330
85
100
AcDbEntity
  8
0
100
AcDbBlockBegin
  2
*D11
 70
    1
 10
0
 20
0
  3
*D11
  1

  0
LINE
  5
D8
100
AcDbEntity
  8
measure
  6
ByBlock
 62
    0
370
   -2
100
AcDbLine
 10
-118.104854345604
 20
101.104854345604
 11
-124.209708691208
 21
107.209708691208
  0
LINE
  5
D9
100
AcDbEntity
  8
measure
  6
ByBlock
 62
    0
370
   -2
100
AcDbLine
 10
-101.104854345604
 20
118.104854345604
 11
-107.209708691208
 21
124.209708691208
  0
LINE
  5
DA
100
AcDbEntity
  8
measure
  6
ByBlock
 62
    0
370
   -2
100
AcDbLine
 10
-122
 20
105
 11
-105
 21
122
  0
SOLID
  5
DB
100
AcDbEntity
  8
measure
  6
ByBlock
 62
    0
370
   -2
100
AcDbTrace
 10
-122
 20
105
 30
0
 11
-118.3164768786218
 21
110.1553116434537
 31
0
 12
-116.8446883565463
 22
108.6835231213782
 32
0
 13
-116.8446883565463
 23
108.6835231213782
 33
0
  0
SOLID
  5
DC
100
AcDbEntity
  8
measure
  6
ByBlock
 62
    0
370
   -2
100
AcDbTrace
 10
-105
 20
122
 30
0
 11
-108.6835231213782
 21
116.8446883565463
 31
0
 12
-110.1553116434537
 22
118.3164768786218
 32
0
 13
-110.1553116434537
 23
118.3164768786218
 33
0
  0
MTEXT
  5
DD
100
AcDbEntity
  8
measure
  6
CONTINUOUS
 62
    1
370
   -2
100
AcDbMText
 10
-96.89773479890397
 20
136.7313912747198
 30
0
 40
6.25
 41
29.16666666666705
 71
    5
 72
    1
  1
24.0416
  7
standard
210
0
220
0
230
1
 50
45
 73
    2
 44
1
  0
ENDBLK
  5
87
330
85
100
AcDbEntity
  8
0
100
AcDbBlockEnd
  0
BLOCK
  5
89
330
88
100
AcDbEntity
  8
0
100
AcDbBlockBegin
  2
Shaft
 70
    0
 10
0
 20
0
  3
Shaft
  1

  0
LINE
  5
DE
100
AcDbEntity
  8
rotor_shafts
  6
ByLayer
 62
  256
370
   -1
100
AcDbLine
 10
31
 20
-221
 11
220
 21
-31
  0
LINE
  5
DF
100
AcDbEntity
  8
rotor_shafts
  6
ByLayer
 62
  256
370
   -1
100
AcDbLine
 10
220
 20
-31
 11
239
 21
-31
  0
LINE
  5
E0
100
AcDbEntity
  8
rotor_shafts
  6
ByLayer
 62
  256
370
   -1
100
AcDbLine
 10
239
 20
-31
 11
239
 21
-50
  0
LINE
  5
E1
100
AcDbEntity
  8
rotor_shafts
  6
ByLayer
 62
  256
370
   -1
100
AcDbLine
 10
49
 20
-239
 11
44
 21
-244
  0
LINE
  5
E2
100
AcDbEntity
  8
rotor_shafts
  6
ByLayer
 62
  256
370
   -1
100
AcDbLine
 10
34
 20
-244
 11
44
 21
-244
  0
LINE
  5
E3
100
AcDbEntity
  8
rotor_shafts
  6
ByLayer
 62
  256
370
   -1
100
AcDbLine
 10
31
 20
-221
 11
26
 21
-226
  0
LINE
  5
E4
100
AcDbEntity
  8
rotor_shafts
  6
ByLayer
 62
  256
370
   -1
100
AcDbLine
 10
26
 20
-236
 11
34
 21
-244
  0
LINE
  5
E5
100
AcDbEntity
  8
rotor_shafts
  6
ByLayer
 62
  256
370
   -1
100
AcDbLine
 10
26
 20
-226
 11
26
 21
-236
  0
ARC
  5
E6
100
AcDbEntity
  8
rotor_shafts
  6
ByLayer
 62
  256
370
   -1
100
AcDbCircle
 10
40
 20
-230
 40
14.42220510185596
100
AcDbArc
 50
344.3596664239757
 51
105.6403335760253
  0
DIMENSION
  5
E7
100
AcDbEntity
  8
measure
  6
ByLayer
 62
  256
370
   -1
100
AcDbDimension
 10
267
 20
-59
 30
0
 11
159.1854369631881
 21
-160.1854369631881
 31
0
 70
   33
 71
    5
 72
    0
  3
Standard
 53
0
210
0
220
0
230
1
100
AcDbAlignedDimension
 13
30
 23
-240
 33
0
 14
239
 24
-31
 34
0
  0
DIMENSION
  5
E8
100
AcDbEntity
  8
measure
  6
ByLayer
 62
  256
370
   -1
100
AcDbDimension
 10
21
 20
-267
 30
0
 11
15.31456303681193
 21
-254.6854369631881
 31
0
 70
   33
 71
    5
 72
    0
  3
Standard
 53
0
210
0
220
0
230
1
100
AcDbAlignedDimension
 13
26
 23
-226
 33
0
 14
44
 24
-244
 34
0
  0
LEADER
  5
E9
100
AcDbEntity
  8
measure
  6
ByLayer
 62
  256
370
   -1
100
AcDbLeader
  3
Standard
 71
    1
 72
    0
 73
    3
 74
    0
 75
    0
 40
1
 41
10
 76
2
 76
2
 10
220
 20
-31
 30
0
 10
179
 20
-31
 30
0
  0
DIMENSION
  5
EA
100
AcDbEntity
  8
measure
  6
ByLayer
 62
  256
370
   -1
100
AcDbDimension
 10
179
 20
-31
 30
0
 11
-490
 21
-440
 31
0
 70
   34
 71
    5
 72
    0
  3
Standard
 53
0
210
0
220
0
230
1
100
AcDb2LineAngularDimension
 13
220
 23
-31
 33
0
 14
31
 24
-221
 34
0
 15
220
 25
-31
 35
0
 16
183
 26
-49
 36
0
  0
DIMENSION
  5
EB
100
AcDbEntity
  8
measure
  6
ByLayer
 62
  256
370
   -1
100
AcDbDimension
 10
239
 20
-12
 30
0
 11
229.5
 21
-7.3125
 31
0
 70
   33
 71
    5
 72
    0
  3
Standard
 53
0
210
0
220
0
230
1
100
AcDbAlignedDimension
 13
220
 23
-31
 33
0
 14
239
 24
-31
 34
0
  0
DIMENSION
  5
EC
100
AcDbEntity
  8
measure
  6
ByLayer
 62
  256
370
   -1
100
AcDbDimension
 10
44.5
 20
-233.5
 30
0
 11
43.81456303681193
 21
-226.1854369631881
 31
0
 70
   33
 71
    5
 72
    0
  3
Standard
 53
0
210
0
220
0
230
1
100
AcDbAlignedDimension
 13
26
 23
-236
 33
0
 14
34
 24
-244
 34
0
  0
LEADER
  5
ED
100
AcDbEntity
  8
measure
  6
ByLayer
 62
  256
370
   -1
100
AcDbLeader
  3
Standard
 71
    1
 72
    0
 73
    3
 74
    0
 75
    0
 40
1
 41
10
 76
2
 76
2
 10
26
 20
-226
 30
0
 10
26
 20
-200
 30
0
  0
DIMENSION
  5
EE
100
AcDbEntity
  8
measure
  6
ByLayer
 62
  256
370
   -1
100
AcDbDimension
 10
26
 20
-200
 30
0
 11
-490
 21
-440
 31
0
 70
   34
 71
    5
 72
    0
  3
Standard
 53
0
210
0
220
0
230
1
100
AcDb2LineAngularDimension
 13
31
 23
-221
 33
0
 14
220
 24
-31
 34
0
 15
26
 25
-226
 35
0
 16
38
 26
-195
 36
0
  0
DIMENSION
  5
EF
100
AcDbEntity
  8
measure
  6
ByLayer
 62
  256
370
   -1
100
AcDbDimension
 10
40
 20
-230
 30
0
 11
61.61486726509338
 21
-201.7560066612828
 31
0
 70
   36
 71
    5
 72
    0
  3
Standard
 53
0
210
0
220
0
230
1
100
AcDbRadialDimension
 15
50.19803902718559
 25
-219.8019609728144
 35
0
 40
0
  0
LINE
  5
F0
100
AcDbEntity
  8
rotor_shafts
  6
ByLayer
 62
  256
370
   -1
100
AcDbLine
 10
239
 20
-50
 11
49
 21
-239
  0
MTEXT
  5
F1
100
AcDbEntity
  8
Text
  6
ByLayer
 62
  256
370
   -1
100
AcDbMText
 10
20
 20
-50
 30
0
 40
4
 41
23.88888888888889
 71
    1
 72
    1
  1
Top View
  7
standard
210
0
220
0
230
1
 50
0
 73
    2
 44
1
  0
MTEXT
  5
F2
100
AcDbEntity
  8
Text
  6
ByLayer
 62
  256
370
   -1
100
AcDbMText
 10
320
 20
-50
 30
0
 40
4
 41
25.22222137421362
 71
    1
 72
    1
  1
Side View
  7
standard
210
0
220
0
230
1
 50
0
 73
    2
 44
1
  0
LINE
  5
F3
100
AcDbEntity
  8
rotor_shafts
  6
ByLayer
 62
  256
370
   -1
100
AcDbLine
 10
320
 20
-90
 11
345.4
 21
-90
  0
LINE
  5
F4
100
AcDbEntity
  8
rotor_shafts
  6
ByLayer
 62
  256
370
   -1
100
AcDbLine
 10
320
 20
-90
 11
320
 21
-64.60000000000002
  0
LINE
  5
F5
100
AcDbEntity
  8
rotor_shafts
  6
ByLayer
 62
  256
370
   -1
100
AcDbLine
 10
345.4
 20
-90
 11
345.4
 21
-64.60000000000002
  0
LINE
  5
F6
100
AcDbEntity
  8
rotor_shafts
  6
ByLayer
 62
  256
370
   -1
100
AcDbLine
 10
320
 20
-64.60000000000002
 11
345.4
 21
-64.60000000000002
  0
DIMENSION
  5
F7
100
AcDbEntity
  8
measure
  6
ByLayer
 62
  256
370
   -1
100
AcDbDimension
 10
345.4
 20
-130
 30
0
 11
332.7
 21
-125.3125
 31
0
 70
   33
 71
    5
 72
    0
  3
Standard
 53
0
210
0
220
0
230
1
100
AcDbAlignedDimension
 13
320
 23
-90
 33
0
 14
345.4
 24
-90
 34
0
  0
DIMENSION
  5
F8
100
AcDbEntity
  8
measure
  6
ByLayer
 62
  256
370
   -1
100
AcDbDimension
 10
400
 20
-64.60000000000002
 30
0
 11
395.3125
 21
-77.30000000000001
 31
0
 70
   33
 71
    5
 72
    0
  3
Standard
 53
0
210
0
220
0
230
1
100
AcDbAlignedDimension
 13
345.4
 23
-90
 33
0
 14
345.4
 24
-64.60000000000002
 34
0
  0
DIMENSION
  5
F9
100
AcDbEntity
  8
measure
  6
ByLayer
 62
  256
370
   -1
100
AcDbDimension
 10
278
 20
-70
 30
0
 11
270.1854369631881
 21
-71.18543696318805
 31
0
 70
   33
 71
    5
  3
Standard
 53
0
210
0
220
0
230
1
100
AcDbAlignedDimension
 13
230
 23
-40
 33
0
 14
239
 24
-31
 34
0
  0
DIMENSION
  5
FA
100
AcDbEntity
  8
measure
  6
ByLayer
 62
  256
370
   -1
100
AcDbDimension
 10
66.5
 20
-236.5
 30
0
 11
157.6854369631881
 21
-138.6854369631881
 31
0
 70
   33
 71
    5
  3
Standard
 53
0
210
0
220
0
230
1
100
AcDbAlignedDimension
 13
239
 23
-31
 33
0
 14
50
 24
-220
 34
0
  0
DIMENSION
  5
FB
100
AcDbEntity
  8
measure
  6
ByLayer
 62
  256
370
   -1
100
AcDbDimension
 10
184.3690276364309
 20
4.448249428371284
 30
0
 11
84.04595485221002
 21
-89.74571918630126
 31
0
 70
   33
 71
    5
  3
Standard
 53
0
210
0
220
0
230
1
100
AcDbAlignedDimension
 13
26
 23
-226
 33
0
 14
220
 24
-31
 34
0
  0
ENDBLK
  5
8A
330
88
100
AcDbEntity
  8
0
100
AcDbBlockEnd
  0
BLOCK
  5
8C
330
8B
100
AcDbEntity
  8
0
100
AcDbBlockBegin
  2
frame
 70
    0
 10
0
 20
0
  3
frame
  1

  0
LWPOLYLINE
  5
FC
100
AcDbEntity
  8
frame
  6
ByLayer
 62
  256
370
   -1
100
AcDbPolyline
 90
    4
 70
    1
 43
0
 10
0
 20
0
 10
160
 20
0
 10
160
 20
-160
 10
0
 20
-160
  0
CIRCLE
  5
FD
100
AcDbEntity
  8
bolts_large
  6
ByLayer
 62
  256
370
   -1
100
AcDbCircle
 10
10
 20
-10
 40
2
  0
CIRCLE
  5
FE
100
AcDbEntity
  8
bolts_large
  6
ByLayer
 62
  256
370
   -1
100
AcDbCircle
 10
150
 20
-10
 40
2
  0
CIRCLE
  5
FF
100
AcDbEntity
  8
bolts_large
  6
ByLayer
 62
  256
370
   -1
100
AcDbCircle
 10
150
 20
-150
 40
2
  0
CIRCLE
  5
100
100
AcDbEntity
  8
bolts_large
  6
ByLayer
 62
  256
370
   -1
100
AcDbCircle
 10
10
 20
-150
 40
2
  0
DIMENSION
  5
101
100
AcDbEntity
  8
measure
  6
ByLayer
 62
  256
370
   -1
100
AcDbDimension
 10
190
 20
-160
 30
0
 11
185.3125
 21
-80
 31
0
 70
   33
 71
    5
  3
Standard
 53
0
210
0
220
0
230
1
100
AcDbAlignedDimension
 13
160
 23
0
 33
0
 14
160
 24
-160
 34
0
  0
DIMENSION
  5
102
100
AcDbEntity
  8
measure
  6
ByLayer
 62
  256
370
   -1
100
AcDbDimension
 10
160
 20
-180
 30
0
 11
80
 21
-175.3125
 31
0
 70
   33
 71
    5
  3
Standard
 53
0
210
0
220
0
230
1
100
AcDbAlignedDimension
 13
0
 23
-160
 33
0
 14
160
 24
-160
 34
0
  0
DIMENSION
  5
103
100
AcDbEntity
  8
measure
  6
ByLayer
 62
  256
370
   -1
100
AcDbDimension
 10
12
 20
-17
 30
0
 11
10
 21
-12.3125
 31
0
 70
   33
 71
    5
  3
Standard
 53
0
210
0
220
0
230
1
100
AcDbAlignedDimension
 13
8
 23
-10
 33
0
 14
12
 24
-10
 34
0
  0
LWPOLYLINE
  5
104
100
AcDbEntity
  8
frame
  6
ByLayer
 62
  256
370
   -1
100
AcDbPolyline
 90
    4
 70
    1
 43
0
 10
-180
 20
-140
 10
-20
 20
-140
 10
-20
 20
-142
 10
-180
 20
-142
  0
DIMENSION
  5
105
100
AcDbEntity
  8
measure
  6
ByLayer
 62
  256
370
   -1
100
AcDbDimension
 10
-20
 20
-130
 30
0
 11
-100
 21
-125.3125
 31
0
 70
   33
 71
    5
  3
Standard
 53
0
210
0
220
0
230
1
100
AcDbAlignedDimension
 13
-180
 23
-140
 33
0
 14
-20
 24
-140
 34
0
  0
DIMENSION
  5
106
100
AcDbEntity
  8
measure
  6
ByLayer
 62
  256
370
   -1
100
AcDbDimension
 10
-190
 20
-142
 30
0
 11
-194.6875
 21
-141
 31
0
 70
   33
 71
    5
  3
Standard
 53
0
210
0
220
0
230
1
100
AcDbAlignedDimension
 13
-180
 23
-140
 33
0
 14
-180
 24
-142
 34
0
  0
DIMENSION
  5
107
100
AcDbEntity
  8
measure
  6
ByLayer
 62
  256
370
   -1
100
AcDbDimension
 10
160
 20
8
 30
0
 11
155
 21
12.6875
 31
0
 70
   33
 71
    5
  3
Standard
 53
0
210
0
220
0
230
1
100
AcDbAlignedDimension
 13
150
 23
-10
 33
0
 14
160
 24
-10
 34
0
  0
DIMENSION
  5
108
100
AcDbEntity
  8
measure
  6
ByLayer
 62
  256
370
   -1
100
AcDbDimension
 10
170
 20
0
 30
0
 11
165.3125
 21
-5
 31
0
 70
   33
 71
    5
  3
Standard
 53
0
210
0
220
0
230
1
100
AcDbAlignedDimension
 13
150
 23
-10
 33
0
 14
150
 24
0
 34
0
  0
ENDBLK
  5
8D
330
8B
100
AcDbEntity
  8
0
100
AcDbBlockEnd
  0
ENDSEC
  0
SECTION
  2
ENTITIES
  0
CIRCLE
  5
109
100
AcDbEntity
  8
rotor_blades
  6
ByLayer
 62
  256
370
   -1
100
AcDbCircle
 10
-200
 20
-200
 40
127
  0
CIRCLE
  5
10A
100
AcDbEntity
  8
bolts
  6
ByLayer
 62
  256
370
   -1
100
AcDbCircle
 10
-190
 20
-200
 40
1.5
  0
CIRCLE
  5
10B
100
AcDbEntity
  8
bolts
  6
ByLayer
 62
  256
370
   -1
100
AcDbCircle
 10
-200
 20
-190
 40
1.5
  0
CIRCLE
  5
10C
100
AcDbEntity
  8
bolts
  6
ByLayer
 62
  256
370
   -1
100
AcDbCircle
 10
-210
 20
-200
 40
1.5
  0
CIRCLE
  5
10D
100
AcDbEntity
  8
bolts
  6
ByLayer
 62
  256
370
   -1
100
AcDbCircle
 10
-200
 20
-210
 40
1.5
  0
CIRCLE
  5
10E
100
AcDbEntity
  8
rotor_blades
  6
ByLayer
 62
  256
370
   -1
100
AcDbCircle
 10
200
 20
-200
 40
127
  0
CIRCLE
  5
10F
100
AcDbEntity
  8
bolts
  6
ByLayer
 62
  256
370
   -1
100
AcDbCircle
 10
200
 20
-190
 40
1.5
  0
CIRCLE
  5
110
100
AcDbEntity
  8
bolts
  6
ByLayer
 62
  256
370
   -1
100
AcDbCircle
 10
190
 20
-200
 40
1.5
  0
CIRCLE
  5
111
100
AcDbEntity
  8
bolts
  6
ByLayer
 62
  256
370
   -1
100
AcDbCircle
 10
200
 20
-210
 40
1.5
  0
CIRCLE
  5
112
100
AcDbEntity
  8
bolts
  6
ByLayer
 62
  256
370
   -1
100
AcDbCircle
 10
210
 20
-200
 40
1.5
  0
CIRCLE
  5
113
100
AcDbEntity
  8
rotor_blades
  6
ByLayer
 62
  256
370
   -1
100
AcDbCircle
 10
200
 20
200
 40
127
  0
CIRCLE
  5
114
100
AcDbEntity
  8
bolts
  6
ByLayer
 62
  256
370
   -1
100
AcDbCircle
 10
190
 20
200
 40
1.5
  0
CIRCLE
  5
115
100
AcDbEntity
  8
bolts
  6
ByLayer
 62
  256
370
   -1
100
AcDbCircle
 10
200
 20
190
 40
1.5
  0
CIRCLE
  5
116
100
AcDbEntity
  8
bolts
  6
ByLayer
 62
  256
370
   -1
100
AcDbCircle
 10
210
 20
200
 40
1.5
  0
CIRCLE
  5
117
100
AcDbEntity
  8
bolts
  6
ByLayer
 62
  256
370
   -1
100
AcDbCircle
 10
200
 20
210
 40
1.5
  0
CIRCLE
  5
118
100
AcDbEntity
  8
rotor_blades
  6
ByLayer
 62
  256
370
   -1
100
AcDbCircle
 10
-200
 20
200
 40
127
  0
CIRCLE
  5
119
100
AcDbEntity
  8
bolts
  6
ByLayer
 62
  256
370
   -1
100
AcDbCircle
 10
-200
 20
190
 40
1.5
  0
CIRCLE
  5
11A
100
AcDbEntity
  8
bolts
  6
ByLayer
 62
  256
370
   -1
100
AcDbCircle
 10
-190
 20
200
 40
1.5
  0
CIRCLE
  5
11B
100
AcDbEntity
  8
bolts
  6
ByLayer
 62
  256
370
   -1
100
AcDbCircle
 10
-200
 20
210
 40
1.5
  0
CIRCLE
  5
11C
100
AcDbEntity
  8
bolts
  6
ByLayer
 62
  256
370
   -1
100
AcDbCircle
 10
-210
 20
200
 40
1.5
  0
LWPOLYLINE
  5
11D
100
AcDbEntity
  8
frame
  6
ByLayer
 62
  256
370
   -1
100
AcDbPolyline
 90
    4
 70
    1
 43
0
 10
-80
 20
80
 10
80
 20
80
 10
80
 20
-80
 10
-80
 20
-80
  0
CIRCLE
  5
11E
100
AcDbEntity
  8
rotors
  6
ByLayer
 62
  256
370
   -1
100
AcDbCircle
 10
200
 20
200
 40
13.75
  0
CIRCLE
  5
11F
100
AcDbEntity
  8
rotors
  6
ByLayer
 62
  256
370
   -1
100
AcDbCircle
 10
-200
 20
200
 40
13.75
  0
CIRCLE
  5
120
100
AcDbEntity
  8
rotors
  6
ByLayer
 62
  256
370
   -1
100
AcDbCircle
 10
-200
 20
-200
 40
13.75
  0
CIRCLE
  5
121
100
AcDbEntity
  8
rotors
  6
ByLayer
 62
  256
370
   -1
100
AcDbCircle
 10
-200
 20
200
 40
1.585
  0
CIRCLE
  5
122
100
AcDbEntity
  8
rotors
  6
ByLayer
 62
  256
370
   -1
100
AcDbCircle
 10
200
 20
200
 40
1.585
  0
CIRCLE
  5
123
100
AcDbEntity
  8
rotors
  6
ByLayer
 62
  256
370
   -1
100
AcDbCircle
 10
200
 20
-200
 40
1.585
  0
CIRCLE
  5
124
100
AcDbEntity
  8
rotors
  6
ByLayer
 62
  256
370
   -1
100
AcDbCircle
 10
-200
 20
-200
 40
1.585
  0
CIRCLE
  5
125
100
AcDbEntity
  8
rotors
  6
ByLayer
 62
  256
370
   -1
100
AcDbCircle
 10
200
 20
-200
 40
13.75
  0
CIRCLE
  5
126
100
AcDbEntity
  8
bolts
  6
ByLayer
 62
  256
370
   -1
100
AcDbCircle
 10
60
 20
70
 40
2
  0
CIRCLE
  5
127
100
AcDbEntity
  8
bolts
  6
ByLayer
 62
  256
370
   -1
100
AcDbCircle
 10
70
 20
60
 40
2
  0
CIRCLE
  5
128
100
AcDbEntity
  8
bolts
  6
ByLayer
 62
  256
370
   -1
100
AcDbCircle
 10
30
 20
40
 40
2
  0
CIRCLE
  5
129
100
AcDbEntity
  8
bolts
  6
ByLayer
 62
  256
370
   -1
100
AcDbCircle
 10
40
 20
30
 40
2
  0
CIRCLE
  5
12A
100
AcDbEntity
  8
bolts
  6
ByLayer
 62
  256
370
   -1
100
AcDbCircle
 10
10
 20
10
 40
2
  0
CIRCLE
  5
12B
100
AcDbEntity
  8
bolts
  6
ByLayer
 62
  256
370
   -1
100
AcDbCircle
 10
10
 20
-10
 40
2
  0
CIRCLE
  5
12C
100
AcDbEntity
  8
bolts
  6
ByLayer
 62
  256
370
   -1
100
AcDbCircle
 10
-10
 20
-10
 40
2
  0
CIRCLE
  5
12D
100
AcDbEntity
  8
bolts
  6
ByLayer
 62
  256
370
   -1
100
AcDbCircle
 10
-10
 20
10
 40
2
  0
CIRCLE
  5
12E
100
AcDbEntity
  8
bolts
  6
ByLayer
 62
  256
370
   -1
100
AcDbCircle
 10
70
 20
-60
 40
2
  0
CIRCLE
  5
12F
100
AcDbEntity
  8
bolts
  6
ByLayer
 62
  256
370
   -1
100
AcDbCircle
 10
60
 20
-70
 40
2
  0
CIRCLE
  5
130
100
AcDbEntity
  8
bolts
  6
ByLayer
 62
  256
370
   -1
100
AcDbCircle
 10
40
 20
-30
 40
2
  0
CIRCLE
  5
131
100
AcDbEntity
  8
bolts
  6
ByLayer
 62
  256
370
   -1
100
AcDbCircle
 10
30
 20
-40
 40
2
  0
CIRCLE
  5
132
100
AcDbEntity
  8
bolts
  6
ByLayer
 62
  256
370
   -1
100
AcDbCircle
 10
-40
 20
-30
 40
2
  0
CIRCLE
  5
133
100
AcDbEntity
  8
bolts
  6
ByLayer
 62
  256
370
   -1
100
AcDbCircle
 10
-30
 20
-40
 40
2
  0
CIRCLE
  5
134
100
AcDbEntity
  8
bolts
  6
ByLayer
 62
  256
370
   -1
100
AcDbCircle
 10
-70
 20
-60
 40
2
  0
CIRCLE
  5
135
100
AcDbEntity
  8
bolts
  6
ByLayer
 62
  256
370
   -1
100
AcDbCircle
 10
-60
 20
-70
 40
2
  0
CIRCLE
  5
136
100
AcDbEntity
  8
bolts
  6
ByLayer
 62
  256
370
   -1
100
AcDbCircle
 10
-60
 20
70
 40
2
  0
CIRCLE
  5
137
100
AcDbEntity
  8
bolts
  6
ByLayer
 62
  256
370
   -1
100
AcDbCircle
 10
-70
 20
60
 40
2
  0
CIRCLE
  5
138
100
AcDbEntity
  8
bolts
  6
ByLayer
 62
  256
370
   -1
100
AcDbCircle
 10
-30
 20
40
 40
2
  0
CIRCLE
  5
139
100
AcDbEntity
  8
bolts
  6
ByLayer
 62
  256
370
   -1
100
AcDbCircle
 10
-40
 20
30
 40
2
  0
DIMENSION
  5
13A
100
AcDbEntity
  8
measure
  6
ByLayer
 62
  256
370
   -1
100
AcDbDimension
  2
*D1
 10
-222
 20
185
 30
0
 11
-226.6875
 21
200
 31
0
 70
   32
 71
    5
 72
    0
  3
Standard
 53
0
210
0
220
0
230
1
100
AcDbAlignedDimension
 13
-200
 23
215
 33
0
 14
-200
 24
185
 34
0
 50
90
100
AcDbRotatedDimension
  0
DIMENSION
  5
13B
100
AcDbEntity
  8
measure
  6
ByLayer
 62
  256
370
   -1
100
AcDbDimension
  2
*D2
 10
-185
 20
230
 30
0
 11
-200
 21
234.6875
 31
0
 70
   32
 71
    5
 72
    0
  3
Standard
 53
0
210
0
220
0
230
1
100
AcDbAlignedDimension
 13
-215
 23
200
 33
0
 14
-185
 24
200
 34
0
100
AcDbRotatedDimension
  0
DIMENSION
  5
13C
100
AcDbEntity
  8
measure
  6
ByLayer
 62
  256
370
   -1
100
AcDbDimension
  2
*D3
 10
80
 20
-120
 30
0
 11
-2.813468283685385e-14
 21
-115.3125
 31
0
 70
   33
 71
    5
 72
    0
  3
Standard
 53
0
210
0
220
0
230
1
100
AcDbAlignedDimension
 13
-80
 23
0
 33
0
 14
80
 24
0
 34
0
  0
DIMENSION
  5
13D
100
AcDbEntity
  8
measure
  6
ByLayer
 62
  256
370
   -1
100
AcDbDimension
  2
*D4
 10
-130
 20
-79.99999999999999
 30
0
 11
-134.6875
 21
5.740531871003218e-16
 31
0
 70
   33
 71
    5
 72
    0
  3
Standard
 53
0
210
0
220
0
230
1
100
AcDbAlignedDimension
 13
-80
 23
80
 33
0
 14
-80
 24
-80
 34
0
  0
DIMENSION
  5
13E
100
AcDbEntity
  8
measure
  6
ByLayer
 62
  256
370
   -1
100
AcDbDimension
  2
*D5
 10
-213.75
 20
200
 30
0
 11
-200
 21
204.6875
 31
0
 70
   35
 71
    5
 72
    0
  3
Standard
 53
0
210
0
220
0
230
1
100
AcDbDiametricDimension
 15
-186.25
 25
200
 35
0
 40
0
  0
DIMENSION
  5
13F
100
AcDbEntity
  8
measure
  6
ByLayer
 62
  256
370
   -1
100
AcDbDimension
  2
*D6
 10
58
 20
-70
 30
0
 11
60
 21
-65.3125
 31
0
 70
   35
 71
    5
 72
    0
  3
Standard
 53
0
210
0
220
0
230
1
100
AcDbDiametricDimension
 15
62
 25
-70
 35
0
 40
0
  0
DIMENSION
  5
140
100
AcDbEntity
  8
measure
  6
ByLayer
 62
  256
370
   -1
100
AcDbDimension
  2
*D7
 10
198.5
 20
-210
 30
0
 11
200
 21
-205.3125
 31
0
 70
   35
 71
    5
 72
    0
  3
Standard
 53
0
210
0
220
0
230
1
100
AcDbDiametricDimension
 15
201.5
 25
-210
 35
0
 40
0
  0
DIMENSION
  5
141
100
AcDbEntity
  8
measure
  6
ByLayer
 62
  256
370
   -1
100
AcDbDimension
  2
*D8
 10
327
 20
-340
 30
0
 11
200
 21
-335.3125
 31
0
 70
   33
 71
    5
 72
    0
  3
Standard
 53
0
210
0
220
0
230
1
100
AcDbAlignedDimension
 13
73
 23
-200
 33
0
 14
327
 24
-200
 34
0
  0
DIMENSION
  5
142
100
AcDbEntity
  8
measure
  6
ByLayer
 62
  256
370
   -1
100
AcDbDimension
  2
*D9
 10
120
 20
300
 30
0
 11
11.68543696318806
 21
198.3145630368119
 31
0
 70
   33
 71
    5
 72
    0
  3
Standard
 53
0
210
0
220
0
230
1
100
AcDbAlignedDimension
 13
0
 23
0
 33
0
 14
210
 24
210
 34
0
  0
MTEXT
  5
143
100
AcDbEntity
  8
Text
  6
ByLayer
 62
  256
370
   -1
100
AcDbMText
 10
0.111111111110894
 20
-62
 30
0
 40
2
 41
35.55555841905693
 71
    1
 72
    1
  1
Mass = 69.12g (Per sheet)
  7
standard
210
0
220
0
230
1
 50
0
 73
    2
 44
1
  0
MTEXT
  5
144
100
AcDbEntity
  8
Text
  6
ByLayer
 62
  256
370
   -1
100
AcDbMText
 10
0.111111111110894
 20
-65
 30
0
 40
2
 41
30.05555658413049
 71
    1
 72
    1
  1
Density = 2.70 g/cm^3
  7
standard
210
0
220
0
230
1
 50
0
 73
    2
 44
1
  0
MTEXT
  5
145
100
AcDbEntity
  8
Text
  6
ByLayer
 62
  256
370
   -1
100
AcDbMText
 10
-190
 20
222
 30
0
 40
2
 41
21.94444753016772
 71
    1
 72
    1
  1
Brushless Motor
  7
standard
210
0
220
0
230
1
 50
0
 73
    2
 44
1
  0
MTEXT
  5
146
100
AcDbEntity
  8
Text
  6
ByLayer
 62
  256
370
   -1
100
AcDbMText
 10
-190
 20
219
 30
0
 40
2
 41
15.22222427937132
 71
    1
 72
    1
  1
Mass = 50g
  7
standard
210
0
220
0
230
1
 50
0
 73
    2
 44
1
  0
MTEXT
  5
147
100
AcDbEntity
  8
Text
  6
ByLayer
 62
  256
370
   -1
100
AcDbMText
 10
240
 20
-240
 30
0
 40
2
 41
28.11111111111133
 71
    1
 72
    1
  1
1045 Propeller Blade
  7
standard
210
0
220
0
230
1
 50
0
 73
    2
 44
1
  0
MTEXT
  5
148
100
AcDbEntity
  8
Text
  6
ByLayer
 62
  256
370
   -1
100
AcDbMText
 10
240
 20
-243
 30
0
 40
2
 41
15.88889094603799
 71
    1
 72
    1
  1
Mass = 7.5g
  7
standard
210
0
220
0
230
1
 50
0
 73
    2
 44
1
  0
MTEXT
  5
149
100
AcDbEntity
  8
Text
  6
ByLayer
 62
  256
370
   -1
100
AcDbMText
 10
-270
 20
170
 30
0
 40
2
 41
71.44444650159379
 71
    1
 72
    1
  1
Total Approximate Mass Before Battery = 927.028g
  7
standard
210
0
220
0
230
1
 50
0
 73
    2
 44
1
  0
MTEXT
  5
14A
100
AcDbEntity
  8
Text
  6
ByLayer
 62
  256
370
   -1
100
AcDbMText
 10
-190
 20
225
 30
0
 40
2
 41
7.111111111111111
 71
    1
 72
    1
  1
A2212
  7
standard
210
0
220
0
230
1
 50
0
 73
    2
 44
1
  0
MTEXT
  5
14B
100
AcDbEntity
  8
Text
  6
ByLayer
 62
  256
370
   -1
100
AcDbMText
 10
-62
 20
63
 30
0
 40
2
 41
23.05555555555596
 71
    1
 72
    1
  1
Battery 5000mAh
  7
standard
210
0
220
0
230
1
 50
0
 73
    2
 44
1
  0
MTEXT
  5
14C
100
AcDbEntity
  8
Text
  6
ByLayer
 62
  256
370
   -1
100
AcDbMText
 10
-62
 20
60
 30
0
 40
2
 41
62.00000183492737
 71
    1
 72
    1
  1
11.1v (125A max continuous draw, 175A burst)
  7
standard
210
0
220
0
230
1
 50
0
 73
    2
 44
1
  0
MTEXT
  5
14D
100
AcDbEntity
  8
Text
  6
ByLayer
 62
  256
370
   -1
100
AcDbMText
 10
-42
 20
16
 30
0
 40
2
 41
19.00000205714922
 71
    1
 72
    1
  1
Mass = 39.68g
  7
standard
210
0
220
0
230
1
 50
0
 73
    2
 44
1
  0
MTEXT
  5
14E
100
AcDbEntity
  8
Text
  6
ByLayer
 62
  256
370
   -1
100
AcDbMText
 10
-62
 20
56
 30
0
 40
2
 41
16.777779834927
 71
    1
 72
    1
  1
Mass = 375g
  7
standard
210
0
220
0
230
1
 50
0
 73
    2
 44
1
  0
MTEXT
  5
14F
100
AcDbEntity
  8
Text
  6
ByLayer
 62
  256
370
   -1
100
AcDbMText
 10
-269.7777788063523
 20
167
 30
0
 40
2
 41
92.88889094603871
 71
    1
 72
    1
  1
Thrust = 1.73kg per rotor, with 11.1v battery spinning at 11100RPM.
  7
standard
210
0
220
0
230
1
 50
0
 73
    2
 44
1
  0
MTEXT
  5
150
100
AcDbEntity
  8
Text
  6
ByLayer
 62
  256
370
   -1
100
AcDbMText
 10
-269.3333333333333
 20
164
 30
0
 40
2
 41
42.05555555555598
 71
    1
 72
    1
  1
Current Draw = 29.279279279A
  7
standard
210
0
220
0
230
1
 50
0
 73
    2
 44
1
  0
LINE
  5
151
100
AcDbEntity
  8
ESC
  6
ByLayer
 62
  256
370
   -1
100
AcDbLine
 10
-118.6974387893085
 20
101.6974387893084
 11
-101.6974387893085
 21
118.6974387893084
  0
LINE
  5
152
100
AcDbEntity
  8
ESC
  6
ByLayer
 62
  256
370
   -1
100
AcDbLine
 10
-101.6974387893085
 20
118.6974387893084
 11
-69.69743878930849
 21
86.69743878930845
  0
LINE
  5
153
100
AcDbEntity
  8
ESC
  6
ByLayer
 62
  256
370
   -1
100
AcDbLine
 10
-69.69743878930849
 20
86.69743878930845
 11
-86.69743878930849
 21
69.69743878930845
  0
MTEXT
  5
154
100
AcDbEntity
  8
Text
  6
ByLayer
 62
  256
370
   -1
100
AcDbMText
 10
-108.6974387893085
 20
108.6974387893084
 30
0
 40
2
 41
4.222221798217923
 71
    1
 72
    1
  1
ESC
  7
standard
210
0
220
0
230
1
 50
0
 73
    2
 44
1
  0
MTEXT
  5
155
100
AcDbEntity
  8
Text
  6
ByLayer
 62
  256
370
   -1
100
AcDbMText
 10
-108.6974387893085
 20
105.6974387893084
 30
0
 40
2
 41
15.22222427937132
 71
    1
 72
    1
  1
Mass = 25g
  7
standard
210
0
220
0
230
1
 50
0
 73
    2
 44
1
  0
LINE
  5
156
100
AcDbEntity
  8
ESC
  6
ByLayer
 62
  256
370
   -1
100
AcDbLine
 10
-86.69743878930849
 20
69.69743878930845
 11
-118.6974387893085
 21
101.6974387893084
  0
LINE
  5
157
100
AcDbEntity
  8
ESC
  6
ByLayer
 62
  256
370
   -1
100
AcDbLine
 10
-101.6974387893085
 20
-118.6974387893085
 11
-118.6974387893084
 21
-101.6974387893085
  0
LINE
  5
158
100
AcDbEntity
  8
ESC
  6
ByLayer
 62
  256
370
   -1
100
AcDbLine
 10
-118.6974387893084
 20
-101.6974387893085
 11
-86.69743878930845
 21
-69.69743878930849
  0
LINE
  5
159
100
AcDbEntity
  8
ESC
  6
ByLayer
 62
  256
370
   -1
100
AcDbLine
 10
-86.69743878930845
 20
-69.69743878930849
 11
-69.69743878930845
 21
-86.69743878930849
  0
LINE
  5
15A
100
AcDbEntity
  8
ESC
  6
ByLayer
 62
  256
370
   -1
100
AcDbLine
 10
-69.69743878930845
 20
-86.69743878930849
 11
-101.6974387893085
 21
-118.6974387893085
  0
LINE
  5
15B
100
AcDbEntity
  8
ESC
  6
ByLayer
 62
  256
370
   -1
100
AcDbLine
 10
118.6974387893085
 20
-101.6974387893085
 11
101.6974387893085
 21
-118.6974387893084
  0
LINE
  5
15C
100
AcDbEntity
  8
ESC
  6
ByLayer
 62
  256
370
   -1
100
AcDbLine
 10
101.6974387893085
 20
-118.6974387893084
 11
69.69743878930849
 21
-86.69743878930845
  0
LINE
  5
15D
100
AcDbEntity
  8
ESC
  6
ByLayer
 62
  256
370
   -1
100
AcDbLine
 10
69.69743878930849
 20
-86.69743878930845
 11
86.69743878930849
 21
-69.69743878930845
  0
LINE
  5
15E
100
AcDbEntity
  8
ESC
  6
ByLayer
 62
  256
370
   -1
100
AcDbLine
 10
86.69743878930849
 20
-69.69743878930845
 11
118.6974387893085
 21
-101.6974387893085
  0
LINE
  5
15F
100
AcDbEntity
  8
ESC
  6
ByLayer
 62
  256
370
   -1
100
AcDbLine
 10
101.6974387893085
 20
118.6974387893085
 11
118.6974387893084
 21
101.6974387893084
  0
LINE
  5
160
100
AcDbEntity
  8
ESC
  6
ByLayer
 62
  256
370
   -1
100
AcDbLine
 10
118.6974387893084
 20
101.6974387893084
 11
86.69743878930845
 21
69.69743878930849
  0
LINE
  5
161
100
AcDbEntity
  8
ESC
  6
ByLayer
 62
  256
370
   -1
100
AcDbLine
 10
86.69743878930845
 20
69.69743878930849
 11
69.69743878930845
 21
86.69743878930849
  0
LINE
  5
162
100
AcDbEntity
  8
ESC
  6
ByLayer
 62
  256
370
   -1
100
AcDbLine
 10
69.69743878930845
 20
86.69743878930849
 11
101.6974387893085
 21
118.6974387893085
  0
MTEXT
  5
163
100
AcDbEntity
  8
Text
  6
ByLayer
 62
  256
370
   -1
100
AcDbMText
 10
115
 20
125
 30
0
 40
2
 41
20.77777983492675
 71
    1
 72
    1
  1
Mass = 87.497g
  7
standard
210
0
220
0
230
1
 50
0
 73
    2
 44
1
  0
MTEXT
  5
164
100
AcDbEntity
  8
Text
  6
ByLayer
 62
  256
370
   -1
100
AcDbMText
 10
104.8333337573373
 20
129
 30
0
 40
2
 41
51.05555513155219
 71
    1
 72
    1
  1
Aluminum Square Tubing - 2mm Thick
  7
standard
210
0
220
0
230
1
 50
0
 73
    2
 44
1
  0
LINE
  5
165
100
AcDbEntity
  8
battery
  6
ByLayer
 62
  256
370
   -1
100
AcDbLine
 10
-15
 20
15
 11
15
 21
15
  0
LINE
  5
166
100
AcDbEntity
  8
battery
  6
ByLayer
 62
  256
370
   -1
100
AcDbLine
 10
15
 20
15
 11
15
 21
-15
  0
LINE
  5
167
100
AcDbEntity
  8
battery
  6
ByLayer
 62
  256
370
   -1
100
AcDbLine
 10
15
 20
-15
 11
-15
 21
-15
  0
LINE
  5
168
100
AcDbEntity
  8
battery
  6
ByLayer
 62
  256
370
   -1
100
AcDbLine
 10
-15
 20
-15
 11
-15
 21
15
  0
MTEXT
  5
169
100
AcDbEntity
  8
Text
  6
ByLayer
 62
  256
370
   -1
100
AcDbMText
 10
-12
 20
13
 30
0
 40
2
 41
33.88888991746369
 71
    1
 72
    1
  1
Power Distribution Board
  7
standard
210
0
220
0
230
1
 50
0
 73
    2
 44
1
  0
MTEXT
  5
16A
100
AcDbEntity
  8
Text
  6
ByLayer
 62
  256
370
   -1
100
AcDbMText
 10
-270
 20
160
 30
0
 40
2
 41
30.94444650159364
 71
    1
 72
    1
  1
Total Mass = 1311.028g
  7
standard
210
0
220
0
230
1
 50
0
 73
    2
 44
1
  0
MTEXT
  5
16B
100
AcDbEntity
  8
Text
  6
ByLayer
 62
  256
370
   -1
100
AcDbMText
 10
-270
 20
156
 30
0
 40
2
 41
36.05555555555616
 71
    1
 72
    1
  1
Lift capability = 5608.972g
  7
standard
210
0
220
0
230
1
 50
0
 73
    2
 44
1
  0
MTEXT
  5
16C
100
AcDbEntity
  8
Text
  6
ByLayer
 62
  256
370
   -1
100
AcDbMText
 10
-269.4444444444445
 20
152
 30
0
 40
2
 41
45.72222325079712
 71
    1
 72
    1
  1
With Air density = 1.2928 kg/m^3
  7
standard
210
0
220
0
230
1
 50
0
 73
    2
 44
1
  0
MTEXT
  5
16D
100
AcDbEntity
  8
Text
  6
ByLayer
 62
  256
370
   -1
100
AcDbMText
 10
-42
 20
20
 30
0
 40
2
 41
32.72222222222259
 71
    1
 72
    1
  1
BeagleBone Black Rev C
  7
standard
210
0
220
0
230
1
 50
0
 73
    2
 44
1
  0
MTEXT
  5
16E
100
AcDbEntity
  8
Text
  6
ByLayer
 62
  256
370
   -1
100
AcDbMText
 10
0
 20
-58
 30
0
 40
2
 41
21.05555555555602
 71
    1
 72
    1
  1
Aluminum Frame
  7
standard
210
0
220
0
230
1
 50
0
 73
    2
 44
1
  0
DIMENSION
  5
16F
100
AcDbEntity
  8
measure
  6
ByLayer
 62
  256
370
   -1
100
AcDbDimension
  2
*D10
 10
255
 20
145
 30
0
 11
51.68543696318806
 21
-51.68543696318806
 31
0
 70
   33
 71
    5
 72
    0
  3
Standard
 53
0
210
0
220
0
230
1
100
AcDbAlignedDimension
 13
-200
 23
-200
 33
0
 14
200
 24
200
 34
0
  0
DIMENSION
  5
170
100
AcDbEntity
  8
measure
  6
ByLayer
 62
  256
370
   -1
100
AcDbDimension
  2
*D11
 10
-105
 20
122
 30
0
 11
-116.8145630368119
 21
116.8145630368119
 31
0
 70
   33
 71
    5
 72
    0
  3
Standard
 53
0
210
0
220
0
230
1
100
AcDbAlignedDimension
 13
-117
 23
100
 33
0
 14
-100
 24
117
 34
0
  0
DIMENSION
  5
171
100
AcDbEntity
  8
measure
  6
ByLayer
 62
  256
370
   -1
100
AcDbDimension
  2
*D12
 10
-85.5
 20
135.5
 30
0
 11
-66.18543696318804
 21
122.8145630368119
 31
0
 70
   33
 71
    5
 72
    0
  3
Standard
 53
0
210
0
220
0
230
1
100
AcDbAlignedDimension
 13
-70
 23
87
 33
0
 14
-102
 24
119
 34
0
  0
MTEXT
  5
172
100
AcDbEntity
  8
misc_text
  6
ByLayer
 62
  256
370
   -1
100
AcDbMText
 10
-200
 20
300
 30
0
 40
1
 41
84.86111460001077
 71
    1
 72
    1
  3
Specifications:\P\PA2212 1000KV Brushless Motor:\PModel: A2212\PKV: 1000\PMAX Efficiency: 80%\PMAX Efficiency Current: 4-10A (>75%)\PCurrent Capacity: 12A / 60s\PNo Load Current: 10 V : 0.5 A-Apply to the ESC: 30A.\PApply to the Lipo: 2 - 3S.\PApply 
  3
to the NiCD / NiMH: 6 - 9S.\PMotor Dimension: 27.5 x 27mm\PShaft Diameter: 3.17mm\PWeight: 50g approx\P30A Brushless ESC:\POutput: Continuous 30A, burst 40A up to 10 Seconds.\PInput voltage: 2-4 cells Li-poly battery or 5-12 cells NiCd/NIMh battery\P
  3
BEC: 2A / 5V (Linear mode).\PMax speed: 210,000rpm for 2 poles BLM, 70,000rpm for 6 poles BLM, 35,000rpm for 12 poles BLM. (BLM: Brushless Motor)\PSize: 45 * 24 * 11mm / 1.8 * 0.9 * 0.4in\PWeight: 25g / 0.9oz\P1045 Propellers:\PDiameter of Shaft: 6.0
  3
mm\PAdjustable by hole adapter (3mm, 3.2mm, 4mm, 5mm, 6mm, 6.35mm, 7.95mm)\PThickness of center: 9.7mm\PWeight: 15 gram/ pair\PRecommended wheelbase: 550mm - 700mm\P\PPackage Includes: \P\P1x A2212 13T 1000KV Brushless Motor\P1x Motor sets\P1x 30A ES
  1
C\P1x 1045 Propeller 
  7
standard
210
0
220
0
230
1
 50
0
 73
    2
 44
1
  0
LINE
  5
173
100
AcDbEntity
  8
bbb
  6
ByLayer
 62
  256
370
   -1
100
AcDbLine
 10
-79
 20
20
 11
-60
 21
20
  0
LINE
  5
174
100
AcDbEntity
  8
bbb
  6
ByLayer
 62
  256
370
   -1
100
AcDbLine
 10
-60
 20
20
 11
-60
 21
1
  0
LINE
  5
175
100
AcDbEntity
  8
bbb
  6
ByLayer
 62
  256
370
   -1
100
AcDbLine
 10
-60
 20
1
 11
-79
 21
1
  0
LINE
  5
176
100
AcDbEntity
  8
bbb
  6
ByLayer
 62
  256
370
   -1
100
AcDbLine
 10
-79
 20
1
 11
-79
 21
20
  0
MTEXT
  5
177
100
AcDbEntity
  8
Text
  6
ByLayer
 62
  256
370
   -1
100
AcDbMText
 10
-77
 20
18
 30
0
 40
2
 41
4.444444444444445
 71
    1
 72
    1
  1
RTC
  7
standard
210
0
220
0
230
1
 50
0
 73
    2
 44
1
  0
CIRCLE
  5
178
100
AcDbEntity
  8
bolts_large
  6
ByLayer
 62
  256
370
   -1
100
AcDbCircle
 10
-70
 20
70
 40
2
  0
CIRCLE
  5
179
100
AcDbEntity
  8
bolts_large
  6
ByLayer
 62
  256
370
   -1
100
AcDbCircle
 10
70
 20
70
 40
2
  0
CIRCLE
  5
17A
100
AcDbEntity
  8
bolts_large
  6
ByLayer
 62
  256
370
   -1
100
AcDbCircle
 10
70
 20
-70
 40
2
  0
CIRCLE
  5
17B
100
AcDbEntity
  8
bolts_large
  6
ByLayer
 62
  256
370
   -1
100
AcDbCircle
 10
-70
 20
-70
 40
2
  0
LWPOLYLINE
  5
17C
100
AcDbEntity
  8
battery
  6
ByLayer
 62
  256
370
   -1
100
AcDbPolyline
 90
    4
 70
    1
 43
0
 10
67
 20
78
 10
-66
 20
78
 10
-66
 20
32
 10
67
 20
32
  0
LINE
  5
17D
100
AcDbEntity
  8
bbb
  6
ByLayer
 62
  256
370
   -1
100
AcDbLine
 10
-50
 20
-25
 11
40
 21
-25
  0
LINE
  5
17E
100
AcDbEntity
  8
bbb
  6
ByLayer
 62
  256
370
   -1
100
AcDbLine
 10
40
 20
-25
 11
40
 21
30
  0
LINE
  5
17F
100
AcDbEntity
  8
bbb
  6
ByLayer
 62
  256
370
   -1
100
AcDbLine
 10
40
 20
30
 11
-50
 21
30
  0
LINE
  5
180
100
AcDbEntity
  8
bbb
  6
ByLayer
 62
  256
370
   -1
100
AcDbLine
 10
-50
 20
30
 11
-50
 21
-25
  0
LWPOLYLINE
  5
181
100
AcDbEntity
  8
bbb
  6
ByLayer
 62
  256
370
   -1
100
AcDbPolyline
 90
    4
 70
    1
 43
0
 10
-62
 20
-26
 10
42
 20
-26
 10
42
 20
-79
 10
-62
 20
-79
  0
MTEXT
  5
182
100
AcDbEntity
  8
Text
  6
ByLayer
 62
  256
370
   -1
100
AcDbMText
 10
-59
 20
-29
 30
0
 40
2
 41
24.38888888888926
 71
    1
 72
    1
  1
Voltage Regulator
  7
standard
210
0
220
0
230
1
 50
0
 73
    2
 44
1
  0
MTEXT
  5
183
100
AcDbEntity
  8
Text
  6
ByLayer
 62
  256
370
   -1
100
AcDbMText
 10
-77
 20
77
 30
0
 40
2
 41
2
 71
    1
 72
    1
  1
L1
  7
standard
210
0
220
0
230
1
 50
0
 73
    2
 44
1
  0
LINE
  5
184
100
AcDbEntity
  8
center
  6
ByLayer
 62
  256
370
   -1
100
AcDbLine
 10
-5000
 20
80
 11
5000
 21
80
  0
LINE
  5
185
100
AcDbEntity
  8
center
  6
ByLayer
 62
  256
370
   -1
100
AcDbLine
 10
-5000
 20
-80
 11
5000
 21
-80
  0
LWPOLYLINE
  5
186
100
AcDbEntity
  8
frame
  6
ByLayer
 62
  256
370
   -1
100
AcDbPolyline
 90
    4
 70
    1
 43
0
 10
300
 20
80
 10
460
 20
80
 10
460
 20
-80
 10
300
 20
-80
  0
MTEXT
  5
187
100
AcDbEntity
  8
Text
  6
ByLayer
 62
  256
370
   -1
100
AcDbMText
 10
303
 20
77
 30
0
 40
2
 41
2.444444444444444
 71
    1
 72
    1
  1
L2
  7
standard
210
0
220
0
230
1
 50
0
 73
    2
 44
1
  0
CIRCLE
  5
188
100
AcDbEntity
  8
bolts_large
  6
ByLayer
 62
  256
370
   -1
100
AcDbCircle
 10
310
 20
70
 40
2
  0
CIRCLE
  5
189
100
AcDbEntity
  8
bolts_large
  6
ByLayer
 62
  256
370
   -1
100
AcDbCircle
 10
450
 20
70
 40
2
  0
CIRCLE
  5
18A
100
AcDbEntity
  8
bolts_large
  6
ByLayer
 62
  256
370
   -1
100
AcDbCircle
 10
450
 20
-70
 40
2
  0
CIRCLE
  5
18B
100
AcDbEntity
  8
bolts_large
  6
ByLayer
 62
  256
370
   -1
100
AcDbCircle
 10
310
 20
-70
 40
2
  0
LWPOLYLINE
  5
18C
100
AcDbEntity
  8
frame
  6
ByLayer
 62
  256
370
   -1
100
AcDbPolyline
 90
    4
 70
    1
 43
0
 10
350
 20
-10
 10
410
 20
-10
 10
410
 20
-20
 10
350
 20
-20
  0
MTEXT
  5
18D
100
AcDbEntity
  8
Text
  6
ByLayer
 62
  256
370
   -1
100
AcDbMText
 10
365
 20
-28
 30
0
 40
2
 41
17.05555658413029
 71
    1
 72
    1
  1
OLED Display
  7
standard
210
0
220
0
230
1
 50
0
 73
    2
 44
1
  0
LWPOLYLINE
  5
18E
100
AcDbEntity
  8
bbb
  6
ByLayer
 62
  256
370
   -1
100
AcDbPolyline
 90
    4
 70
    1
 43
0
 10
363
 20
-23
 10
398
 20
-23
 10
398
 20
-43
 10
363
 20
-43
  0
CIRCLE
  5
18F
100
AcDbEntity
  8
bolts
  6
ByLayer
 62
  256
370
   -1
100
AcDbCircle
 10
365
 20
-25
 40
1
  0
CIRCLE
  5
190
100
AcDbEntity
  8
bolts
  6
ByLayer
 62
  256
370
   -1
100
AcDbCircle
 10
396
 20
-25
 40
1
  0
CIRCLE
  5
191
100
AcDbEntity
  8
bolts
  6
ByLayer
 62
  256
370
   -1
100
AcDbCircle
 10
396
 20
-41
 40
1
  0
CIRCLE
  5
192
100
AcDbEntity
  8
bolts
  6
ByLayer
 62
  256
370
   -1
100
AcDbCircle
 10
365
 20
-41
 40
1
  0
LWPOLYLINE
  5
193
100
AcDbEntity
  8
bbb
  6
ByLayer
 62
  256
370
   -1
100
AcDbPolyline
 90
    4
 70
    1
 43
0
 10
370
 20
8
 10
390
 20
8
 10
390
 20
-8
 10
370
 20
-8
  0
MTEXT
  5
194
100
AcDbEntity
  8
Text
  6
ByLayer
 62
  256
370
   -1
100
AcDbMText
 10
371
 20
7
 30
0
 40
2
 41
60.61111209802967
 71
    1
 72
    1
  1
MEMS Sensor (3-axis gyro & accelerometer)
  7
standard
210
0
220
0
230
1
 50
0
 73
    2
 44
1
  0
MTEXT
  5
195
100
AcDbEntity
  8
Text
  6
ByLayer
 62
  256
370
   -1
100
AcDbMText
 10
351
 20
-11
 30
0
 40
2
 41
29.33333436190794
 71
    1
 72
    1
  1
1x6cm wire slot to L1
  7
standard
210
0
220
0
230
1
 50
0
 73
    2
 44
1
  0
LWPOLYLINE
  5
196
100
AcDbEntity
  8
bbb
  6
ByLayer
 62
  256
370
   -1
100
AcDbPolyline
 90
    4
 70
    1
 43
0
 10
320
 20
-50
 10
332
 20
-50
 10
332
 20
-66
 10
320
 20
-66
  0
MTEXT
  5
197
100
AcDbEntity
  8
Text
  6
ByLayer
 62
  256
370
   -1
100
AcDbMText
 10
321
 20
-51
 30
0
 40
2
 41
6.888888888889012
 71
    1
 72
    1
  1
DHT11
  7
standard
210
0
220
0
230
1
 50
0
 73
    2
 44
1
  0
LWPOLYLINE
  5
198
100
AcDbEntity
  8
bbb
  6
ByLayer
 62
  256
370
   -1
100
AcDbPolyline
 90
    4
 70
    1
 43
0
 10
340
 20
-50
 10
352
 20
-50
 10
352
 20
-66
 10
340
 20
-66
  0
MTEXT
  5
199
100
AcDbEntity
  8
Text
  6
ByLayer
 62
  256
370
   -1
100
AcDbMText
 10
341
 20
-51
 30
0
 40
2
 41
6.888888888889012
 71
    1
 72
    1
  1
DHT11
  7
standard
210
0
220
0
230
1
 50
0
 73
    2
 44
1
  0
LINE
  5
19A
100
AcDbEntity
  8
center
  6
ByLayer
 62
  256
370
   -1
100
AcDbLine
 10
379.9999999999997
 20
-4920
 11
380.0000000000003
 21
5080
  0
LWPOLYLINE
  5
19B
100
AcDbEntity
  8
bbb
  6
ByLayer
 62
  256
370
   -1
100
AcDbPolyline
 90
    4
 70
    1
 43
0
 10
360
 20
-50
 10
421
 20
-50
 10
421
 20
-70
 10
360
 20
-70
  0
MTEXT
  5
19C
100
AcDbEntity
  8
Text
  6
ByLayer
 62
  256
370
   -1
100
AcDbMText
 10
362
 20
-52
 30
0
 40
2
 41
15.2777773537736
 71
    1
 72
    1
  1
GPS Module
  7
standard
210
0
220
0
230
1
 50
0
 73
    2
 44
1
  0
LINE
  5
19D
100
AcDbEntity
  8
rotor_shafts
  6
ByLayer
 62
  256
370
   -1
100
AcDbLine
 10
-191
 20
209
 11
-1
 21
20
  0
LINE
  5
19E
100
AcDbEntity
  8
rotor_shafts
  6
ByLayer
 62
  256
370
   -1
100
AcDbLine
 10
-1
 20
20
 11
-1
 21
1
  0
LINE
  5
19F
100
AcDbEntity
  8
rotor_shafts
  6
ByLayer
 62
  256
370
   -1
100
AcDbLine
 10
-1
 20
1
 11
-20
 21
1
  0
LINE
  5
1A0
100
AcDbEntity
  8
rotor_shafts
  6
ByLayer
 62
  256
370
   -1
100
AcDbLine
 10
-20
 20
1
 11
-209
 21
191
  0
LINE
  5
1A1
100
AcDbEntity
  8
rotor_shafts
  6
ByLayer
 62
  256
370
   -1
100
AcDbLine
 10
-209
 20
191
 11
-214
 21
196
  0
LINE
  5
1A2
100
AcDbEntity
  8
rotor_shafts
  6
ByLayer
 62
  256
370
   -1
100
AcDbLine
 10
-214
 20
206
 11
-214
 21
196
  0
LINE
  5
1A3
100
AcDbEntity
  8
rotor_shafts
  6
ByLayer
 62
  256
370
   -1
100
AcDbLine
 10
-191
 20
209
 11
-196
 21
214
  0
LINE
  5
1A4
100
AcDbEntity
  8
rotor_shafts
  6
ByLayer
 62
  256
370
   -1
100
AcDbLine
 10
-206
 20
214
 11
-214
 21
206
  0
LINE
  5
1A5
100
AcDbEntity
  8
rotor_shafts
  6
ByLayer
 62
  256
370
   -1
100
AcDbLine
 10
-196
 20
214
 11
-206
 21
214
  0
ARC
  5
1A6
100
AcDbEntity
  8
rotor_shafts
  6
ByLayer
 62
  256
370
   -1
100
AcDbCircle
 10
-200
 20
200
 40
14.42220510185596
100
AcDbArc
 50
254.3596664239757
 51
15.64033357602534
  0
LINE
  5
1A7
100
AcDbEntity
  8
rotor_shafts
  6
ByLayer
 62
  256
370
   -1
100
AcDbLine
 10
-209
 20
-191
 11
-20
 21
-0.9999999999999988
  0
LINE
  5
1A8
100
AcDbEntity
  8
rotor_shafts
  6
ByLayer
 62
  256
370
   -1
100
AcDbLine
 10
-20
 20
-0.9999999999999988
 11
-1
 21
-0.9999999999999999
  0
LINE
  5
1A9
100
AcDbEntity
  8
rotor_shafts
  6
ByLayer
 62
  256
370
   -1
100
AcDbLine
 10
-1
 20
-0.9999999999999999
 11
-1.000000000000001
 21
-20
  0
LINE
  5
1AA
100
AcDbEntity
  8
rotor_shafts
  6
ByLayer
 62
  256
370
   -1
100
AcDbLine
 10
-1.000000000000001
 20
-20
 11
-191
 21
-209
  0
LINE
  5
1AB
100
AcDbEntity
  8
rotor_shafts
  6
ByLayer
 62
  256
370
   -1
100
AcDbLine
 10
-191
 20
-209
 11
-196
 21
-214
  0
LINE
  5
1AC
100
AcDbEntity
  8
rotor_shafts
  6
ByLayer
 62
  256
370
   -1
100
AcDbLine
 10
-206
 20
-214
 11
-196
 21
-214
  0
LINE
  5
1AD
100
AcDbEntity
  8
rotor_shafts
  6
ByLayer
 62
  256
370
   -1
100
AcDbLine
 10
-209
 20
-191
 11
-214
 21
-196
  0
LINE
  5
1AE
100
AcDbEntity
  8
rotor_shafts
  6
ByLayer
 62
  256
370
   -1
100
AcDbLine
 10
-214
 20
-206
 11
-206
 21
-214
  0
LINE
  5
1AF
100
AcDbEntity
  8
rotor_shafts
  6
ByLayer
 62
  256
370
   -1
100
AcDbLine
 10
-214
 20
-196
 11
-214
 21
-206
  0
ARC
  5
1B0
100
AcDbEntity
  8
rotor_shafts
  6
ByLayer
 62
  256
370
   -1
100
AcDbCircle
 10
-200
 20
-200
 40
14.42220510185596
100
AcDbArc
 50
344.3596664239757
 51
105.6403335760253
  0
LINE
  5
1B1
100
AcDbEntity
  8
rotor_shafts
  6
ByLayer
 62
  256
370
   -1
100
AcDbLine
 10
191
 20
-209
 11
0.9999999999999976
 21
-20
  0
LINE
  5
1B2
100
AcDbEntity
  8
rotor_shafts
  6
ByLayer
 62
  256
370
   -1
100
AcDbLine
 10
0.9999999999999976
 20
-20
 11
0.9999999999999998
 21
-1
  0
LINE
  5
1B3
100
AcDbEntity
  8
rotor_shafts
  6
ByLayer
 62
  256
370
   -1
100
AcDbLine
 10
0.9999999999999998
 20
-1
 11
20
 21
-1.000000000000003
  0
LINE
  5
1B4
100
AcDbEntity
  8
rotor_shafts
  6
ByLayer
 62
  256
370
   -1
100
AcDbLine
 10
20
 20
-1.000000000000003
 11
209
 21
-191
  0
LINE
  5
1B5
100
AcDbEntity
  8
rotor_shafts
  6
ByLayer
 62
  256
370
   -1
100
AcDbLine
 10
209
 20
-191
 11
214
 21
-196
  0
LINE
  5
1B6
100
AcDbEntity
  8
rotor_shafts
  6
ByLayer
 62
  256
370
   -1
100
AcDbLine
 10
214
 20
-206
 11
214
 21
-196
  0
LINE
  5
1B7
100
AcDbEntity
  8
rotor_shafts
  6
ByLayer
 62
  256
370
   -1
100
AcDbLine
 10
191
 20
-209
 11
196
 21
-214
  0
LINE
  5
1B8
100
AcDbEntity
  8
rotor_shafts
  6
ByLayer
 62
  256
370
   -1
100
AcDbLine
 10
206
 20
-214
 11
214
 21
-206
  0
LINE
  5
1B9
100
AcDbEntity
  8
rotor_shafts
  6
ByLayer
 62
  256
370
   -1
100
AcDbLine
 10
196
 20
-214
 11
206
 21
-214
  0
ARC
  5
1BA
100
AcDbEntity
  8
rotor_shafts
  6
ByLayer
 62
  256
370
   -1
100
AcDbCircle
 10
200
 20
-200
 40
14.42220510185596
100
AcDbArc
 50
74.35966642397568
 51
195.6403335760253
  0
LINE
  5
1BB
100
AcDbEntity
  8
rotor_shafts
  6
ByLayer
 62
  256
370
   -1
100
AcDbLine
 10
209
 20
191
 11
20
 21
0.9999999999999963
  0
LINE
  5
1BC
100
AcDbEntity
  8
rotor_shafts
  6
ByLayer
 62
  256
370
   -1
100
AcDbLine
 10
20
 20
0.9999999999999963
 11
1
 21
0.9999999999999997
  0
LINE
  5
1BD
100
AcDbEntity
  8
rotor_shafts
  6
ByLayer
 62
  256
370
   -1
100
AcDbLine
 10
1
 20
0.9999999999999997
 11
1.000000000000004
 21
20
  0
LINE
  5
1BE
100
AcDbEntity
  8
rotor_shafts
  6
ByLayer
 62
  256
370
   -1
100
AcDbLine
 10
1.000000000000004
 20
20
 11
191
 21
209
  0
LINE
  5
1BF
100
AcDbEntity
  8
rotor_shafts
  6
ByLayer
 62
  256
370
   -1
100
AcDbLine
 10
191
 20
209
 11
196
 21
214
  0
LINE
  5
1C0
100
AcDbEntity
  8
rotor_shafts
  6
ByLayer
 62
  256
370
   -1
100
AcDbLine
 10
206
 20
214
 11
196
 21
214
  0
LINE
  5
1C1
100
AcDbEntity
  8
rotor_shafts
  6
ByLayer
 62
  256
370
   -1
100
AcDbLine
 10
209
 20
191
 11
214
 21
196
  0
LINE
  5
1C2
100
AcDbEntity
  8
rotor_shafts
  6
ByLayer
 62
  256
370
   -1
100
AcDbLine
 10
214
 20
206
 11
206
 21
214
  0
LINE
  5
1C3
100
AcDbEntity
  8
rotor_shafts
  6
ByLayer
 62
  256
370
   -1
100
AcDbLine
 10
214
 20
196
 11
214
 21
206
  0
ARC
  5
1C4
100
AcDbEntity
  8
rotor_shafts
  6
ByLayer
 62
  256
370
   -1
100
AcDbCircle
 10
200
 20
200
 40
14.42220510185596
100
AcDbArc
 50
164.3596664239757
 51
285.6403335760253
  0
DIMENSION
  5
1C5
100
AcDbEntity
  8
measure
  6
ByLayer
 62
  256
370
   -1
100
AcDbDimension
  2
*D13
 10
-228.5
 20
246.5
 30
0
 11
-240.8145630368119
 21
240.8145630368119
 31
0
 70
   33
 71
    5
  3
Standard
 53
0
210
0
220
0
230
1
100
AcDbAlignedDimension
 13
-204
 23
186
 33
0
 14
-186
 24
204
 34
0
  0
LEADER
  5
1C6
100
AcDbEntity
  8
measure
  6
ByLayer
 62
  256
370
   -1
100
AcDbLeader
  3
Standard
 71
    1
 72
    0
 73
    3
 74
    0
 75
    0
 40
1
 41
10
 76
2
 76
2
 10
-214
 20
-196
 30
0
 10
-214
 20
-155
 30
0
  0
DIMENSION
  5
1C7
100
AcDbEntity
  8
measure
  6
ByLayer
 62
  256
370
   -1
100
AcDbDimension
  2
*D15
 10
-214
 20
-155
 30
0
 11
0
 21
0
 31
0
 70
   34
 71
    5
  3
Standard
 53
0
210
0
220
0
230
1
100
AcDb2LineAngularDimension
 13
-209
 23
-191
 33
0
 14
-20
 24
-0.9999999999999988
 34
0
 15
-214
 25
-196
 35
0
 16
-201
 26
-160
 36
0
  0
INSERT
  5
1C8
100
AcDbEntity
  8
measure
  6
ByLayer
 62
  256
370
   -1
100
AcDbBlockReference
  2
Shaft
 10
490
 20
440
 30
0
 41
1
 42
1
 43
0
 50
0
 70
    1
 71
    1
 44
0
 45
0
  0
INSERT
  5
1C9
100
AcDbEntity
  8
measure
  6
ByLayer
 62
  256
370
   -1
100
AcDbBlockReference
  2
frame
 10
720
 20
280
 30
0
 41
1
 42
1
 43
0
 50
0
 70
    1
 71
    1
 44
0
 45
0
  0
MTEXT
  5
1CA
100
AcDbEntity
  8
Text
  6
ByLayer
 62
  256
370
   -1
100
AcDbMText
 10
-59
 20
-32
 30
0
 40
1
 41
67.30555761270541
 71
    1
 72
    1
  3
Analog Control: \Pusing a mini screwdriver to increase or decrease output voltage by adjusting the screw, \Pclockwise to step up voltage and counterclockwise to step down voltage.\PHas very stable output, input range is DC 4~40V and output range is D
  3
C 1.25~37V, \Pplease make sure the input voltage should be higher than output voltage at least 1V. \PCan be used for many electronic projects.\PPress the button next to voltmeter to test input voltage or output voltage. \PGreen LED lights on when tes
  3
ting output voltage; red LED lights on when testing input voltage.\P\PWith input and output voltage measurement error calibration function; \PWiring terminals require no soldering iron and create convenient usage.\PPress the button for 1 to 4 seconds
  1
, \Pvoltmeter would be shut off when releasing your hands; the voltmeter is very accurate.
  7

210
0
220
0
230
1
 50
0
 73
    2
 44
1
  0
ENDSEC
  0
SECTION
  2
OBJECTS
  0
DICTIONARY
  5
C
330
0
100
AcDbDictionary
281
    1
  3
ACAD_GROUP
350
D
  0
DICTIONARY
  5
D
330
C
100
AcDbDictionary
281
    1
  0
ENDSEC
  0
EOF
