999
dxfrw 0.5.10
0
SECTION
2
HEADER
9
$ACADVER
1
AC1021
9
$HANDSEED
5
20000
9
$DWGCODEPAGE
3
ANSI_1252
9
$INSBASE
10
0
20
0
30
0
9
$EXTMIN
10
-5000
20
-4920
30
0
9
$EXTMAX
10
5000
20
5080
30
0
9
$LIMMIN
10
0
20
0
9
$LIMMAX
10
420
20
297
9
$ORTHOMODE
70
0
9
$LTSCALE
40
1
9
$TEXTSTYLE
7
STANDARD
9
$CLAYER
8
Text
9
$DIMASZ
40
2.5
9
$DIMLFAC
40
1
9
$DIMSCALE
40
2.5
9
$DIMEXO
40
0.625
9
$DIMEXE
40
1.25
9
$DIMTXT
40
2.5
9
$DIMTSZ
40
0
9
$DIMAUNIT
70
0
9
$DIMADEC
70
2
9
$DIMLUNIT
70
2
9
$DIMSTYLE
2
STANDARD
9
$DIMGAP
40
0.625
9
$DIMTIH
70
0
9
$LUNITS
70
2
9
$LUPREC
70
2
9
$AUNITS
70
0
9
$AUPREC
70
2
9
$SPLINESEGS
70
8
9
$GRIDMODE
70
1
9
$SNAPSTYLE
70
0
9
$GRIDUNIT
10
1
20
1
9
$PINSBASE
10
-233.737067201
20
-32.1313184353
30
0
9
$PLIMMIN
10
0
20
0
9
$PLIMMAX
10
279.4
20
215.9
9
$INSUNITS
70
4
9
$PSVPSCALE
40
0.5
0
ENDSEC
0
SECTION
2
CLASSES
0
ENDSEC
0
SECTION
2
TABLES
0
TABLE
2
VPORT
5
8
330
0
100
AcDbSymbolTable
70
1
0
VPORT
5
31
330
2
100
AcDbSymbolTableRecord
100
AcDbViewportTableRecord
2
*ACTIVE
70
0
10
0
20
0
11
1
21
1
12
260.408215434
22
94.6556518138
13
0
23
0
14
10
24
10
15
1
25
1
16
0
26
0
36
1
17
0
27
0
37
0
40
607.478938752
41
2.08864265928
42
50
43
0
44
0
50
0
51
0
71
0
72
100
73
1
74
3
75
0
76
1
77
0
78
0
281
0
65
1
110
0
120
0
130
0
111
1
121
0
131
0
112
0
122
1
132
0
79
0
146
0
348
10020
60
3
61
5
292
1
282
1
141
0
142
0
63
250
421
3358443
0
ENDTAB
0
TABLE
2
LTYPE
5
5
330
0
100
AcDbSymbolTable
70
4
0
LTYPE
5
14
330
5
100
AcDbSymbolTableRecord
100
AcDbLinetypeTableRecord
2
ByBlock
70
0
3

72
65
73
0
40
0
0
LTYPE
5
15
330
5
100
AcDbSymbolTableRecord
100
AcDbLinetypeTableRecord
2
ByLayer
70
0
3

72
65
73
0
40
0
0
LTYPE
5
16
330
5
100
AcDbSymbolTableRecord
100
AcDbLinetypeTableRecord
2
Continuous
70
0
3
Solid line
72
65
73
0
40
0
0
LTYPE
5
32
330
5
100
AcDbSymbolTableRecord
100
AcDbLinetypeTableRecord
2
DOT
70
0
3
Dot . . . . . . . . . . . . . . . . . . . . . .
72
65
73
2
40
6.35
49
0
74
0
49
-6.35
74
0
0
LTYPE
5
33
330
5
100
AcDbSymbolTableRecord
100
AcDbLinetypeTableRecord
2
DOT2
70
0
3
Dot (.5x) .....................................
72
65
73
2
40
3.175
49
0
74
0
49
-3.175
74
0
0
LTYPE
5
34
330
5
100
AcDbSymbolTableRecord
100
AcDbLinetypeTableRecord
2
DOTX2
70
0
3
Dot (2x) .  .  .  .  .  .  .  .  .  .  .  .  .
72
65
73
2
40
12.7
49
0
74
0
49
-12.7
74
0
0
LTYPE
5
35
330
5
100
AcDbSymbolTableRecord
100
AcDbLinetypeTableRecord
2
DASHED
70
0
3
Dot . . . . . . . . . . . . . . . . . . . . . .
72
65
73
2
40
19.05
49
12.7
74
0
49
-6.35
74
0
0
LTYPE
5
36
330
5
100
AcDbSymbolTableRecord
100
AcDbLinetypeTableRecord
2
DASHED2
70
0
3
Dashed (.5x) _ _ _ _ _ _ _ _ _ _ _ _ _ _ _ _ _
72
65
73
2
40
9.525
49
6.35
74
0
49
-3.175
74
0
0
LTYPE
5
37
330
5
100
AcDbSymbolTableRecord
100
AcDbLinetypeTableRecord
2
DASHEDX2
70
0
3
Dashed (2x) ____  ____  ____  ____  ____  ___
72
65
73
2
40
38.1
49
25.4
74
0
49
-12.7
74
0
0
LTYPE
5
38
330
5
100
AcDbSymbolTableRecord
100
AcDbLinetypeTableRecord
2
DASHDOT
70
0
3
Dash dot __ . __ . __ . __ . __ . __ . __ . __
72
65
73
4
40
25.4
49
12.7
74
0
49
-6.35
74
0
49
0
74
0
49
-6.35
74
0
0
LTYPE
5
39
330
5
100
AcDbSymbolTableRecord
100
AcDbLinetypeTableRecord
2
DASHDOT2
70
0
3
Dash dot (.5x) _._._._._._._._._._._._._._._.
72
65
73
4
40
12.7
49
6.35
74
0
49
-3.175
74
0
49
0
74
0
49
-3.175
74
0
0
LTYPE
5
3A
330
5
100
AcDbSymbolTableRecord
100
AcDbLinetypeTableRecord
2
DASHDOTX2
70
0
3
Dash dot (2x) ____  .  ____  .  ____  .  ___
72
65
73
4
40
50.8
49
25.4
74
0
49
-12.7
74
0
49
0
74
0
49
-12.7
74
0
0
LTYPE
5
3B
330
5
100
AcDbSymbolTableRecord
100
AcDbLinetypeTableRecord
2
DIVIDE
70
0
3
Divide ____ . . ____ . . ____ . . ____ . . ____
72
65
73
6
40
31.75
49
12.7
74
0
49
-6.35
74
0
49
0
74
0
49
-6.35
74
0
49
0
74
0
49
-6.35
74
0
0
LTYPE
5
3C
330
5
100
AcDbSymbolTableRecord
100
AcDbLinetypeTableRecord
2
DIVIDE2
70
0
3
Divide (.5x) __..__..__..__..__..__..__..__.._
72
65
73
6
40
15.875
49
6.35
74
0
49
-3.175
74
0
49
0
74
0
49
-3.175
74
0
49
0
74
0
49
-3.175
74
0
0
LTYPE
5
3D
330
5
100
AcDbSymbolTableRecord
100
AcDbLinetypeTableRecord
2
DIVIDEX2
70
0
3
Divide (2x) ________  .  .  ________  .  .  _
72
65
73
6
40
63.5
49
25.4
74
0
49
-12.7
74
0
49
0
74
0
49
-12.7
74
0
49
0
74
0
49
-12.7
74
0
0
LTYPE
5
3E
330
5
100
AcDbSymbolTableRecord
100
AcDbLinetypeTableRecord
2
BORDER
70
0
3
Border __ __ . __ __ . __ __ . __ __ . __ __ .
72
65
73
6
40
44.45
49
12.7
74
0
49
-6.35
74
0
49
12.7
74
0
49
-6.35
74
0
49
0
74
0
49
-6.35
74
0
0
LTYPE
5
3F
330
5
100
AcDbSymbolTableRecord
100
AcDbLinetypeTableRecord
2
BORDER2
70
0
3
Border (.5x) __.__.__.__.__.__.__.__.__.__.__.
72
65
73
6
40
22.225
49
6.35
74
0
49
-3.175
74
0
49
6.35
74
0
49
-3.175
74
0
49
0
74
0
49
-3.175
74
0
0
LTYPE
5
40
330
5
100
AcDbSymbolTableRecord
100
AcDbLinetypeTableRecord
2
BORDERX2
70
0
3
Border (2x) ____  ____  .  ____  ____  .  ___
72
65
73
6
40
88.9
49
25.4
74
0
49
-12.7
74
0
49
25.4
74
0
49
-12.7
74
0
49
0
74
0
49
-12.7
74
0
0
LTYPE
5
41
330
5
100
AcDbSymbolTableRecord
100
AcDbLinetypeTableRecord
2
CENTER
70
0
3
Center ____ _ ____ _ ____ _ ____ _ ____ _ ____
72
65
73
4
40
50.8
49
31.75
74
0
49
-6.35
74
0
49
6.35
74
0
49
-6.35
74
0
0
LTYPE
5
42
330
5
100
AcDbSymbolTableRecord
100
AcDbLinetypeTableRecord
2
CENTER2
70
0
3
Center (.5x) ___ _ ___ _ ___ _ ___ _ ___ _ ___
72
65
73
4
40
28.575
49
19.05
74
0
49
-3.175
74
0
49
3.175
74
0
49
-3.175
74
0
0
LTYPE
5
43
330
5
100
AcDbSymbolTableRecord
100
AcDbLinetypeTableRecord
2
CENTERX2
70
0
3
Center (2x) ________  __  ________  __  _____
72
65
73
4
40
101.6
49
63.5
74
0
49
-12.7
74
0
49
12.7
74
0
49
-12.7
74
0
0
ENDTAB
0
TABLE
2
LAYER
5
2
330
0
100
AcDbSymbolTable
70
1
0
LAYER
5
10
330
2
100
AcDbSymbolTableRecord
100
AcDbLayerTableRecord
2
0
70
0
62
7
6
CONTINUOUS
370
25
390
F
0
LAYER
5
44
330
2
100
AcDbSymbolTableRecord
100
AcDbLayerTableRecord
2
ESC
70
0
62
6
6
CONTINUOUS
370
35
390
F
0
LAYER
5
45
330
2
100
AcDbSymbolTableRecord
100
AcDbLayerTableRecord
2
Text
70
0
62
5
6
CONTINUOUS
370
0
390
F
0
LAYER
5
46
330
2
100
AcDbSymbolTableRecord
100
AcDbLayerTableRecord
2
battery
70
0
62
4
6
CONTINUOUS
370
100
390
F
0
LAYER
5
47
330
2
100
AcDbSymbolTableRecord
100
AcDbLayerTableRecord
2
bbb
70
0
62
1
6
DASHED2
370
100
390
F
0
LAYER
5
48
330
2
100
AcDbSymbolTableRecord
100
AcDbLayerTableRecord
2
bolts
70
0
62
253
420
10526884
6
CONTINUOUS
370
13
390
F
0
LAYER
5
49
330
2
100
AcDbSymbolTableRecord
100
AcDbLayerTableRecord
2
bolts_large
70
0
62
8
6
CONTINUOUS
370
25
390
F
0
LAYER
5
4A
330
2
100
AcDbSymbolTableRecord
100
AcDbLayerTableRecord
2
center
70
0
62
1
6
BORDER2
370
18
390
F
0
LAYER
5
4B
330
2
100
AcDbSymbolTableRecord
100
AcDbLayerTableRecord
2
frame
70
0
62
7
6
CONTINUOUS
370
70
390
F
0
LAYER
5
4C
330
2
100
AcDbSymbolTableRecord
100
AcDbLayerTableRecord
2
measure
70
0
62
1
6
CONTINUOUS
370
0
390
F
0
LAYER
5
4D
330
2
100
AcDbSymbolTableRecord
100
AcDbLayerTableRecord
2
misc_text
70
0
62
7
6
CONTINUOUS
370
0
390
F
0
LAYER
5
4E
330
2
100
AcDbSymbolTableRecord
100
AcDbLayerTableRecord
2
rotor_blades
70
0
62
5
6
DASHED2
370
25
390
F
0
LAYER
5
4F
330
2
100
AcDbSymbolTableRecord
100
AcDbLayerTableRecord
2
rotor_pads
70
0
62
7
6
CONTINUOUS
370
50
390
F
0
LAYER
5
50
330
2
100
AcDbSymbolTableRecord
100
AcDbLayerTableRecord
2
rotor_shafts
70
0
62
7
6
CONTINUOUS
370
50
390
F
0
LAYER
5
51
330
2
100
AcDbSymbolTableRecord
100
AcDbLayerTableRecord
2
rotors
70
0
62
1
6
CONTINUOUS
370
25
390
F
0
LAYER
5
52
330
2
100
AcDbSymbolTableRecord
100
AcDbLayerTableRecord
2
rotors_duct
70
0
62
1
6
CONTINUOUS
370
25
390
F
0
ENDTAB
0
TABLE
2
STYLE
5
3
330
0
100
AcDbSymbolTable
70
3
0
STYLE
5
53
330
2
100
AcDbSymbolTableRecord
100
AcDbTextStyleTableRecord
2
standard
70
0
40
0
41
1
50
0
71
0
42
1
3
standard
4

0
ENDTAB
0
TABLE
2
VIEW
5
6
330
0
100
AcDbSymbolTable
70
0
0
ENDTAB
0
TABLE
2
UCS
5
7
330
0
100
AcDbSymbolTable
70
0
0
ENDTAB
0
TABLE
2
APPID
5
9
330
0
100
AcDbSymbolTable
70
1
0
APPID
5
12
330
9
100
AcDbSymbolTableRecord
100
AcDbRegAppTableRecord
2
ACAD
70
0
0
ENDTAB
0
TABLE
2
DIMSTYLE
5
A
330
0
100
AcDbSymbolTable
70
1
100
AcDbDimStyleTable
71
1
0
DIMSTYLE
105
54
330
A
100
AcDbSymbolTableRecord
100
AcDbDimStyleTableRecord
2
Standard
70
0
40
1
41
2.5
42
0.625
43
0.38
44
1.25
45
0
46
0
47
0
48
0
140
2.5
141
0.09
142
0
143
25.4
144
1
145
0
146
1
147
0.625
148
0
71
0
72
0
73
0
74
1
75
0
76
0
77
0
78
0
79
0
170
0
171
2
172
0
173
0
174
0
175
0
176
0
177
0
178
0
179
0
271
4
272
4
273
2
274
2
275
0
276
0
277
2
278
46
279
0
280
0
281
0
282
0
283
1
284
0
285
0
286
0
288
0
289
3
340
Standard
341

371
-2
372
-2
0
ENDTAB
0
TABLE
2
BLOCK_RECORD
5
1
330
0
100
AcDbSymbolTable
70
2
0
BLOCK_RECORD
5
1F
330
1
100
AcDbSymbolTableRecord
100
AcDbBlockTableRecord
2
*Model_Space
70
0
280
1
281
0
0
BLOCK_RECORD
5
1E
330
1
100
AcDbSymbolTableRecord
100
AcDbBlockTableRecord
2
*Paper_Space
70
0
280
1
281
0
0
BLOCK_RECORD
5
55
330
1
100
AcDbSymbolTableRecord
100
AcDbBlockTableRecord
2
*D9
70
0
280
1
281
0
0
BLOCK_RECORD
5
58
330
1
100
AcDbSymbolTableRecord
100
AcDbBlockTableRecord
2
*D15
70
0
280
1
281
0
0
BLOCK_RECORD
5
5B
330
1
100
AcDbSymbolTableRecord
100
AcDbBlockTableRecord
2
*D1
70
0
280
1
281
0
0
BLOCK_RECORD
5
5E
330
1
100
AcDbSymbolTableRecord
100
AcDbBlockTableRecord
2
*D17
70
0
280
1
281
0
0
BLOCK_RECORD
5
61
330
1
100
AcDbSymbolTableRecord
100
AcDbBlockTableRecord
2
*D14
70
0
280
1
281
0
0
BLOCK_RECORD
5
64
330
1
100
AcDbSymbolTableRecord
100
AcDbBlockTableRecord
2
*D13
70
0
280
1
281
0
0
BLOCK_RECORD
5
67
330
1
100
AcDbSymbolTableRecord
100
AcDbBlockTableRecord
2
*D10
70
0
280
1
281
0
0
BLOCK_RECORD
5
6A
330
1
100
AcDbSymbolTableRecord
100
AcDbBlockTableRecord
2
*D19
70
0
280
1
281
0
0
BLOCK_RECORD
5
6D
330
1
100
AcDbSymbolTableRecord
100
AcDbBlockTableRecord
2
*D4
70
0
280
1
281
0
0
BLOCK_RECORD
5
70
330
1
100
AcDbSymbolTableRecord
100
AcDbBlockTableRecord
2
*D6
70
0
280
1
281
0
0
BLOCK_RECORD
5
73
330
1
100
AcDbSymbolTableRecord
100
AcDbBlockTableRecord
2
*D2
70
0
280
1
281
0
0
BLOCK_RECORD
5
76
330
1
100
AcDbSymbolTableRecord
100
AcDbBlockTableRecord
2
*D21
70
0
280
1
281
0
0
BLOCK_RECORD
5
79
330
1
100
AcDbSymbolTableRecord
100
AcDbBlockTableRecord
2
*D7
70
0
280
1
281
0
0
BLOCK_RECORD
5
7C
330
1
100
AcDbSymbolTableRecord
100
AcDbBlockTableRecord
2
*D16
70
0
280
1
281
0
0
BLOCK_RECORD
5
7F
330
1
100
AcDbSymbolTableRecord
100
AcDbBlockTableRecord
2
*D5
70
0
280
1
281
0
0
BLOCK_RECORD
5
82
330
1
100
AcDbSymbolTableRecord
100
AcDbBlockTableRecord
2
*D20
70
0
280
1
281
0
0
BLOCK_RECORD
5
85
330
1
100
AcDbSymbolTableRecord
100
AcDbBlockTableRecord
2
*D3
70
0
280
1
281
0
0
BLOCK_RECORD
5
88
330
1
100
AcDbSymbolTableRecord
100
AcDbBlockTableRecord
2
*D18
70
0
280
1
281
0
0
BLOCK_RECORD
5
8B
330
1
100
AcDbSymbolTableRecord
100
AcDbBlockTableRecord
2
*D8
70
0
280
1
281
0
0
BLOCK_RECORD
5
8E
330
1
100
AcDbSymbolTableRecord
100
AcDbBlockTableRecord
2
*D11
70
0
280
1
281
0
0
BLOCK_RECORD
5
91
330
1
100
AcDbSymbolTableRecord
100
AcDbBlockTableRecord
2
*D22
70
0
280
1
281
0
0
BLOCK_RECORD
5
94
330
1
100
AcDbSymbolTableRecord
100
AcDbBlockTableRecord
2
*D12
70
0
280
1
281
0
0
BLOCK_RECORD
5
97
330
1
100
AcDbSymbolTableRecord
100
AcDbBlockTableRecord
2
Shaft
70
0
280
1
281
0
0
BLOCK_RECORD
5
9A
330
1
100
AcDbSymbolTableRecord
100
AcDbBlockTableRecord
2
frame
70
0
280
1
281
0
0
BLOCK_RECORD
5
9D
330
1
100
AcDbSymbolTableRecord
100
AcDbBlockTableRecord
2
Battery
70
0
280
1
281
0
0
BLOCK_RECORD
5
A0
330
1
100
AcDbSymbolTableRecord
100
AcDbBlockTableRecord
2
Voltage Regulator
70
0
280
1
281
0
0
BLOCK_RECORD
5
A3
330
1
100
AcDbSymbolTableRecord
100
AcDbBlockTableRecord
2
Beaglebone
70
0
280
1
281
0
0
BLOCK_RECORD
5
A6
330
1
100
AcDbSymbolTableRecord
100
AcDbBlockTableRecord
2
Motor
70
0
280
1
281
0
0
BLOCK_RECORD
5
A9
330
1
100
AcDbSymbolTableRecord
100
AcDbBlockTableRecord
2
PD Block
70
0
280
1
281
0
0
ENDTAB
0
ENDSEC
0
SECTION
2
BLOCKS
0
BLOCK
5
20
330
1F
100
AcDbEntity
8
0
100
AcDbBlockBegin
2
*Model_Space
70
0
10
0
20
0
30
0
3
*Model_Space
1

0
ENDBLK
5
21
330
1F
100
AcDbEntity
8
0
100
AcDbBlockEnd
0
BLOCK
5
1C
330
1B
100
AcDbEntity
8
0
100
AcDbBlockBegin
2
*Paper_Space
70
0
10
0
20
0
30
0
3
*Paper_Space
1

0
ENDBLK
5
1D
330
1F
100
AcDbEntity
8
0
100
AcDbBlockEnd
0
BLOCK
5
56
330
55
100
AcDbEntity
8
0
100
AcDbBlockBegin
2
*D9
70
1
10
0
20
0
3
*D9
1

0
LINE
5
AC
100
AcDbEntity
8
measure
6
CONTINUOUS
62
7
370
0
100
AcDbLine
10
-198.895145654
20
-201.104854346
11
-142.790291309
21
-257.209708691
0
LINE
5
AD
100
AcDbEntity
8
measure
6
CONTINUOUS
62
7
370
0
100
AcDbLine
10
201.104854346
20
198.895145654
11
257.209708691
21
142.790291309
0
LINE
5
AE
100
AcDbEntity
8
measure
6
CONTINUOUS
62
7
370
0
100
AcDbLine
10
-145
20
-255
11
255
21
145
0
SOLID
5
AF
100
AcDbEntity
8
measure
6
CONTINUOUS
62
7
370
0
100
AcDbTrace
10
-145
20
-255
30
0
11
-141.316476879
21
-249.844688357
31
0
12
-139.844688357
22
-251.316476879
32
0
13
-139.844688357
23
-251.316476879
33
0
0
SOLID
5
B0
100
AcDbEntity
8
measure
6
CONTINUOUS
62
7
370
0
100
AcDbTrace
10
255
20
145
30
0
11
251.316476879
21
139.844688357
31
0
12
249.844688357
22
141.316476879
32
0
13
249.844688357
23
141.316476879
33
0
0
MTEXT
5
B1
100
AcDbEntity
8
measure
6
CONTINUOUS
62
7
370
0
100
AcDbMText
10
51.6854369632
20
-51.6854369632
30
0
40
6.25
41
24.3055555556
71
5
72
1
1
565.69
7
standard
210
0
220
0
230
1
50
45
73
2
44
1
0
ENDBLK
5
57
330
55
100
AcDbEntity
8
0
100
AcDbBlockEnd
0
BLOCK
5
59
330
58
100
AcDbEntity
8
0
100
AcDbBlockBegin
2
*D15
70
1
10
0
20
0
3
*D15
1

0
LINE
5
B2
100
AcDbEntity
8
Text
6
CONTINUOUS
62
7
370
0
100
AcDbLine
10
720
20
398.4375
11
720
21
378.875
0
LINE
5
B3
100
AcDbEntity
8
Text
6
CONTINUOUS
62
7
370
0
100
AcDbLine
10
729
20
398.4375
11
729
21
378.875
0
LINE
5
B4
100
AcDbEntity
8
Text
6
CONTINUOUS
62
7
370
0
100
AcDbLine
10
707.5
20
382
11
741.5
21
382
0
SOLID
5
B5
100
AcDbEntity
8
Text
6
CONTINUOUS
62
7
370
0
100
AcDbTrace
10
720
20
382
30
0
11
713.75
21
380.959288356
31
0
12
713.75
22
383.040711644
32
0
13
713.75
23
383.040711644
33
0
0
SOLID
5
B6
100
AcDbEntity
8
Text
6
CONTINUOUS
62
7
370
0
100
AcDbTrace
10
729
20
382
30
0
11
735.25
21
383.040711644
31
0
12
735.25
22
380.959288356
32
0
13
735.25
23
380.959288356
33
0
0
MTEXT
5
B7
100
AcDbEntity
8
Text
6
CONTINUOUS
62
7
370
0
100
AcDbMText
10
724.5
20
386.6875
30
0
40
6.25
41
2.77777777778
71
5
72
1
1
9
7
standard
210
0
220
0
230
1
50
0
73
2
44
1
0
ENDBLK
5
5A
330
58
100
AcDbEntity
8
0
100
AcDbBlockEnd
0
BLOCK
5
5C
330
5B
100
AcDbEntity
8
0
100
AcDbBlockBegin
2
*D1
70
1
10
0
20
0
3
*D1
1

0
LINE
5
B8
100
AcDbEntity
8
measure
6
CONTINUOUS
62
7
370
0
100
AcDbLine
10
-222
20
215
11
-222
21
185
0
SOLID
5
B9
100
AcDbEntity
8
measure
6
CONTINUOUS
62
7
370
0
100
AcDbTrace
10
-222
20
215
30
0
11
-220.959288356
21
208.75
31
0
12
-223.040711644
22
208.75
32
0
13
-223.040711644
23
208.75
33
0
0
SOLID
5
BA
100
AcDbEntity
8
measure
6
CONTINUOUS
62
7
370
0
100
AcDbTrace
10
-222
20
185
30
0
11
-223.040711644
21
191.25
31
0
12
-220.959288356
22
191.25
32
0
13
-220.959288356
23
191.25
33
0
0
MTEXT
5
BB
100
AcDbEntity
8
measure
6
CONTINUOUS
62
7
370
0
100
AcDbMText
10
-226.6875
20
200
30
0
40
6.25
41
7.63888888889
71
5
72
1
1
30
7
standard
210
0
220
0
230
1
50
90
73
2
44
1
0
LINE
5
BC
100
AcDbEntity
8
measure
6
CONTINUOUS
62
7
370
0
100
AcDbLine
10
-201.5625
20
215
11
-225.125
21
215
0
LINE
5
BD
100
AcDbEntity
8
measure
6
CONTINUOUS
62
7
370
0
100
AcDbLine
10
-201.5625
20
185
11
-225.125
21
185
0
ENDBLK
5
5D
330
5B
100
AcDbEntity
8
0
100
AcDbBlockEnd
0
BLOCK
5
5F
330
5E
100
AcDbEntity
8
0
100
AcDbBlockBegin
2
*D17
70
1
10
0
20
0
3
*D17
1

0
LINE
5
BE
100
AcDbEntity
8
Text
6
CONTINUOUS
62
7
370
0
100
AcDbLine
10
700
20
368.4375
11
700
21
349.875
0
LINE
5
BF
100
AcDbEntity
8
Text
6
CONTINUOUS
62
7
370
0
100
AcDbLine
10
709
20
368.4375
11
709
21
349.875
0
LINE
5
C0
100
AcDbEntity
8
Text
6
CONTINUOUS
62
7
370
0
100
AcDbLine
10
687.5
20
353
11
721.5
21
353
0
SOLID
5
C1
100
AcDbEntity
8
Text
6
CONTINUOUS
62
7
370
0
100
AcDbTrace
10
700
20
353
30
0
11
693.75
21
351.959288356
31
0
12
693.75
22
354.040711644
32
0
13
693.75
23
354.040711644
33
0
0
SOLID
5
C2
100
AcDbEntity
8
Text
6
CONTINUOUS
62
7
370
0
100
AcDbTrace
10
709
20
353
30
0
11
715.25
21
354.040711644
31
0
12
715.25
22
351.959288356
32
0
13
715.25
23
351.959288356
33
0
0
MTEXT
5
C3
100
AcDbEntity
8
Text
6
CONTINUOUS
62
7
370
0
100
AcDbMText
10
704.5
20
357.6875
30
0
40
6.25
41
2.77777777778
71
5
72
1
1
9
7
standard
210
0
220
0
230
1
50
0
73
2
44
1
0
ENDBLK
5
60
330
5E
100
AcDbEntity
8
0
100
AcDbBlockEnd
0
BLOCK
5
62
330
61
100
AcDbEntity
8
0
100
AcDbBlockBegin
2
*D14
70
1
10
0
20
0
3
*D14
1

0
LINE
5
C4
100
AcDbEntity
8
measure
6
CONTINUOUS
62
7
370
0
100
AcDbLine
10
-18.8980646731
20
0.107765672559
11
-184.78534826
21
-166.65722841
0
LINE
5
C5
100
AcDbEntity
8
measure
6
CONTINUOUS
62
7
370
0
100
AcDbLine
10
-214
20
-153.4375
11
-214
21
-154.601253176
0
ARC
5
C6
100
AcDbEntity
8
measure
6
CONTINUOUS
62
7
370
0
100
AcDbCircle
10
-214
20
-196.026455026
40
38.3002018503
100
AcDbArc
50
45.1511758484
51
90
0
SOLID
5
C7
100
AcDbEntity
8
measure
6
CONTINUOUS
62
7
370
0
100
AcDbTrace
10
-186.989218914
20
-168.872759755
30
0
11
-192.436152613
21
-165.636018492
31
0
12
-191.093405395
22
-164.045624574
32
0
13
-191.093405395
23
-164.045624574
33
0
0
SOLID
5
C8
100
AcDbEntity
8
measure
6
CONTINUOUS
62
7
370
0
100
AcDbTrace
10
-214
20
-157.726253176
30
0
11
-207.685972684
21
-157.198389766
31
0
12
-207.855612343
22
-159.272888571
32
0
13
-207.855612343
23
-159.272888571
33
0
0
MTEXT
5
C9
100
AcDbEntity
8
measure
6
CONTINUOUS
62
7
370
0
100
AcDbMText
10
-198.793803774
20
-159.178027718
30
0
40
6.25
41
25
71
8
72
1
1
44.85%%D
7
standard
210
0
220
0
230
1
50
337.575587924
73
2
44
1
0
ENDBLK
5
63
330
61
100
AcDbEntity
8
0
100
AcDbBlockEnd
0
BLOCK
5
65
330
64
100
AcDbEntity
8
0
100
AcDbBlockBegin
2
*D13
70
1
10
0
20
0
3
*D13
1

0
LINE
5
CA
100
AcDbEntity
8
measure
6
CONTINUOUS
62
7
370
0
100
AcDbLine
10
-214
20
-196
11
-214
21
-155
0
SOLID
5
CB
100
AcDbEntity
8
measure
6
CONTINUOUS
62
7
370
0
100
AcDbTrace
10
-214
20
-196
30
0
11
-215.040711644
21
-189.75
31
0
12
-212.959288356
22
-189.75
32
0
13
-212.959288356
23
-189.75
33
0
0
ENDBLK
5
66
330
64
100
AcDbEntity
8
0
100
AcDbBlockEnd
0
BLOCK
5
68
330
67
100
AcDbEntity
8
0
100
AcDbBlockBegin
2
*D10
70
1
10
0
20
0
3
*D10
1

0
LINE
5
CC
100
AcDbEntity
8
measure
6
CONTINUOUS
62
7
370
0
100
AcDbLine
10
-118.104854346
20
101.104854346
11
-124.209708691
21
107.209708691
0
LINE
5
CD
100
AcDbEntity
8
measure
6
CONTINUOUS
62
7
370
0
100
AcDbLine
10
-101.104854346
20
118.104854346
11
-107.209708691
21
124.209708691
0
LINE
5
CE
100
AcDbEntity
8
measure
6
CONTINUOUS
62
7
370
0
100
AcDbLine
10
-122
20
105
11
-105
21
122
0
SOLID
5
CF
100
AcDbEntity
8
measure
6
CONTINUOUS
62
7
370
0
100
AcDbTrace
10
-122
20
105
30
0
11
-118.316476879
21
110.155311643
31
0
12
-116.844688357
22
108.683523121
32
0
13
-116.844688357
23
108.683523121
33
0
0
SOLID
5
D0
100
AcDbEntity
8
measure
6
CONTINUOUS
62
7
370
0
100
AcDbTrace
10
-105
20
122
30
0
11
-108.683523121
21
116.844688357
31
0
12
-110.155311643
22
118.316476879
32
0
13
-110.155311643
23
118.316476879
33
0
0
MTEXT
5
D1
100
AcDbEntity
8
measure
6
CONTINUOUS
62
7
370
0
100
AcDbMText
10
-116.814563037
20
116.814563037
30
0
40
6.25
41
20.8333333333
71
5
72
1
1
24.04
7
standard
210
0
220
0
230
1
50
45
73
2
44
1
0
ENDBLK
5
69
330
67
100
AcDbEntity
8
0
100
AcDbBlockEnd
0
BLOCK
5
6B
330
6A
100
AcDbEntity
8
0
100
AcDbBlockBegin
2
*D19
70
1
10
0
20
0
3
*D19
1

0
LINE
5
D2
100
AcDbEntity
8
Text
6
CONTINUOUS
62
7
370
0
100
AcDbLine
10
727.895145654
20
410.104854346
11
666.790291309
21
471.209708691
0
LINE
5
D3
100
AcDbEntity
8
Text
6
CONTINUOUS
62
7
370
0
100
AcDbLine
10
693.895145654
20
376.104854346
11
632.790291309
21
437.209708691
0
LINE
5
D4
100
AcDbEntity
8
Text
6
CONTINUOUS
62
7
370
0
100
AcDbLine
10
669
20
469
11
635
21
435
0
SOLID
5
D5
100
AcDbEntity
8
Text
6
CONTINUOUS
62
7
370
0
100
AcDbTrace
10
669
20
469
30
0
11
665.316476879
21
463.844688357
31
0
12
663.844688357
22
465.316476879
32
0
13
663.844688357
23
465.316476879
33
0
0
SOLID
5
D6
100
AcDbEntity
8
Text
6
CONTINUOUS
62
7
370
0
100
AcDbTrace
10
635
20
435
30
0
11
638.683523121
21
440.155311643
31
0
12
640.155311643
22
438.683523121
32
0
13
640.155311643
23
438.683523121
33
0
0
MTEXT
5
D7
100
AcDbEntity
8
Text
6
CONTINUOUS
62
7
370
0
100
AcDbMText
10
648.685436963
20
455.314563037
30
0
40
6.25
41
20.1388888889
71
5
72
1
1
48.08
7
standard
210
0
220
0
230
1
50
45
73
2
44
1
0
ENDBLK
5
6C
330
6A
100
AcDbEntity
8
0
100
AcDbBlockEnd
0
BLOCK
5
6E
330
6D
100
AcDbEntity
8
0
100
AcDbBlockBegin
2
*D4
70
1
10
0
20
0
3
*D4
1

0
LINE
5
D8
100
AcDbEntity
8
measure
6
CONTINUOUS
62
7
370
0
100
AcDbLine
10
-81.5625
20
80
11
-133.125
21
80
0
LINE
5
D9
100
AcDbEntity
8
measure
6
CONTINUOUS
62
7
370
0
100
AcDbLine
10
-81.5625
20
-80
11
-133.125
21
-80
0
LINE
5
DA
100
AcDbEntity
8
measure
6
CONTINUOUS
62
7
370
0
100
AcDbLine
10
-130
20
80
11
-130
21
-80
0
SOLID
5
DB
100
AcDbEntity
8
measure
6
CONTINUOUS
62
7
370
0
100
AcDbTrace
10
-130
20
80
30
0
11
-128.959288356
21
73.75
31
0
12
-131.040711644
22
73.75
32
0
13
-131.040711644
23
73.75
33
0
0
SOLID
5
DC
100
AcDbEntity
8
measure
6
CONTINUOUS
62
7
370
0
100
AcDbTrace
10
-130
20
-80
30
0
11
-131.040711644
21
-73.75
31
0
12
-128.959288356
22
-73.75
32
0
13
-128.959288356
23
-73.75
33
0
0
MTEXT
5
DD
100
AcDbEntity
8
measure
6
CONTINUOUS
62
7
370
0
100
AcDbMText
10
-134.6875
20
5.740531871e-16
30
0
40
6.25
41
11.1111111111
71
5
72
1
1
160
7
standard
210
0
220
0
230
1
50
90
73
2
44
1
0
ENDBLK
5
6F
330
6D
100
AcDbEntity
8
0
100
AcDbBlockEnd
0
BLOCK
5
71
330
70
100
AcDbEntity
8
0
100
AcDbBlockBegin
2
*D6
70
1
10
0
20
0
3
*D6
1

0
LINE
5
DE
100
AcDbEntity
8
measure
6
CONTINUOUS
62
7
370
0
100
AcDbLine
10
186
20
-210
11
214
21
-210
0
SOLID
5
DF
100
AcDbEntity
8
measure
6
CONTINUOUS
62
7
370
0
100
AcDbTrace
10
198.5
20
-210
30
0
11
192.25
21
-211.040711644
31
0
12
192.25
22
-208.959288356
32
0
13
192.25
23
-208.959288356
33
0
0
SOLID
5
E0
100
AcDbEntity
8
measure
6
CONTINUOUS
62
7
370
0
100
AcDbTrace
10
201.5
20
-210
30
0
11
207.75
21
-208.959288356
31
0
12
207.75
22
-211.040711644
32
0
13
207.75
23
-211.040711644
33
0
0
MTEXT
5
E1
100
AcDbEntity
8
measure
6
CONTINUOUS
62
7
370
0
100
AcDbMText
10
200
20
-205.3125
30
0
40
6.25
41
2.77777777778
71
5
72
1
1
3
7
standard
210
0
220
0
230
1
50
0
73
2
44
1
0
ENDBLK
5
72
330
70
100
AcDbEntity
8
0
100
AcDbBlockEnd
0
BLOCK
5
74
330
73
100
AcDbEntity
8
0
100
AcDbBlockBegin
2
*D2
70
1
10
0
20
0
3
*D2
1

0
LINE
5
E2
100
AcDbEntity
8
measure
6
CONTINUOUS
62
7
370
0
100
AcDbLine
10
-215
20
230
11
-185
21
230
0
SOLID
5
E3
100
AcDbEntity
8
measure
6
CONTINUOUS
62
7
370
0
100
AcDbTrace
10
-215
20
230
30
0
11
-208.75
21
231.040711644
31
0
12
-208.75
22
228.959288356
32
0
13
-208.75
23
228.959288356
33
0
0
SOLID
5
E4
100
AcDbEntity
8
measure
6
CONTINUOUS
62
7
370
0
100
AcDbTrace
10
-185
20
230
30
0
11
-191.25
21
228.959288356
31
0
12
-191.25
22
231.040711644
32
0
13
-191.25
23
231.040711644
33
0
0
MTEXT
5
E5
100
AcDbEntity
8
measure
6
CONTINUOUS
62
7
370
0
100
AcDbMText
10
-200
20
234.6875
30
0
40
6.25
41
7.63888888889
71
5
72
1
1
30
7
standard
210
0
220
0
230
1
50
0
73
2
44
1
0
LINE
5
E6
100
AcDbEntity
8
measure
6
CONTINUOUS
62
7
370
0
100
AcDbLine
10
-215
20
201.5625
11
-215
21
233.125
0
LINE
5
E7
100
AcDbEntity
8
measure
6
CONTINUOUS
62
7
370
0
100
AcDbLine
10
-185
20
201.5625
11
-185
21
233.125
0
ENDBLK
5
75
330
73
100
AcDbEntity
8
0
100
AcDbBlockEnd
0
BLOCK
5
77
330
76
100
AcDbEntity
8
0
100
AcDbBlockBegin
2
*D21
70
1
10
0
20
0
3
*D21
1

0
LINE
5
E8
100
AcDbEntity
8
Text
6
CONTINUOUS
62
7
370
0
100
AcDbLine
10
658.895145654
20
341.104854346
11
642.790291309
21
357.209708691
0
LINE
5
E9
100
AcDbEntity
8
Text
6
CONTINUOUS
62
7
370
0
100
AcDbLine
10
663.895145654
20
346.104854346
11
647.790291309
21
362.209708691
0
LINE
5
EA
100
AcDbEntity
8
Text
6
CONTINUOUS
62
7
370
0
100
AcDbLine
10
636.161165235
20
346.161165235
11
658.838834765
21
368.838834765
0
SOLID
5
EB
100
AcDbEntity
8
Text
6
CONTINUOUS
62
7
370
0
100
AcDbTrace
10
645
20
355
30
0
11
641.316476879
21
349.844688357
31
0
12
639.844688357
22
351.316476879
32
0
13
639.844688357
23
351.316476879
33
0
0
SOLID
5
EC
100
AcDbEntity
8
Text
6
CONTINUOUS
62
7
370
0
100
AcDbTrace
10
650
20
360
30
0
11
653.683523121
21
365.155311643
31
0
12
655.155311643
22
363.683523121
32
0
13
655.155311643
23
363.683523121
33
0
0
MTEXT
5
ED
100
AcDbEntity
8
Text
6
CONTINUOUS
62
7
370
0
100
AcDbMText
10
652.946278255
20
369.575404329
30
0
40
6.25
41
14.5833333333
71
5
72
1
1
7.07
7
standard
210
0
220
0
230
1
50
45
73
2
44
1
0
ENDBLK
5
78
330
76
100
AcDbEntity
8
0
100
AcDbBlockEnd
0
BLOCK
5
7A
330
79
100
AcDbEntity
8
0
100
AcDbBlockBegin
2
*D7
70
1
10
0
20
0
3
*D7
1

0
LINE
5
EE
100
AcDbEntity
8
measure
6
CONTINUOUS
62
7
370
0
100
AcDbLine
10
73
20
-201.5625
11
73
21
-343.125
0
LINE
5
EF
100
AcDbEntity
8
measure
6
CONTINUOUS
62
7
370
0
100
AcDbLine
10
327
20
-201.5625
11
327
21
-343.125
0
LINE
5
F0
100
AcDbEntity
8
measure
6
CONTINUOUS
62
7
370
0
100
AcDbLine
10
73
20
-340
11
327
21
-340
0
SOLID
5
F1
100
AcDbEntity
8
measure
6
CONTINUOUS
62
7
370
0
100
AcDbTrace
10
73
20
-340
30
0
11
79.25
21
-338.959288356
31
0
12
79.25
22
-341.040711644
32
0
13
79.25
23
-341.040711644
33
0
0
SOLID
5
F2
100
AcDbEntity
8
measure
6
CONTINUOUS
62
7
370
0
100
AcDbTrace
10
327
20
-340
30
0
11
320.75
21
-341.040711644
31
0
12
320.75
22
-338.959288356
32
0
13
320.75
23
-338.959288356
33
0
0
MTEXT
5
F3
100
AcDbEntity
8
measure
6
CONTINUOUS
62
7
370
0
100
AcDbMText
10
200
20
-335.3125
30
0
40
6.25
41
13.1944444444
71
5
72
1
1
254
7
standard
210
0
220
0
230
1
50
0
73
2
44
1
0
ENDBLK
5
7B
330
79
100
AcDbEntity
8
0
100
AcDbBlockEnd
0
BLOCK
5
7D
330
7C
100
AcDbEntity
8
0
100
AcDbBlockBegin
2
*D16
70
1
10
0
20
0
3
*D16
1

0
LINE
5
F4
100
AcDbEntity
8
Text
6
CONTINUOUS
62
7
370
0
100
AcDbLine
10
718.4375
20
400
11
688.875
21
400
0
LINE
5
F5
100
AcDbEntity
8
Text
6
CONTINUOUS
62
7
370
0
100
AcDbLine
10
718.4375
20
409
11
688.875
21
409
0
LINE
5
F6
100
AcDbEntity
8
Text
6
CONTINUOUS
62
7
370
0
100
AcDbLine
10
692
20
387.5
11
692
21
421.5
0
SOLID
5
F7
100
AcDbEntity
8
Text
6
CONTINUOUS
62
7
370
0
100
AcDbTrace
10
692
20
400
30
0
11
693.040711644
21
393.75
31
0
12
690.959288356
22
393.75
32
0
13
690.959288356
23
393.75
33
0
0
SOLID
5
F8
100
AcDbEntity
8
Text
6
CONTINUOUS
62
7
370
0
100
AcDbTrace
10
692
20
409
30
0
11
690.959288356
21
415.25
31
0
12
693.040711644
22
415.25
32
0
13
693.040711644
23
415.25
33
0
0
MTEXT
5
F9
100
AcDbEntity
8
Text
6
CONTINUOUS
62
7
370
0
100
AcDbMText
10
687.3125
20
404.5
30
0
40
6.25
41
2.77777777778
71
5
72
1
1
9
7
standard
210
0
220
0
230
1
50
90
73
2
44
1
0
ENDBLK
5
7E
330
7C
100
AcDbEntity
8
0
100
AcDbBlockEnd
0
BLOCK
5
80
330
7F
100
AcDbEntity
8
0
100
AcDbBlockBegin
2
*D5
70
1
10
0
20
0
3
*D5
1

0
LINE
5
FA
100
AcDbEntity
8
measure
6
CONTINUOUS
62
7
370
0
100
AcDbLine
10
-213.75
20
200
11
-186.25
21
200
0
SOLID
5
FB
100
AcDbEntity
8
measure
6
CONTINUOUS
62
7
370
0
100
AcDbTrace
10
-213.75
20
200
30
0
11
-207.5
21
201.040711644
31
0
12
-207.5
22
198.959288356
32
0
13
-207.5
23
198.959288356
33
0
0
SOLID
5
FC
100
AcDbEntity
8
measure
6
CONTINUOUS
62
7
370
0
100
AcDbTrace
10
-186.25
20
200
30
0
11
-192.5
21
198.959288356
31
0
12
-192.5
22
201.040711644
32
0
13
-192.5
23
201.040711644
33
0
0
MTEXT
5
FD
100
AcDbEntity
8
measure
6
CONTINUOUS
62
7
370
0
100
AcDbMText
10
-200
20
204.6875
30
0
40
6.25
41
14.5833333333
71
5
72
1
1
27.5
7
standard
210
0
220
0
230
1
50
0
73
2
44
1
0
ENDBLK
5
81
330
7F
100
AcDbEntity
8
0
100
AcDbBlockEnd
0
BLOCK
5
83
330
82
100
AcDbEntity
8
0
100
AcDbBlockBegin
2
*D20
70
1
10
0
20
0
3
*D20
1

0
LINE
5
FE
100
AcDbEntity
8
Text
6
CONTINUOUS
62
7
370
0
100
AcDbLine
10
701.104854346
20
368.895145654
11
737.209708691
21
332.790291309
0
LINE
5
FF
100
AcDbEntity
8
Text
6
CONTINUOUS
62
7
370
0
100
AcDbLine
10
671.104854346
20
338.895145654
11
707.209708691
21
302.790291309
0
LINE
5
100
100
AcDbEntity
8
Text
6
CONTINUOUS
62
7
370
0
100
AcDbLine
10
735
20
335
11
705
21
305
0
SOLID
5
101
100
AcDbEntity
8
Text
6
CONTINUOUS
62
7
370
0
100
AcDbTrace
10
735
20
335
30
0
11
731.316476879
21
329.844688357
31
0
12
729.844688357
22
331.316476879
32
0
13
729.844688357
23
331.316476879
33
0
0
SOLID
5
102
100
AcDbEntity
8
Text
6
CONTINUOUS
62
7
370
0
100
AcDbTrace
10
705
20
305
30
0
11
708.683523121
21
310.155311643
31
0
12
710.155311643
22
308.683523121
32
0
13
710.155311643
23
308.683523121
33
0
0
MTEXT
5
103
100
AcDbEntity
8
Text
6
CONTINUOUS
62
7
370
0
100
AcDbMText
10
716.685436963
20
323.314563037
30
0
40
6.25
41
20.8333333333
71
5
72
1
1
42.43
7
standard
210
0
220
0
230
1
50
45
73
2
44
1
0
ENDBLK
5
84
330
82
100
AcDbEntity
8
0
100
AcDbBlockEnd
0
BLOCK
5
86
330
85
100
AcDbEntity
8
0
100
AcDbBlockBegin
2
*D3
70
1
10
0
20
0
3
*D3
1

0
LINE
5
104
100
AcDbEntity
8
measure
6
CONTINUOUS
62
7
370
0
100
AcDbLine
10
-80
20
-1.5625
11
-80
21
-123.125
0
LINE
5
105
100
AcDbEntity
8
measure
6
CONTINUOUS
62
7
370
0
100
AcDbLine
10
80
20
-1.5625
11
80
21
-123.125
0
LINE
5
106
100
AcDbEntity
8
measure
6
CONTINUOUS
62
7
370
0
100
AcDbLine
10
-80
20
-120
11
80
21
-120
0
SOLID
5
107
100
AcDbEntity
8
measure
6
CONTINUOUS
62
7
370
0
100
AcDbTrace
10
-80
20
-120
30
0
11
-73.75
21
-118.959288356
31
0
12
-73.75
22
-121.040711644
32
0
13
-73.75
23
-121.040711644
33
0
0
SOLID
5
108
100
AcDbEntity
8
measure
6
CONTINUOUS
62
7
370
0
100
AcDbTrace
10
80
20
-120
30
0
11
73.75
21
-121.040711644
31
0
12
73.75
22
-118.959288356
32
0
13
73.75
23
-118.959288356
33
0
0
MTEXT
5
109
100
AcDbEntity
8
measure
6
CONTINUOUS
62
7
370
0
100
AcDbMText
10
-2.81346828369e-14
20
-115.3125
30
0
40
6.25
41
11.1111111111
71
5
72
1
1
160
7
standard
210
0
220
0
230
1
50
0
73
2
44
1
0
ENDBLK
5
87
330
85
100
AcDbEntity
8
0
100
AcDbBlockEnd
0
BLOCK
5
89
330
88
100
AcDbEntity
8
0
100
AcDbBlockBegin
2
*D18
70
1
10
0
20
0
3
*D18
1

0
LINE
5
10A
100
AcDbEntity
8
Text
6
CONTINUOUS
62
7
370
0
100
AcDbLine
10
701.5625
20
370
11
719.125
21
370
0
LINE
5
10B
100
AcDbEntity
8
Text
6
CONTINUOUS
62
7
370
0
100
AcDbLine
10
701.5625
20
361
11
719.125
21
361
0
LINE
5
10C
100
AcDbEntity
8
Text
6
CONTINUOUS
62
7
370
0
100
AcDbLine
10
716
20
382.5
11
716
21
348.5
0
SOLID
5
10D
100
AcDbEntity
8
Text
6
CONTINUOUS
62
7
370
0
100
AcDbTrace
10
716
20
370
30
0
11
714.959288356
21
376.25
31
0
12
717.040711644
22
376.25
32
0
13
717.040711644
23
376.25
33
0
0
SOLID
5
10E
100
AcDbEntity
8
Text
6
CONTINUOUS
62
7
370
0
100
AcDbTrace
10
716
20
361
30
0
11
717.040711644
21
354.75
31
0
12
714.959288356
22
354.75
32
0
13
714.959288356
23
354.75
33
0
0
MTEXT
5
10F
100
AcDbEntity
8
Text
6
CONTINUOUS
62
7
370
0
100
AcDbMText
10
711.3125
20
365.5
30
0
40
6.25
41
2.77777777778
71
5
72
1
1
9
7
standard
210
0
220
0
230
1
50
90
73
2
44
1
0
ENDBLK
5
8A
330
88
100
AcDbEntity
8
0
100
AcDbBlockEnd
0
BLOCK
5
8C
330
8B
100
AcDbEntity
8
0
100
AcDbBlockBegin
2
*D8
70
1
10
0
20
0
3
*D8
1

0
LINE
5
110
100
AcDbEntity
8
measure
6
CONTINUOUS
62
7
370
0
100
AcDbLine
10
-1.1048543456
20
1.1048543456
11
-92.2097086912
21
92.2097086912
0
LINE
5
111
100
AcDbEntity
8
measure
6
CONTINUOUS
62
7
370
0
100
AcDbLine
10
208.895145654
20
211.104854346
11
117.790291309
21
302.209708691
0
LINE
5
112
100
AcDbEntity
8
measure
6
CONTINUOUS
62
7
370
0
100
AcDbLine
10
-90
20
90
11
120
21
300
0
SOLID
5
113
100
AcDbEntity
8
measure
6
CONTINUOUS
62
7
370
0
100
AcDbTrace
10
-90
20
90
30
0
11
-86.3164768786
21
95.1553116435
31
0
12
-84.8446883565
22
93.6835231214
32
0
13
-84.8446883565
23
93.6835231214
33
0
0
SOLID
5
114
100
AcDbEntity
8
measure
6
CONTINUOUS
62
7
370
0
100
AcDbTrace
10
120
20
300
30
0
11
116.316476879
21
294.844688357
31
0
12
114.844688357
22
296.316476879
32
0
13
114.844688357
23
296.316476879
33
0
0
MTEXT
5
115
100
AcDbEntity
8
measure
6
CONTINUOUS
62
7
370
0
100
AcDbMText
10
11.6854369632
20
198.314563037
30
0
40
6.25
41
24.3055555556
71
5
72
1
1
296.98
7
standard
210
0
220
0
230
1
50
45
73
2
44
1
0
ENDBLK
5
8D
330
8B
100
AcDbEntity
8
0
100
AcDbBlockEnd
0
BLOCK
5
8F
330
8E
100
AcDbEntity
8
0
100
AcDbBlockBegin
2
*D11
70
1
10
0
20
0
3
*D11
1

0
LINE
5
116
100
AcDbEntity
8
measure
6
CONTINUOUS
62
7
370
0
100
AcDbLine
10
-68.8951456544
20
88.1048543456
11
-51.2902913088
21
105.709708691
0
LINE
5
117
100
AcDbEntity
8
measure
6
CONTINUOUS
62
7
370
0
100
AcDbLine
10
-100.895145654
20
120.104854346
11
-83.2902913088
21
137.709708691
0
LINE
5
118
100
AcDbEntity
8
measure
6
CONTINUOUS
62
7
370
0
100
AcDbLine
10
-53.5
20
103.5
11
-85.5
21
135.5
0
SOLID
5
119
100
AcDbEntity
8
measure
6
CONTINUOUS
62
7
370
0
100
AcDbTrace
10
-53.5
20
103.5
30
0
11
-58.6553116435
21
107.183523121
31
0
12
-57.1835231214
22
108.655311643
32
0
13
-57.1835231214
23
108.655311643
33
0
0
SOLID
5
11A
100
AcDbEntity
8
measure
6
CONTINUOUS
62
7
370
0
100
AcDbTrace
10
-85.5
20
135.5
30
0
11
-80.3446883565
21
131.816476879
31
0
12
-81.8164768786
22
130.344688357
32
0
13
-81.8164768786
23
130.344688357
33
0
0
MTEXT
5
11B
100
AcDbEntity
8
measure
6
CONTINUOUS
62
7
370
0
100
AcDbMText
10
-66.1854369632
20
122.814563037
30
0
40
6.25
41
20.1388888889
71
5
72
1
1
45.25
7
standard
210
0
220
0
230
1
50
315
73
2
44
1
0
ENDBLK
5
90
330
8E
100
AcDbEntity
8
0
100
AcDbBlockEnd
0
BLOCK
5
92
330
91
100
AcDbEntity
8
0
100
AcDbBlockBegin
2
*D22
70
1
10
0
20
0
3
*D22
1

0
LINE
5
11C
100
AcDbEntity
8
measure
6
CONTINUOUS
62
7
370
0
100
AcDbLine
10
55.5
20
-70
11
84.5
21
-70
0
SOLID
5
11D
100
AcDbEntity
8
measure
6
CONTINUOUS
62
7
370
0
100
AcDbTrace
10
68
20
-70
30
0
11
61.75
21
-71.0407116444
31
0
12
61.75
22
-68.9592883556
32
0
13
61.75
23
-68.9592883556
33
0
0
SOLID
5
11E
100
AcDbEntity
8
measure
6
CONTINUOUS
62
7
370
0
100
AcDbTrace
10
72
20
-70
30
0
11
78.25
21
-68.9592883556
31
0
12
78.25
22
-71.0407116444
32
0
13
78.25
23
-71.0407116444
33
0
0
MTEXT
5
11F
100
AcDbEntity
8
measure
6
CONTINUOUS
62
7
370
0
100
AcDbMText
10
70
20
-65.3125
30
0
40
6.25
41
3.47222222222
71
5
72
1
1
4
7
standard
210
0
220
0
230
1
50
0
73
2
44
1
0
ENDBLK
5
93
330
91
100
AcDbEntity
8
0
100
AcDbBlockEnd
0
BLOCK
5
95
330
94
100
AcDbEntity
8
0
100
AcDbBlockBegin
2
*D12
70
1
10
0
20
0
3
*D12
1

0
LINE
5
120
100
AcDbEntity
8
measure
6
CONTINUOUS
62
7
370
0
100
AcDbLine
10
-205.104854346
20
187.104854346
11
-248.709708691
21
230.709708691
0
LINE
5
121
100
AcDbEntity
8
measure
6
CONTINUOUS
62
7
370
0
100
AcDbLine
10
-187.104854346
20
205.104854346
11
-230.709708691
21
248.709708691
0
LINE
5
122
100
AcDbEntity
8
measure
6
CONTINUOUS
62
7
370
0
100
AcDbLine
10
-246.5
20
228.5
11
-228.5
21
246.5
0
SOLID
5
123
100
AcDbEntity
8
measure
6
CONTINUOUS
62
7
370
0
100
AcDbTrace
10
-246.5
20
228.5
30
0
11
-242.816476879
21
233.655311643
31
0
12
-241.344688357
22
232.183523121
32
0
13
-241.344688357
23
232.183523121
33
0
0
SOLID
5
124
100
AcDbEntity
8
measure
6
CONTINUOUS
62
7
370
0
100
AcDbTrace
10
-228.5
20
246.5
30
0
11
-232.183523121
21
241.344688357
31
0
12
-233.655311643
22
242.816476879
32
0
13
-233.655311643
23
242.816476879
33
0
0
MTEXT
5
125
100
AcDbEntity
8
measure
6
CONTINUOUS
62
7
370
0
100
AcDbMText
10
-240.814563037
20
240.814563037
30
0
40
6.25
41
20.1388888889
71
5
72
1
1
25.46
7
standard
210
0
220
0
230
1
50
45
73
2
44
1
0
ENDBLK
5
96
330
94
100
AcDbEntity
8
0
100
AcDbBlockEnd
0
BLOCK
5
98
330
97
100
AcDbEntity
8
0
100
AcDbBlockBegin
2
Shaft
70
0
10
0
20
0
3
Shaft
1

0
LINE
5
126
100
AcDbEntity
8
rotor_shafts
6
ByLayer
62
256
370
-1
100
AcDbLine
10
31
20
-221
11
220
21
-31
0
LINE
5
127
100
AcDbEntity
8
rotor_shafts
6
ByLayer
62
256
370
-1
100
AcDbLine
10
220
20
-31
11
239
21
-31
0
LINE
5
128
100
AcDbEntity
8
rotor_shafts
6
ByLayer
62
256
370
-1
100
AcDbLine
10
239
20
-31
11
239
21
-50
0
LINE
5
129
100
AcDbEntity
8
rotor_shafts
6
ByLayer
62
256
370
-1
100
AcDbLine
10
49
20
-239
11
44
21
-244
0
LINE
5
12A
100
AcDbEntity
8
rotor_shafts
6
ByLayer
62
256
370
-1
100
AcDbLine
10
34
20
-244
11
44
21
-244
0
LINE
5
12B
100
AcDbEntity
8
rotor_shafts
6
ByLayer
62
256
370
-1
100
AcDbLine
10
31
20
-221
11
26
21
-226
0
LINE
5
12C
100
AcDbEntity
8
rotor_shafts
6
ByLayer
62
256
370
-1
100
AcDbLine
10
26
20
-236
11
34
21
-244
0
LINE
5
12D
100
AcDbEntity
8
rotor_shafts
6
ByLayer
62
256
370
-1
100
AcDbLine
10
26
20
-226
11
26
21
-236
0
ARC
5
12E
100
AcDbEntity
8
rotor_shafts
6
ByLayer
62
256
370
-1
100
AcDbCircle
10
40
20
-230
40
14.4222051019
100
AcDbArc
50
344.359666424
51
105.640333576
0
DIMENSION
5
12F
100
AcDbEntity
8
measure
6
ByLayer
62
256
370
-1
100
AcDbDimension
10
267
20
-59
30
0
11
159.185436963
21
-160.185436963
31
0
70
33
71
5
72
0
3
Standard
53
0
210
0
220
0
230
1
100
AcDbAlignedDimension
13
30
23
-240
33
0
14
239
24
-31
34
0
0
DIMENSION
5
130
100
AcDbEntity
8
measure
6
ByLayer
62
256
370
-1
100
AcDbDimension
10
21
20
-267
30
0
11
15.3145630368
21
-254.685436963
31
0
70
33
71
5
72
0
3
Standard
53
0
210
0
220
0
230
1
100
AcDbAlignedDimension
13
26
23
-226
33
0
14
44
24
-244
34
0
0
LEADER
5
131
100
AcDbEntity
8
measure
6
ByLayer
62
256
370
-1
100
AcDbLeader
3
Standard
71
1
72
0
73
3
74
0
75
0
40
1
41
10
76
2
76
2
10
220
20
-31
30
0
10
179
20
-31
30
0
0
DIMENSION
5
132
100
AcDbEntity
8
measure
6
ByLayer
62
256
370
-1
100
AcDbDimension
10
179
20
-31
30
0
11
-490
21
-440
31
0
70
34
71
5
72
0
3
Standard
53
0
210
0
220
0
230
1
100
AcDb2LineAngularDimension
13
220
23
-31
33
0
14
31
24
-221
34
0
15
220
25
-31
35
0
16
183
26
-49
36
0
0
DIMENSION
5
133
100
AcDbEntity
8
measure
6
ByLayer
62
256
370
-1
100
AcDbDimension
10
239
20
-12
30
0
11
229.5
21
-7.3125
31
0
70
33
71
5
72
0
3
Standard
53
0
210
0
220
0
230
1
100
AcDbAlignedDimension
13
220
23
-31
33
0
14
239
24
-31
34
0
0
DIMENSION
5
134
100
AcDbEntity
8
measure
6
ByLayer
62
256
370
-1
100
AcDbDimension
10
44.5
20
-233.5
30
0
11
43.8145630368
21
-226.185436963
31
0
70
33
71
5
72
0
3
Standard
53
0
210
0
220
0
230
1
100
AcDbAlignedDimension
13
26
23
-236
33
0
14
34
24
-244
34
0
0
LEADER
5
135
100
AcDbEntity
8
measure
6
ByLayer
62
256
370
-1
100
AcDbLeader
3
Standard
71
1
72
0
73
3
74
0
75
0
40
1
41
10
76
2
76
2
10
26
20
-226
30
0
10
26
20
-200
30
0
0
DIMENSION
5
136
100
AcDbEntity
8
measure
6
ByLayer
62
256
370
-1
100
AcDbDimension
10
26
20
-200
30
0
11
-490
21
-440
31
0
70
34
71
5
72
0
3
Standard
53
0
210
0
220
0
230
1
100
AcDb2LineAngularDimension
13
31
23
-221
33
0
14
220
24
-31
34
0
15
26
25
-226
35
0
16
38
26
-195
36
0
0
DIMENSION
5
137
100
AcDbEntity
8
measure
6
ByLayer
62
256
370
-1
100
AcDbDimension
10
40
20
-230
30
0
11
61.6148672651
21
-201.756006661
31
0
70
36
71
5
72
0
3
Standard
53
0
210
0
220
0
230
1
100
AcDbRadialDimension
15
50.1980390272
25
-219.801960973
35
0
40
0
0
LINE
5
138
100
AcDbEntity
8
rotor_shafts
6
ByLayer
62
256
370
-1
100
AcDbLine
10
239
20
-50
11
49
21
-239
0
MTEXT
5
139
100
AcDbEntity
8
Text
6
ByLayer
62
256
370
-1
100
AcDbMText
10
20
20
-50
30
0
40
4
41
23.8888888889
71
1
72
1
1
Top View
7
standard
210
0
220
0
230
1
50
0
73
2
44
1
0
MTEXT
5
13A
100
AcDbEntity
8
Text
6
ByLayer
62
256
370
-1
100
AcDbMText
10
320
20
-50
30
0
40
4
41
25.2222213742
71
1
72
1
1
Side View
7
standard
210
0
220
0
230
1
50
0
73
2
44
1
0
LINE
5
13B
100
AcDbEntity
8
rotor_shafts
6
ByLayer
62
256
370
-1
100
AcDbLine
10
320
20
-90
11
345.4
21
-90
0
LINE
5
13C
100
AcDbEntity
8
rotor_shafts
6
ByLayer
62
256
370
-1
100
AcDbLine
10
320
20
-90
11
320
21
-64.6
0
LINE
5
13D
100
AcDbEntity
8
rotor_shafts
6
ByLayer
62
256
370
-1
100
AcDbLine
10
345.4
20
-90
11
345.4
21
-64.6
0
LINE
5
13E
100
AcDbEntity
8
rotor_shafts
6
ByLayer
62
256
370
-1
100
AcDbLine
10
320
20
-64.6
11
345.4
21
-64.6
0
DIMENSION
5
13F
100
AcDbEntity
8
measure
6
ByLayer
62
256
370
-1
100
AcDbDimension
10
345.4
20
-130
30
0
11
332.7
21
-125.3125
31
0
70
33
71
5
72
0
3
Standard
53
0
210
0
220
0
230
1
100
AcDbAlignedDimension
13
320
23
-90
33
0
14
345.4
24
-90
34
0
0
DIMENSION
5
140
100
AcDbEntity
8
measure
6
ByLayer
62
256
370
-1
100
AcDbDimension
10
400
20
-64.6
30
0
11
395.3125
21
-77.3
31
0
70
33
71
5
72
0
3
Standard
53
0
210
0
220
0
230
1
100
AcDbAlignedDimension
13
345.4
23
-90
33
0
14
345.4
24
-64.6
34
0
0
DIMENSION
5
141
100
AcDbEntity
8
measure
6
ByLayer
62
256
370
-1
100
AcDbDimension
10
278
20
-70
30
0
11
270.185436963
21
-71.1854369632
31
0
70
33
71
5
3
Standard
53
0
210
0
220
0
230
1
100
AcDbAlignedDimension
13
230
23
-40
33
0
14
239
24
-31
34
0
0
DIMENSION
5
142
100
AcDbEntity
8
measure
6
ByLayer
62
256
370
-1
100
AcDbDimension
10
66.5
20
-236.5
30
0
11
157.685436963
21
-138.685436963
31
0
70
33
71
5
3
Standard
53
0
210
0
220
0
230
1
100
AcDbAlignedDimension
13
239
23
-31
33
0
14
50
24
-220
34
0
0
DIMENSION
5
143
100
AcDbEntity
8
measure
6
ByLayer
62
256
370
-1
100
AcDbDimension
10
184.369027636
20
4.44824942837
30
0
11
84.0459548522
21
-89.7457191863
31
0
70
33
71
5
3
Standard
53
0
210
0
220
0
230
1
100
AcDbAlignedDimension
13
26
23
-226
33
0
14
220
24
-31
34
0
0
ENDBLK
5
99
330
97
100
AcDbEntity
8
0
100
AcDbBlockEnd
0
BLOCK
5
9B
330
9A
100
AcDbEntity
8
0
100
AcDbBlockBegin
2
frame
70
0
10
0
20
0
3
frame
1

0
LWPOLYLINE
5
144
100
AcDbEntity
8
frame
6
ByLayer
62
256
370
-1
100
AcDbPolyline
90
4
70
1
43
0
10
0
20
0
10
160
20
0
10
160
20
-160
10
0
20
-160
0
CIRCLE
5
145
100
AcDbEntity
8
bolts_large
6
ByLayer
62
256
370
-1
100
AcDbCircle
10
10
20
-10
40
2
0
CIRCLE
5
146
100
AcDbEntity
8
bolts_large
6
ByLayer
62
256
370
-1
100
AcDbCircle
10
150
20
-10
40
2
0
CIRCLE
5
147
100
AcDbEntity
8
bolts_large
6
ByLayer
62
256
370
-1
100
AcDbCircle
10
150
20
-150
40
2
0
CIRCLE
5
148
100
AcDbEntity
8
bolts_large
6
ByLayer
62
256
370
-1
100
AcDbCircle
10
10
20
-150
40
2
0
DIMENSION
5
149
100
AcDbEntity
8
measure
6
ByLayer
62
256
370
-1
100
AcDbDimension
10
190
20
-160
30
0
11
185.3125
21
-80
31
0
70
33
71
5
3
Standard
53
0
210
0
220
0
230
1
100
AcDbAlignedDimension
13
160
23
0
33
0
14
160
24
-160
34
0
0
DIMENSION
5
14A
100
AcDbEntity
8
measure
6
ByLayer
62
256
370
-1
100
AcDbDimension
10
160
20
-180
30
0
11
80
21
-175.3125
31
0
70
33
71
5
3
Standard
53
0
210
0
220
0
230
1
100
AcDbAlignedDimension
13
0
23
-160
33
0
14
160
24
-160
34
0
0
DIMENSION
5
14B
100
AcDbEntity
8
measure
6
ByLayer
62
256
370
-1
100
AcDbDimension
10
12
20
-17
30
0
11
10
21
-12.3125
31
0
70
33
71
5
3
Standard
53
0
210
0
220
0
230
1
100
AcDbAlignedDimension
13
8
23
-10
33
0
14
12
24
-10
34
0
0
LWPOLYLINE
5
14C
100
AcDbEntity
8
frame
6
ByLayer
62
256
370
-1
100
AcDbPolyline
90
4
70
1
43
0
10
-180
20
-140
10
-20
20
-140
10
-20
20
-142
10
-180
20
-142
0
DIMENSION
5
14D
100
AcDbEntity
8
measure
6
ByLayer
62
256
370
-1
100
AcDbDimension
10
-20
20
-130
30
0
11
-100
21
-125.3125
31
0
70
33
71
5
3
Standard
53
0
210
0
220
0
230
1
100
AcDbAlignedDimension
13
-180
23
-140
33
0
14
-20
24
-140
34
0
0
DIMENSION
5
14E
100
AcDbEntity
8
measure
6
ByLayer
62
256
370
-1
100
AcDbDimension
10
-190
20
-142
30
0
11
-194.6875
21
-141
31
0
70
33
71
5
3
Standard
53
0
210
0
220
0
230
1
100
AcDbAlignedDimension
13
-180
23
-140
33
0
14
-180
24
-142
34
0
0
DIMENSION
5
14F
100
AcDbEntity
8
measure
6
ByLayer
62
256
370
-1
100
AcDbDimension
10
160
20
8
30
0
11
155
21
12.6875
31
0
70
33
71
5
3
Standard
53
0
210
0
220
0
230
1
100
AcDbAlignedDimension
13
150
23
-10
33
0
14
160
24
-10
34
0
0
DIMENSION
5
150
100
AcDbEntity
8
measure
6
ByLayer
62
256
370
-1
100
AcDbDimension
10
170
20
0
30
0
11
165.3125
21
-5
31
0
70
33
71
5
3
Standard
53
0
210
0
220
0
230
1
100
AcDbAlignedDimension
13
150
23
-10
33
0
14
150
24
0
34
0
0
ENDBLK
5
9C
330
9A
100
AcDbEntity
8
0
100
AcDbBlockEnd
0
BLOCK
5
9E
330
9D
100
AcDbEntity
8
0
100
AcDbBlockBegin
2
Battery
70
0
10
0
20
0
3
Battery
1

0
MTEXT
5
151
100
AcDbEntity
8
Text
6
ByLayer
62
256
370
-1
100
AcDbMText
10
4
20
-15
30
0
40
2
41
23.0555555556
71
1
72
1
1
Battery 5000mAh
7
standard
210
0
220
0
230
1
50
0
73
2
44
1
0
MTEXT
5
152
100
AcDbEntity
8
Text
6
ByLayer
62
256
370
-1
100
AcDbMText
10
4
20
-18
30
0
40
2
41
62.0000018349
71
1
72
1
1
11.1v (125A max continuous draw, 175A burst)
7
standard
210
0
220
0
230
1
50
0
73
2
44
1
0
MTEXT
5
153
100
AcDbEntity
8
Text
6
ByLayer
62
256
370
-1
100
AcDbMText
10
4
20
-22
30
0
40
2
41
16.7777798349
71
1
72
1
1
Mass = 375g
7
standard
210
0
220
0
230
1
50
0
73
2
44
1
0
LWPOLYLINE
5
154
100
AcDbEntity
8
battery
6
ByLayer
62
256
370
-1
100
AcDbPolyline
90
4
70
1
43
0
10
133
20
0
10
0
20
0
10
0
20
-46
10
133
20
-46
0
ENDBLK
5
9F
330
9D
100
AcDbEntity
8
0
100
AcDbBlockEnd
0
BLOCK
5
A1
330
A0
100
AcDbEntity
8
0
100
AcDbBlockBegin
2
Voltage Regulator
70
0
10
0
20
0
3
Voltage Regulator
1

0
LWPOLYLINE
5
155
100
AcDbEntity
8
bbb
6
ByLayer
62
256
370
-1
100
AcDbPolyline
90
4
70
1
43
0
10
0
20
0
10
104
20
0
10
104
20
-53
10
0
20
-53
0
MTEXT
5
156
100
AcDbEntity
8
Text
6
ByLayer
62
256
370
-1
100
AcDbMText
10
3
20
-3
30
0
40
2
41
24.3888888889
71
1
72
1
1
Voltage Regulator
7
standard
210
0
220
0
230
1
50
0
73
2
44
1
0
MTEXT
5
157
100
AcDbEntity
8
Text
6
ByLayer
62
256
370
-1
100
AcDbMText
10
3
20
-6
30
0
40
1
41
67.3055576127
71
1
72
1
3
Analog Control: \Pusing a mini screwdriver to increase or decrease output voltage by adjusting the screw, \Pclockwise to step up voltage and counterclockwise to step down voltage.\PHas very stable output, input range is DC 4~40V and output range is D
3
C 1.25~37V, \Pplease make sure the input voltage should be higher than output voltage at least 1V. \PCan be used for many electronic projects.\PPress the button next to voltmeter to test input voltage or output voltage. \PGreen LED lights on when tes
3
ting output voltage; red LED lights on when testing input voltage.\P\PWith input and output voltage measurement error calibration function; \PWiring terminals require no soldering iron and create convenient usage.\PPress the button for 1 to 4 seconds
1
, \Pvoltmeter would be shut off when releasing your hands; the voltmeter is very accurate.
7
standard
210
0
220
0
230
1
50
0
73
2
44
1
0
ENDBLK
5
A2
330
A0
100
AcDbEntity
8
0
100
AcDbBlockEnd
0
BLOCK
5
A4
330
A3
100
AcDbEntity
8
0
100
AcDbBlockBegin
2
Beaglebone
70
0
10
0
20
0
3
Beaglebone
1

0
MTEXT
5
158
100
AcDbEntity
8
Text
6
ByLayer
62
256
370
-1
100
AcDbMText
10
8
20
-14
30
0
40
2
41
19.0000020571
71
1
72
1
1
Mass = 39.68g
7
standard
210
0
220
0
230
1
50
0
73
2
44
1
0
MTEXT
5
159
100
AcDbEntity
8
Text
6
ByLayer
62
256
370
-1
100
AcDbMText
10
8
20
-10
30
0
40
2
41
32.7222222222
71
1
72
1
1
BeagleBone Black Rev C
7
standard
210
0
220
0
230
1
50
0
73
2
44
1
0
LINE
5
15A
100
AcDbEntity
8
bbb
6
ByLayer
62
256
370
-1
100
AcDbLine
10
0
20
-55
11
90
21
-55
0
LINE
5
15B
100
AcDbEntity
8
bbb
6
ByLayer
62
256
370
-1
100
AcDbLine
10
90
20
-55
11
90
21
0
0
LINE
5
15C
100
AcDbEntity
8
bbb
6
ByLayer
62
256
370
-1
100
AcDbLine
10
90
20
0
11
0
21
0
0
LINE
5
15D
100
AcDbEntity
8
bbb
6
ByLayer
62
256
370
-1
100
AcDbLine
10
0
20
0
11
0
21
-55
0
ENDBLK
5
A5
330
A3
100
AcDbEntity
8
0
100
AcDbBlockEnd
0
BLOCK
5
A7
330
A6
100
AcDbEntity
8
0
100
AcDbBlockBegin
2
Motor
70
0
10
0
20
0
3
Motor
1

0
CIRCLE
5
15E
100
AcDbEntity
8
rotor_blades
6
ByLayer
62
256
370
-1
100
AcDbCircle
10
0
20
0
40
127
0
LINE
5
15F
100
AcDbEntity
8
rotors_duct
6
ByLayer
62
256
370
-1
100
AcDbLine
10
-3
20
132
11
3
21
132
0
LINE
5
160
100
AcDbEntity
8
rotors_duct
6
ByLayer
62
256
370
-1
100
AcDbLine
10
3
20
-132
11
-3
21
-132
0
LINE
5
161
100
AcDbEntity
8
rotors_duct
6
ByLayer
62
256
370
-1
100
AcDbLine
10
132
20
3
11
132
21
-3
0
LINE
5
162
100
AcDbEntity
8
rotors_duct
6
ByLayer
62
256
370
-1
100
AcDbLine
10
-132
20
-3
11
-132
21
3
0
LINE
5
163
100
AcDbEntity
8
rotors_duct
6
ByLayer
62
256
370
-1
100
AcDbLine
10
-270
20
0
11
-270
21
40
0
ARC
5
164
100
AcDbEntity
8
rotors_duct
6
ByLayer
62
256
370
-1
100
AcDbCircle
10
-239.817880795
20
40.7847682119
40
27.1934452697
100
AcDbArc
50
111.989263828
51
181.653712853
0
ARC
5
165
100
AcDbEntity
8
rotors_duct
6
ByLayer
62
256
370
-1
100
AcDbCircle
10
-240.676470588
20
42.1176470588
40
29.3998946636
100
AcDbArc
50
108.489326326
51
184.130538622
0
CIRCLE
5
166
100
AcDbEntity
8
rotors_duct
6
ByLayer
62
256
370
-1
100
AcDbCircle
10
0
20
0
40
152
0
ARC
5
167
100
AcDbEntity
8
rotors_duct
6
ByLayer
62
256
370
-1
100
AcDbCircle
10
-249.75
20
68
40
2.01556443707
100
AcDbArc
50
330.255118703
51
97.1250163489
0
LINE
5
168
100
AcDbEntity
8
rotors_duct
6
ByLayer
62
256
370
-1
100
AcDbLine
10
-250
20
66
11
-248
21
67
0
LINE
5
169
100
AcDbEntity
8
rotors_duct
6
ByLayer
62
256
370
-1
100
AcDbLine
10
-270
20
0
11
-270
21
2
0
DIMENSION
5
16A
100
AcDbEntity
8
rotors_duct
6
ByLayer
62
256
370
-1
100
AcDbDimension
10
-249.999999993
20
90
30
0
11
-325.999999997
21
94.6874999996
31
0
70
33
71
5
3
Standard
53
0
210
0
220
0
230
1
100
AcDbAlignedDimension
13
-402
23
70
33
0
14
-249.999999993
24
70.0000000008
34
0
0
DIMENSION
5
16B
100
AcDbEntity
8
rotors_duct
6
ByLayer
62
256
370
-1
100
AcDbDimension
10
152
20
-190
30
0
11
-2.81346828369e-14
21
-185.3125
31
0
70
33
71
5
3
Standard
53
0
210
0
220
0
230
1
100
AcDbAlignedDimension
13
-152
23
0
33
0
14
152
24
0
34
0
0
LINE
5
16C
100
AcDbEntity
8
rotors_duct
6
ByLayer
62
256
370
-1
100
AcDbLine
10
-267
20
40
11
-267
21
-0
0
DIMENSION
5
16D
100
AcDbEntity
8
rotors_duct
6
ByLayer
62
256
370
-1
100
AcDbDimension
10
-220
20
70
30
0
11
-224.6875
21
35
31
0
70
33
71
5
3
Standard
53
0
210
0
220
0
230
1
100
AcDbAlignedDimension
13
-250
23
0
33
0
14
-250
24
70
34
0
0
DIMENSION
5
16E
100
AcDbEntity
8
rotors_duct
6
ByLayer
62
256
370
-1
100
AcDbDimension
10
-250
20
-10
30
0
11
-260
21
-5.3125
31
0
70
33
71
5
3
Standard
53
0
210
0
220
0
230
1
100
AcDbAlignedDimension
13
-270
23
-0
33
0
14
-250
24
0
34
0
0
LINE
5
16F
100
AcDbEntity
8
rotors_duct
6
ByLayer
62
256
370
-1
100
AcDbLine
10
-534
20
0
11
-534
21
40
0
ARC
5
170
100
AcDbEntity
8
rotors_duct
6
ByLayer
62
256
370
-1
100
AcDbCircle
10
-564.182119205
20
40.7847682119
40
27.1934452697
100
AcDbArc
50
358.346287147
51
68.010736172
0
ARC
5
171
100
AcDbEntity
8
rotors_duct
6
ByLayer
62
256
370
-1
100
AcDbCircle
10
-563.323529412
20
42.1176470588
40
29.3998946636
100
AcDbArc
50
355.869461378
51
71.5106736741
0
ARC
5
172
100
AcDbEntity
8
rotors_duct
6
ByLayer
62
256
370
-1
100
AcDbCircle
10
-554.25
20
68
40
2.01556443707
100
AcDbArc
50
82.8749836511
51
209.744881297
0
LINE
5
173
100
AcDbEntity
8
rotors_duct
6
ByLayer
62
256
370
-1
100
AcDbLine
10
-537
20
40
11
-537
21
0
0
LINE
5
174
100
AcDbEntity
8
rotors_duct
6
ByLayer
62
256
370
-1
100
AcDbLine
10
-556
20
67
11
-554
21
66
0
DIMENSION
5
175
100
AcDbEntity
8
rotors_duct
6
ByLayer
62
256
370
-1
100
AcDbDimension
10
-267
20
-19
30
0
11
-402
21
-14.3125
31
0
70
33
71
5
3
Standard
53
0
210
0
220
0
230
1
100
AcDbAlignedDimension
13
-537
23
0
33
0
14
-267
24
-0
34
0
0
DIMENSION
5
176
100
AcDbEntity
8
rotors_duct
6
ByLayer
62
256
370
-1
100
AcDbDimension
10
-554.000000349
20
120.000000006
30
0
11
-402.00000017
21
124.687499984
31
0
70
33
71
5
3
Standard
53
0
210
0
220
0
230
1
100
AcDbAlignedDimension
13
-250
23
70
33
0
14
-554.000000357
24
70.0000000446
34
0
0
LINE
5
177
100
AcDbEntity
8
rotors_duct
6
ByLayer
62
256
370
-1
100
AcDbLine
10
3
20
132
11
3
21
21
0
LINE
5
178
100
AcDbEntity
8
rotors_duct
6
ByLayer
62
256
370
-1
100
AcDbLine
10
21
20
3
11
132
21
3
0
LINE
5
179
100
AcDbEntity
8
rotors_duct
6
ByLayer
62
256
370
-1
100
AcDbLine
10
132
20
-3
11
15
21
-3
0
LINE
5
17A
100
AcDbEntity
8
rotors_duct
6
ByLayer
62
256
370
-1
100
AcDbLine
10
-3
20
15
11
-3
21
132
0
CIRCLE
5
17B
100
AcDbEntity
8
rotors_duct
6
ByLayer
62
256
370
-1
100
AcDbCircle
10
0
20
0
40
132
0
DIMENSION
5
17C
100
AcDbEntity
8
rotors_duct
6
ByLayer
62
256
370
-1
100
AcDbDimension
10
85.5
20
67.5
30
0
11
79.8145630368
21
79.8145630368
31
0
70
33
71
5
3
Standard
53
0
210
0
220
0
230
1
100
AcDbAlignedDimension
13
62
23
80
33
0
14
80
24
62
34
0
0
LINE
5
17D
100
AcDbEntity
8
rotors_duct
6
ByLayer
62
256
370
-1
100
AcDbLine
10
-414.73
20
25
11
-389.27
21
25
0
LINE
5
17E
100
AcDbEntity
8
rotors_duct
6
ByLayer
62
256
370
-1
100
AcDbLine
10
-389.27
20
25
11
-389.27
21
2
0
LINE
5
17F
100
AcDbEntity
8
rotors_duct
6
ByLayer
62
256
370
-1
100
AcDbLine
10
-414.73
20
25
11
-414.73
21
2
0
LINE
5
180
100
AcDbEntity
8
rotors_duct
6
ByLayer
62
256
370
-1
100
AcDbLine
10
-416
20
2
11
-416
21
26
0
LINE
5
181
100
AcDbEntity
8
rotors_duct
6
ByLayer
62
256
370
-1
100
AcDbLine
10
-388
20
26
11
-388
21
2
0
DIMENSION
5
182
100
AcDbEntity
8
rotors_duct
6
ByLayer
62
256
370
-1
100
AcDbDimension
10
-389.276214308
20
12.9905001897
30
0
11
-402.002061825
21
17.6892753928
31
0
70
33
71
5
3
Standard
53
0
210
0
220
0
230
1
100
AcDbAlignedDimension
13
-414.73
23
20.028027189
33
0
14
-389.27
24
20.0054731044
34
0
0
DIMENSION
5
183
100
AcDbEntity
8
rotors_duct
6
ByLayer
62
256
370
-1
100
AcDbDimension
10
-416
20
32
30
0
11
-402
21
36.6875
31
0
70
33
71
5
3
Standard
53
0
210
0
220
0
230
1
100
AcDbAlignedDimension
13
-388
23
25.9349948259
33
0
14
-416
24
25.9349948259
34
0
0
LINE
5
184
100
AcDbEntity
8
rotors_duct
6
ByLayer
62
256
370
-1
100
AcDbLine
10
-414.73
20
2
11
-414.73
21
0
0
LINE
5
185
100
AcDbEntity
8
rotors_duct
6
ByLayer
62
256
370
-1
100
AcDbLine
10
-389.27
20
2.03528060083
11
-389.272675484
21
0
0
LINE
5
186
100
AcDbEntity
8
rotors_duct
6
ByLayer
62
256
370
-1
100
AcDbLine
10
-537
20
0
11
-414.73
21
0
0
LINE
5
187
100
AcDbEntity
8
rotors_duct
6
ByLayer
62
256
370
-1
100
AcDbLine
10
-414.73
20
2
11
-534
21
2
0
LINE
5
188
100
AcDbEntity
8
rotors_duct
6
ByLayer
62
256
370
-1
100
AcDbLine
10
-267
20
-0
11
-389.272675484
21
-0
0
LINE
5
189
100
AcDbEntity
8
rotors_duct
6
ByLayer
62
256
370
-1
100
AcDbLine
10
-389.270046378
20
2
11
-270
21
2
0
LINE
5
18A
100
AcDbEntity
8
rotors_duct
6
ByLayer
62
256
370
-1
100
AcDbLine
10
14.6124860802
20
-3.38751391984
11
101.903175403
21
83.9031754032
0
LINE
5
18B
100
AcDbEntity
8
rotors_duct
6
ByLayer
62
256
370
-1
100
AcDbLine
10
-388
20
24
11
-270
21
24
0
LINE
5
18C
100
AcDbEntity
8
rotors_duct
6
ByLayer
62
256
370
-1
100
AcDbLine
10
-416
20
24
11
-534
21
24
0
CIRCLE
5
18D
100
AcDbEntity
8
rotors_duct
6
ByLayer
62
256
370
-1
100
AcDbCircle
10
0
20
0
40
15.0332963784
0
CIRCLE
5
18E
100
AcDbEntity
8
rotors_duct
6
ByLayer
62
256
370
-1
100
AcDbCircle
10
0
20
0
40
13.6014705087
0
LINE
5
18F
100
AcDbEntity
8
rotors_duct
6
ByLayer
62
256
370
-1
100
AcDbLine
10
-14.7309198627
20
-3
11
-132
21
-3
0
LINE
5
190
100
AcDbEntity
8
rotors_duct
6
ByLayer
62
256
370
-1
100
AcDbLine
10
-132
20
3
11
-14.7309198627
21
3
0
LINE
5
191
100
AcDbEntity
8
rotors_duct
6
ByLayer
62
256
370
-1
100
AcDbLine
10
-11.5830052443
20
9.58300524426
11
-94.3327380933
21
92.3327380933
0
LINE
5
192
100
AcDbEntity
8
rotors_duct
6
ByLayer
62
256
370
-1
100
AcDbLine
10
-92.3327380933
20
94.3327380933
11
-9.58300524426
21
11.5830052443
0
LINE
5
193
100
AcDbEntity
8
rotors_duct
6
ByLayer
62
256
370
-1
100
AcDbLine
10
11.5830052443
20
-9.58300524426
11
94.3327380933
21
-92.3327380933
0
LINE
5
194
100
AcDbEntity
8
rotors_duct
6
ByLayer
62
256
370
-1
100
AcDbLine
10
92.3327380933
20
-94.3327380933
11
9.58300524426
21
-11.5830052443
0
LINE
5
195
100
AcDbEntity
8
rotors_duct
6
ByLayer
62
256
370
-1
100
AcDbLine
10
3
20
-14.7309198627
11
3
21
-132
0
LINE
5
196
100
AcDbEntity
8
rotors_duct
6
ByLayer
62
256
370
-1
100
AcDbLine
10
-3
20
-132
11
-3
21
-14.7309198627
0
LINE
5
197
100
AcDbEntity
8
rotors_duct
6
ByLayer
62
256
370
-1
100
AcDbLine
10
-9.58300524426
20
-11.5830052443
11
-92.3327380933
21
-94.3327380933
0
LINE
5
198
100
AcDbEntity
8
rotors_duct
6
ByLayer
62
256
370
-1
100
AcDbLine
10
-94.3327380933
20
-92.3327380933
11
-11.5830052443
21
-9.58300524426
0
LINE
5
199
100
AcDbEntity
8
rotors_duct
6
ByLayer
62
256
370
-1
100
AcDbLine
10
-3.34314575051
20
14.6568542495
11
83.9031754032
21
101.903175403
0
LINE
5
19A
100
AcDbEntity
8
rotors_duct
6
ByLayer
62
256
370
-1
100
AcDbLine
10
-416
20
25.9811903683
11
-416
21
27
0
LINE
5
19B
100
AcDbEntity
8
rotors_duct
6
ByLayer
62
256
370
-1
100
AcDbLine
10
-416
20
27
11
-388
21
27
0
LINE
5
19C
100
AcDbEntity
8
rotors_duct
6
ByLayer
62
256
370
-1
100
AcDbLine
10
-388
20
27
11
-388
21
26
0
DIMENSION
5
19D
100
AcDbEntity
8
rotors_duct
6
ByLayer
62
256
370
-1
100
AcDbDimension
10
-369
20
27
30
0
11
-373.6875
21
14.5
31
0
70
33
71
5
3
Standard
53
0
210
0
220
0
230
1
100
AcDbAlignedDimension
13
-383
23
2
33
0
14
-383
24
27
34
0
0
DIMENSION
5
19E
100
AcDbEntity
8
rotors_duct
6
ByLayer
62
256
370
-1
100
AcDbDimension
10
-442
20
2
30
0
11
-446.6875
21
13.5
31
0
70
33
71
5
3
Standard
53
0
210
0
220
0
230
1
100
AcDbAlignedDimension
13
-417
23
25
33
0
14
-417
24
2
34
0
0
DIMENSION
5
19F
100
AcDbEntity
8
rotors_duct
6
ByLayer
62
256
370
-1
100
AcDbDimension
10
-463
20
2
30
0
11
-467.6875
21
13
31
0
70
33
71
5
3
Standard
53
0
210
0
220
0
230
1
100
AcDbAlignedDimension
13
-486
23
24
33
0
14
-486
24
2
34
0
0
LINE
5
1A0
100
AcDbEntity
8
rotors_duct
6
DOT2
62
256
370
-1
100
AcDbLine
10
-132
20
0
11
-15
21
0
0
LINE
5
1A1
100
AcDbEntity
8
rotors_duct
6
DOT2
62
256
370
-1
100
AcDbLine
10
-93
20
93
11
-11
21
11
0
LINE
5
1A2
100
AcDbEntity
8
rotors_duct
6
DOT2
62
256
370
-1
100
AcDbLine
10
18
20
0
11
132
21
0
0
LINE
5
1A3
100
AcDbEntity
8
rotors_duct
6
DOT2
62
256
370
-1
100
AcDbLine
10
0
20
18
11
0
21
132
0
LINE
5
1A4
100
AcDbEntity
8
rotors_duct
6
DOT2
62
256
370
-1
100
AcDbLine
10
-11
20
-11
11
-93
21
-93
0
LINE
5
1A5
100
AcDbEntity
8
rotors_duct
6
DOT2
62
256
370
-1
100
AcDbLine
10
0
20
-15
11
0
21
-132
0
LINE
5
1A6
100
AcDbEntity
8
rotors_duct
6
DOT2
62
256
370
-1
100
AcDbLine
10
93
20
-93
11
11
21
-11
0
ENDBLK
5
A8
330
A6
100
AcDbEntity
8
0
100
AcDbBlockEnd
0
BLOCK
5
AA
330
A9
100
AcDbEntity
8
0
100
AcDbBlockBegin
2
PD Block
70
0
10
0
20
0
3
PD Block
1

0
LINE
5
1A7
100
AcDbEntity
8
battery
6
ByLayer
62
256
370
-1
100
AcDbLine
10
0
20
0
11
30
21
0
0
LINE
5
1A8
100
AcDbEntity
8
battery
6
ByLayer
62
256
370
-1
100
AcDbLine
10
30
20
0
11
30
21
-30
0
LINE
5
1A9
100
AcDbEntity
8
battery
6
ByLayer
62
256
370
-1
100
AcDbLine
10
30
20
-30
11
0
21
-30
0
LINE
5
1AA
100
AcDbEntity
8
battery
6
ByLayer
62
256
370
-1
100
AcDbLine
10
0
20
-30
11
0
21
0
0
MTEXT
5
1AB
100
AcDbEntity
8
Text
6
ByLayer
62
256
370
-1
100
AcDbMText
10
3
20
-2
30
0
40
2
41
33.8888899175
71
1
72
1
1
Power Distribution Board
7
standard
210
0
220
0
230
1
50
0
73
2
44
1
0
ENDBLK
5
AB
330
A9
100
AcDbEntity
8
0
100
AcDbBlockEnd
0
ENDSEC
0
SECTION
2
ENTITIES
0
CIRCLE
5
1AC
100
AcDbEntity
8
bolts
6
ByLayer
62
256
370
-1
100
AcDbCircle
10
-190
20
-200
40
1.5
0
CIRCLE
5
1AD
100
AcDbEntity
8
bolts
6
ByLayer
62
256
370
-1
100
AcDbCircle
10
-200
20
-190
40
1.5
0
CIRCLE
5
1AE
100
AcDbEntity
8
bolts
6
ByLayer
62
256
370
-1
100
AcDbCircle
10
-210
20
-200
40
1.5
0
CIRCLE
5
1AF
100
AcDbEntity
8
bolts
6
ByLayer
62
256
370
-1
100
AcDbCircle
10
-200
20
-210
40
1.5
0
CIRCLE
5
1B0
100
AcDbEntity
8
rotor_blades
6
ByLayer
62
256
370
-1
100
AcDbCircle
10
200
20
-200
40
127
0
CIRCLE
5
1B1
100
AcDbEntity
8
bolts
6
ByLayer
62
256
370
-1
100
AcDbCircle
10
200
20
-190
40
1.5
0
CIRCLE
5
1B2
100
AcDbEntity
8
bolts
6
ByLayer
62
256
370
-1
100
AcDbCircle
10
190
20
-200
40
1.5
0
CIRCLE
5
1B3
100
AcDbEntity
8
bolts
6
ByLayer
62
256
370
-1
100
AcDbCircle
10
200
20
-210
40
1.5
0
CIRCLE
5
1B4
100
AcDbEntity
8
bolts
6
ByLayer
62
256
370
-1
100
AcDbCircle
10
210
20
-200
40
1.5
0
CIRCLE
5
1B5
100
AcDbEntity
8
rotor_blades
6
ByLayer
62
256
370
-1
100
AcDbCircle
10
200
20
200
40
127
0
CIRCLE
5
1B6
100
AcDbEntity
8
bolts
6
ByLayer
62
256
370
-1
100
AcDbCircle
10
190
20
200
40
1.5
0
CIRCLE
5
1B7
100
AcDbEntity
8
bolts
6
ByLayer
62
256
370
-1
100
AcDbCircle
10
200
20
190
40
1.5
0
CIRCLE
5
1B8
100
AcDbEntity
8
bolts
6
ByLayer
62
256
370
-1
100
AcDbCircle
10
210
20
200
40
1.5
0
CIRCLE
5
1B9
100
AcDbEntity
8
bolts
6
ByLayer
62
256
370
-1
100
AcDbCircle
10
200
20
210
40
1.5
0
CIRCLE
5
1BA
100
AcDbEntity
8
rotor_blades
6
ByLayer
62
256
370
-1
100
AcDbCircle
10
-200
20
200
40
127
0
CIRCLE
5
1BB
100
AcDbEntity
8
bolts
6
ByLayer
62
256
370
-1
100
AcDbCircle
10
-200
20
190
40
1.5
0
CIRCLE
5
1BC
100
AcDbEntity
8
bolts
6
ByLayer
62
256
370
-1
100
AcDbCircle
10
-190
20
200
40
1.5
0
CIRCLE
5
1BD
100
AcDbEntity
8
bolts
6
ByLayer
62
256
370
-1
100
AcDbCircle
10
-200
20
210
40
1.5
0
CIRCLE
5
1BE
100
AcDbEntity
8
bolts
6
ByLayer
62
256
370
-1
100
AcDbCircle
10
-210
20
200
40
1.5
0
LWPOLYLINE
5
1BF
100
AcDbEntity
8
frame
6
ByLayer
62
256
370
-1
100
AcDbPolyline
90
4
70
1
43
0
10
-80
20
80
10
80
20
80
10
80
20
-80
10
-80
20
-80
0
CIRCLE
5
1C0
100
AcDbEntity
8
rotors
6
ByLayer
62
256
370
-1
100
AcDbCircle
10
200
20
200
40
13.75
0
CIRCLE
5
1C1
100
AcDbEntity
8
rotors
6
ByLayer
62
256
370
-1
100
AcDbCircle
10
-200
20
200
40
13.75
0
CIRCLE
5
1C2
100
AcDbEntity
8
rotors
6
ByLayer
62
256
370
-1
100
AcDbCircle
10
-200
20
200
40
1.585
0
CIRCLE
5
1C3
100
AcDbEntity
8
rotors
6
ByLayer
62
256
370
-1
100
AcDbCircle
10
200
20
200
40
1.585
0
CIRCLE
5
1C4
100
AcDbEntity
8
rotors
6
ByLayer
62
256
370
-1
100
AcDbCircle
10
200
20
-200
40
1.585
0
CIRCLE
5
1C5
100
AcDbEntity
8
rotors
6
ByLayer
62
256
370
-1
100
AcDbCircle
10
-200
20
-200
40
1.585
0
CIRCLE
5
1C6
100
AcDbEntity
8
rotors
6
ByLayer
62
256
370
-1
100
AcDbCircle
10
200
20
-200
40
13.75
0
DIMENSION
5
1C7
100
AcDbEntity
8
measure
6
ByLayer
62
256
370
-1
100
AcDbDimension
2
*D1
10
-222
20
185
30
0
11
-226.6875
21
200
31
0
70
32
71
5
72
0
3
Standard
53
0
210
0
220
0
230
1
100
AcDbAlignedDimension
13
-200
23
215
33
0
14
-200
24
185
34
0
50
90
100
AcDbRotatedDimension
0
DIMENSION
5
1C8
100
AcDbEntity
8
measure
6
ByLayer
62
256
370
-1
100
AcDbDimension
2
*D2
10
-185
20
230
30
0
11
-200
21
234.6875
31
0
70
32
71
5
72
0
3
Standard
53
0
210
0
220
0
230
1
100
AcDbAlignedDimension
13
-215
23
200
33
0
14
-185
24
200
34
0
100
AcDbRotatedDimension
0
DIMENSION
5
1C9
100
AcDbEntity
8
measure
6
ByLayer
62
256
370
-1
100
AcDbDimension
2
*D3
10
80
20
-120
30
0
11
-2.81346828369e-14
21
-115.3125
31
0
70
33
71
5
72
0
3
Standard
53
0
210
0
220
0
230
1
100
AcDbAlignedDimension
13
-80
23
0
33
0
14
80
24
0
34
0
0
DIMENSION
5
1CA
100
AcDbEntity
8
measure
6
ByLayer
62
256
370
-1
100
AcDbDimension
2
*D4
10
-130
20
-80
30
0
11
-134.6875
21
5.740531871e-16
31
0
70
33
71
5
72
0
3
Standard
53
0
210
0
220
0
230
1
100
AcDbAlignedDimension
13
-80
23
80
33
0
14
-80
24
-80
34
0
0
DIMENSION
5
1CB
100
AcDbEntity
8
measure
6
ByLayer
62
256
370
-1
100
AcDbDimension
2
*D5
10
-213.75
20
200
30
0
11
-200
21
204.6875
31
0
70
35
71
5
72
0
3
Standard
53
0
210
0
220
0
230
1
100
AcDbDiametricDimension
15
-186.25
25
200
35
0
40
0
0
DIMENSION
5
1CC
100
AcDbEntity
8
measure
6
ByLayer
62
256
370
-1
100
AcDbDimension
2
*D6
10
198.5
20
-210
30
0
11
200
21
-205.3125
31
0
70
35
71
5
72
0
3
Standard
53
0
210
0
220
0
230
1
100
AcDbDiametricDimension
15
201.5
25
-210
35
0
40
0
0
DIMENSION
5
1CD
100
AcDbEntity
8
measure
6
ByLayer
62
256
370
-1
100
AcDbDimension
2
*D7
10
327
20
-340
30
0
11
200
21
-335.3125
31
0
70
33
71
5
72
0
3
Standard
53
0
210
0
220
0
230
1
100
AcDbAlignedDimension
13
73
23
-200
33
0
14
327
24
-200
34
0
0
DIMENSION
5
1CE
100
AcDbEntity
8
measure
6
ByLayer
62
256
370
-1
100
AcDbDimension
2
*D8
10
120
20
300
30
0
11
11.6854369632
21
198.314563037
31
0
70
33
71
5
72
0
3
Standard
53
0
210
0
220
0
230
1
100
AcDbAlignedDimension
13
0
23
0
33
0
14
210
24
210
34
0
0
MTEXT
5
1CF
100
AcDbEntity
8
Text
6
ByLayer
62
256
370
-1
100
AcDbMText
10
0.111111111111
20
-62
30
0
40
2
41
35.5555584191
71
1
72
1
1
Mass = 69.12g (Per sheet)
7
standard
210
0
220
0
230
1
50
0
73
2
44
1
0
MTEXT
5
1D0
100
AcDbEntity
8
Text
6
ByLayer
62
256
370
-1
100
AcDbMText
10
0.111111111111
20
-65
30
0
40
2
41
30.0555565841
71
1
72
1
1
Density = 2.70 g/cm^3
7
standard
210
0
220
0
230
1
50
0
73
2
44
1
0
MTEXT
5
1D1
100
AcDbEntity
8
Text
6
ByLayer
62
256
370
-1
100
AcDbMText
10
-190
20
222
30
0
40
2
41
21.9444475302
71
1
72
1
1
Brushless Motor
7
standard
210
0
220
0
230
1
50
0
73
2
44
1
0
MTEXT
5
1D2
100
AcDbEntity
8
Text
6
ByLayer
62
256
370
-1
100
AcDbMText
10
-190
20
219
30
0
40
2
41
15.2222242794
71
1
72
1
1
Mass = 50g
7
standard
210
0
220
0
230
1
50
0
73
2
44
1
0
MTEXT
5
1D3
100
AcDbEntity
8
Text
6
ByLayer
62
256
370
-1
100
AcDbMText
10
240
20
-240
30
0
40
2
41
28.1111111111
71
1
72
1
1
1045 Propeller Blade
7
standard
210
0
220
0
230
1
50
0
73
2
44
1
0
MTEXT
5
1D4
100
AcDbEntity
8
Text
6
ByLayer
62
256
370
-1
100
AcDbMText
10
240
20
-243
30
0
40
2
41
15.888890946
71
1
72
1
1
Mass = 7.5g
7
standard
210
0
220
0
230
1
50
0
73
2
44
1
0
MTEXT
5
1D5
100
AcDbEntity
8
Text
6
ByLayer
62
256
370
-1
100
AcDbMText
10
-270
20
170
30
0
40
2
41
71.4444465016
71
1
72
1
1
Total Approximate Mass Before Battery = 927.028g
7
standard
210
0
220
0
230
1
50
0
73
2
44
1
0
MTEXT
5
1D6
100
AcDbEntity
8
Text
6
ByLayer
62
256
370
-1
100
AcDbMText
10
-190
20
225
30
0
40
2
41
7.11111111111
71
1
72
1
1
A2212
7
standard
210
0
220
0
230
1
50
0
73
2
44
1
0
MTEXT
5
1D7
100
AcDbEntity
8
Text
6
ByLayer
62
256
370
-1
100
AcDbMText
10
-269.777778806
20
167
30
0
40
2
41
92.888890946
71
1
72
1
1
Thrust = 1.73kg per rotor, with 11.1v battery spinning at 11100RPM.
7
standard
210
0
220
0
230
1
50
0
73
2
44
1
0
MTEXT
5
1D8
100
AcDbEntity
8
Text
6
ByLayer
62
256
370
-1
100
AcDbMText
10
-269.333333333
20
164
30
0
40
2
41
42.0555555556
71
1
72
1
1
Current Draw = 29.279279279A
7
standard
210
0
220
0
230
1
50
0
73
2
44
1
0
LINE
5
1D9
100
AcDbEntity
8
ESC
6
ByLayer
62
256
370
-1
100
AcDbLine
10
-118.697438789
20
101.697438789
11
-101.697438789
21
118.697438789
0
LINE
5
1DA
100
AcDbEntity
8
ESC
6
ByLayer
62
256
370
-1
100
AcDbLine
10
-101.697438789
20
118.697438789
11
-69.6974387893
21
86.6974387893
0
LINE
5
1DB
100
AcDbEntity
8
ESC
6
ByLayer
62
256
370
-1
100
AcDbLine
10
-69.6974387893
20
86.6974387893
11
-86.6974387893
21
69.6974387893
0
MTEXT
5
1DC
100
AcDbEntity
8
Text
6
ByLayer
62
256
370
-1
100
AcDbMText
10
-108.697438789
20
108.697438789
30
0
40
2
41
4.22222179822
71
1
72
1
1
ESC
7
standard
210
0
220
0
230
1
50
0
73
2
44
1
0
MTEXT
5
1DD
100
AcDbEntity
8
Text
6
ByLayer
62
256
370
-1
100
AcDbMText
10
-108.697438789
20
105.697438789
30
0
40
2
41
15.2222242794
71
1
72
1
1
Mass = 25g
7
standard
210
0
220
0
230
1
50
0
73
2
44
1
0
LINE
5
1DE
100
AcDbEntity
8
ESC
6
ByLayer
62
256
370
-1
100
AcDbLine
10
-86.6974387893
20
69.6974387893
11
-118.697438789
21
101.697438789
0
LINE
5
1DF
100
AcDbEntity
8
ESC
6
ByLayer
62
256
370
-1
100
AcDbLine
10
-101.697438789
20
-118.697438789
11
-118.697438789
21
-101.697438789
0
LINE
5
1E0
100
AcDbEntity
8
ESC
6
ByLayer
62
256
370
-1
100
AcDbLine
10
-118.697438789
20
-101.697438789
11
-86.6974387893
21
-69.6974387893
0
LINE
5
1E1
100
AcDbEntity
8
ESC
6
ByLayer
62
256
370
-1
100
AcDbLine
10
-86.6974387893
20
-69.6974387893
11
-69.6974387893
21
-86.6974387893
0
LINE
5
1E2
100
AcDbEntity
8
ESC
6
ByLayer
62
256
370
-1
100
AcDbLine
10
-69.6974387893
20
-86.6974387893
11
-101.697438789
21
-118.697438789
0
LINE
5
1E3
100
AcDbEntity
8
ESC
6
ByLayer
62
256
370
-1
100
AcDbLine
10
118.697438789
20
-101.697438789
11
101.697438789
21
-118.697438789
0
LINE
5
1E4
100
AcDbEntity
8
ESC
6
ByLayer
62
256
370
-1
100
AcDbLine
10
101.697438789
20
-118.697438789
11
69.6974387893
21
-86.6974387893
0
LINE
5
1E5
100
AcDbEntity
8
ESC
6
ByLayer
62
256
370
-1
100
AcDbLine
10
69.6974387893
20
-86.6974387893
11
86.6974387893
21
-69.6974387893
0
LINE
5
1E6
100
AcDbEntity
8
ESC
6
ByLayer
62
256
370
-1
100
AcDbLine
10
86.6974387893
20
-69.6974387893
11
118.697438789
21
-101.697438789
0
LINE
5
1E7
100
AcDbEntity
8
ESC
6
ByLayer
62
256
370
-1
100
AcDbLine
10
101.697438789
20
118.697438789
11
118.697438789
21
101.697438789
0
LINE
5
1E8
100
AcDbEntity
8
ESC
6
ByLayer
62
256
370
-1
100
AcDbLine
10
118.697438789
20
101.697438789
11
86.6974387893
21
69.6974387893
0
LINE
5
1E9
100
AcDbEntity
8
ESC
6
ByLayer
62
256
370
-1
100
AcDbLine
10
86.6974387893
20
69.6974387893
11
69.6974387893
21
86.6974387893
0
LINE
5
1EA
100
AcDbEntity
8
ESC
6
ByLayer
62
256
370
-1
100
AcDbLine
10
69.6974387893
20
86.6974387893
11
101.697438789
21
118.697438789
0
MTEXT
5
1EB
100
AcDbEntity
8
Text
6
ByLayer
62
256
370
-1
100
AcDbMText
10
115
20
125
30
0
40
2
41
20.7777798349
71
1
72
1
1
Mass = 87.497g
7
standard
210
0
220
0
230
1
50
0
73
2
44
1
0
MTEXT
5
1EC
100
AcDbEntity
8
Text
6
ByLayer
62
256
370
-1
100
AcDbMText
10
104.833333757
20
129
30
0
40
2
41
51.0555551316
71
1
72
1
1
Aluminum Square Tubing - 2mm Thick
7
standard
210
0
220
0
230
1
50
0
73
2
44
1
0
MTEXT
5
1ED
100
AcDbEntity
8
Text
6
ByLayer
62
256
370
-1
100
AcDbMText
10
-270
20
160
30
0
40
2
41
30.9444465016
71
1
72
1
1
Total Mass = 1311.028g
7
standard
210
0
220
0
230
1
50
0
73
2
44
1
0
MTEXT
5
1EE
100
AcDbEntity
8
Text
6
ByLayer
62
256
370
-1
100
AcDbMText
10
-270
20
156
30
0
40
2
41
36.0555555556
71
1
72
1
1
Lift capability = 5608.972g
7
standard
210
0
220
0
230
1
50
0
73
2
44
1
0
MTEXT
5
1EF
100
AcDbEntity
8
Text
6
ByLayer
62
256
370
-1
100
AcDbMText
10
-269.444444444
20
152
30
0
40
2
41
45.7222232508
71
1
72
1
1
With Air density = 1.2928 kg/m^3
7
standard
210
0
220
0
230
1
50
0
73
2
44
1
0
MTEXT
5
1F0
100
AcDbEntity
8
Text
6
ByLayer
62
256
370
-1
100
AcDbMText
10
0
20
-58
30
0
40
2
41
21.0555555556
71
1
72
1
1
Aluminum Frame
7
standard
210
0
220
0
230
1
50
0
73
2
44
1
0
DIMENSION
5
1F1
100
AcDbEntity
8
measure
6
ByLayer
62
256
370
-1
100
AcDbDimension
2
*D9
10
255
20
145
30
0
11
51.6854369632
21
-51.6854369632
31
0
70
33
71
5
72
0
3
Standard
53
0
210
0
220
0
230
1
100
AcDbAlignedDimension
13
-200
23
-200
33
0
14
200
24
200
34
0
0
DIMENSION
5
1F2
100
AcDbEntity
8
measure
6
ByLayer
62
256
370
-1
100
AcDbDimension
2
*D10
10
-105
20
122
30
0
11
-116.814563037
21
116.814563037
31
0
70
33
71
5
72
0
3
Standard
53
0
210
0
220
0
230
1
100
AcDbAlignedDimension
13
-117
23
100
33
0
14
-100
24
117
34
0
0
DIMENSION
5
1F3
100
AcDbEntity
8
measure
6
ByLayer
62
256
370
-1
100
AcDbDimension
2
*D11
10
-85.5
20
135.5
30
0
11
-66.1854369632
21
122.814563037
31
0
70
33
71
5
72
0
3
Standard
53
0
210
0
220
0
230
1
100
AcDbAlignedDimension
13
-70
23
87
33
0
14
-102
24
119
34
0
0
MTEXT
5
1F4
100
AcDbEntity
8
misc_text
6
ByLayer
62
256
370
-1
100
AcDbMText
10
-200
20
300
30
0
40
1
41
84.8611146
71
1
72
1
3
Specifications:\P\PA2212 1000KV Brushless Motor:\PModel: A2212\PKV: 1000\PMAX Efficiency: 80%\PMAX Efficiency Current: 4-10A (>75%)\PCurrent Capacity: 12A / 60s\PNo Load Current: 10 V : 0.5 A-Apply to the ESC: 30A.\PApply to the Lipo: 2 - 3S.\PApply 
3
to the NiCD / NiMH: 6 - 9S.\PMotor Dimension: 27.5 x 27mm\PShaft Diameter: 3.17mm\PWeight: 50g approx\P30A Brushless ESC:\POutput: Continuous 30A, burst 40A up to 10 Seconds.\PInput voltage: 2-4 cells Li-poly battery or 5-12 cells NiCd/NIMh battery\P
3
BEC: 2A / 5V (Linear mode).\PMax speed: 210,000rpm for 2 poles BLM, 70,000rpm for 6 poles BLM, 35,000rpm for 12 poles BLM. (BLM: Brushless Motor)\PSize: 45 * 24 * 11mm / 1.8 * 0.9 * 0.4in\PWeight: 25g / 0.9oz\P1045 Propellers:\PDiameter of Shaft: 6.0
3
mm\PAdjustable by hole adapter (3mm, 3.2mm, 4mm, 5mm, 6mm, 6.35mm, 7.95mm)\PThickness of center: 9.7mm\PWeight: 15 gram/ pair\PRecommended wheelbase: 550mm - 700mm\P\PPackage Includes: \P\P1x A2212 13T 1000KV Brushless Motor\P1x Motor sets\P1x 30A ES
1
C\P1x 1045 Propeller 
7
standard
210
0
220
0
230
1
50
0
73
2
44
1
0
CIRCLE
5
1F5
100
AcDbEntity
8
bolts_large
6
ByLayer
62
256
370
-1
100
AcDbCircle
10
-70
20
70
40
2
0
CIRCLE
5
1F6
100
AcDbEntity
8
bolts_large
6
ByLayer
62
256
370
-1
100
AcDbCircle
10
70
20
70
40
2
0
CIRCLE
5
1F7
100
AcDbEntity
8
bolts_large
6
ByLayer
62
256
370
-1
100
AcDbCircle
10
70
20
-70
40
2
0
CIRCLE
5
1F8
100
AcDbEntity
8
bolts_large
6
ByLayer
62
256
370
-1
100
AcDbCircle
10
-70
20
-70
40
2
0
MTEXT
5
1F9
100
AcDbEntity
8
Text
6
ByLayer
62
256
370
-1
100
AcDbMText
10
-77
20
77
30
0
40
2
41
2
71
1
72
1
1
L1
7
standard
210
0
220
0
230
1
50
0
73
2
44
1
0
LINE
5
1FA
100
AcDbEntity
8
center
6
ByLayer
62
256
370
-1
100
AcDbLine
10
-5000
20
80
11
5000
21
80
0
LINE
5
1FB
100
AcDbEntity
8
center
6
ByLayer
62
256
370
-1
100
AcDbLine
10
-5000
20
-80
11
5000
21
-80
0
LWPOLYLINE
5
1FC
100
AcDbEntity
8
frame
6
ByLayer
62
256
370
-1
100
AcDbPolyline
90
4
70
1
43
0
10
300
20
80
10
460
20
80
10
460
20
-80
10
300
20
-80
0
MTEXT
5
1FD
100
AcDbEntity
8
Text
6
ByLayer
62
256
370
-1
100
AcDbMText
10
303
20
77
30
0
40
2
41
2.44444444444
71
1
72
1
1
L2
7
standard
210
0
220
0
230
1
50
0
73
2
44
1
0
CIRCLE
5
1FE
100
AcDbEntity
8
bolts_large
6
ByLayer
62
256
370
-1
100
AcDbCircle
10
310
20
70
40
2
0
CIRCLE
5
1FF
100
AcDbEntity
8
bolts_large
6
ByLayer
62
256
370
-1
100
AcDbCircle
10
450
20
70
40
2
0
CIRCLE
5
200
100
AcDbEntity
8
bolts_large
6
ByLayer
62
256
370
-1
100
AcDbCircle
10
450
20
-70
40
2
0
CIRCLE
5
201
100
AcDbEntity
8
bolts_large
6
ByLayer
62
256
370
-1
100
AcDbCircle
10
310
20
-70
40
2
0
LWPOLYLINE
5
202
100
AcDbEntity
8
frame
6
ByLayer
62
256
370
-1
100
AcDbPolyline
90
4
70
1
43
0
10
350
20
-10
10
410
20
-10
10
410
20
-20
10
350
20
-20
0
MTEXT
5
203
100
AcDbEntity
8
Text
6
ByLayer
62
256
370
-1
100
AcDbMText
10
365
20
-28
30
0
40
2
41
17.0555565841
71
1
72
1
1
OLED Display
7
standard
210
0
220
0
230
1
50
0
73
2
44
1
0
LWPOLYLINE
5
204
100
AcDbEntity
8
bbb
6
ByLayer
62
256
370
-1
100
AcDbPolyline
90
4
70
1
43
0
10
363
20
-23
10
398
20
-23
10
398
20
-43
10
363
20
-43
0
CIRCLE
5
205
100
AcDbEntity
8
bolts
6
ByLayer
62
256
370
-1
100
AcDbCircle
10
365
20
-25
40
1
0
CIRCLE
5
206
100
AcDbEntity
8
bolts
6
ByLayer
62
256
370
-1
100
AcDbCircle
10
396
20
-25
40
1
0
CIRCLE
5
207
100
AcDbEntity
8
bolts
6
ByLayer
62
256
370
-1
100
AcDbCircle
10
396
20
-41
40
1
0
CIRCLE
5
208
100
AcDbEntity
8
bolts
6
ByLayer
62
256
370
-1
100
AcDbCircle
10
365
20
-41
40
1
0
LWPOLYLINE
5
209
100
AcDbEntity
8
bbb
6
ByLayer
62
256
370
-1
100
AcDbPolyline
90
4
70
1
43
0
10
370
20
8
10
390
20
8
10
390
20
-8
10
370
20
-8
0
MTEXT
5
20A
100
AcDbEntity
8
Text
6
ByLayer
62
256
370
-1
100
AcDbMText
10
371
20
7
30
0
40
2
41
60.611112098
71
1
72
1
1
MEMS Sensor (3-axis gyro & accelerometer)
7
standard
210
0
220
0
230
1
50
0
73
2
44
1
0
MTEXT
5
20B
100
AcDbEntity
8
Text
6
ByLayer
62
256
370
-1
100
AcDbMText
10
351
20
-11
30
0
40
2
41
29.3333343619
71
1
72
1
1
1x6cm wire slot to L1
7
standard
210
0
220
0
230
1
50
0
73
2
44
1
0
LWPOLYLINE
5
20C
100
AcDbEntity
8
bbb
6
ByLayer
62
256
370
-1
100
AcDbPolyline
90
4
70
1
43
0
10
320
20
-50
10
332
20
-50
10
332
20
-66
10
320
20
-66
0
MTEXT
5
20D
100
AcDbEntity
8
Text
6
ByLayer
62
256
370
-1
100
AcDbMText
10
321
20
-51
30
0
40
2
41
6.88888888889
71
1
72
1
1
DHT11
7
standard
210
0
220
0
230
1
50
0
73
2
44
1
0
LWPOLYLINE
5
20E
100
AcDbEntity
8
bbb
6
ByLayer
62
256
370
-1
100
AcDbPolyline
90
4
70
1
43
0
10
340
20
-50
10
352
20
-50
10
352
20
-66
10
340
20
-66
0
MTEXT
5
20F
100
AcDbEntity
8
Text
6
ByLayer
62
256
370
-1
100
AcDbMText
10
341
20
-51
30
0
40
2
41
6.88888888889
71
1
72
1
1
DHT11
7
standard
210
0
220
0
230
1
50
0
73
2
44
1
0
LINE
5
210
100
AcDbEntity
8
center
6
ByLayer
62
256
370
-1
100
AcDbLine
10
380
20
-4920
11
380
21
5080
0
LWPOLYLINE
5
211
100
AcDbEntity
8
bbb
6
ByLayer
62
256
370
-1
100
AcDbPolyline
90
4
70
1
43
0
10
360
20
-50
10
421
20
-50
10
421
20
-70
10
360
20
-70
0
MTEXT
5
212
100
AcDbEntity
8
Text
6
ByLayer
62
256
370
-1
100
AcDbMText
10
362
20
-52
30
0
40
2
41
15.2777773538
71
1
72
1
1
GPS Module
7
standard
210
0
220
0
230
1
50
0
73
2
44
1
0
LINE
5
213
100
AcDbEntity
8
rotor_shafts
6
ByLayer
62
256
370
-1
100
AcDbLine
10
-191
20
209
11
-1
21
20
0
LINE
5
214
100
AcDbEntity
8
rotor_shafts
6
ByLayer
62
256
370
-1
100
AcDbLine
10
-1
20
20
11
-1
21
1
0
LINE
5
215
100
AcDbEntity
8
rotor_shafts
6
ByLayer
62
256
370
-1
100
AcDbLine
10
-1
20
1
11
-20
21
1
0
LINE
5
216
100
AcDbEntity
8
rotor_shafts
6
ByLayer
62
256
370
-1
100
AcDbLine
10
-20
20
1
11
-209
21
191
0
LINE
5
217
100
AcDbEntity
8
rotor_shafts
6
ByLayer
62
256
370
-1
100
AcDbLine
10
-209
20
191
11
-214
21
196
0
LINE
5
218
100
AcDbEntity
8
rotor_shafts
6
ByLayer
62
256
370
-1
100
AcDbLine
10
-214
20
206
11
-214
21
196
0
LINE
5
219
100
AcDbEntity
8
rotor_shafts
6
ByLayer
62
256
370
-1
100
AcDbLine
10
-191
20
209
11
-196
21
214
0
LINE
5
21A
100
AcDbEntity
8
rotor_shafts
6
ByLayer
62
256
370
-1
100
AcDbLine
10
-206
20
214
11
-214
21
206
0
LINE
5
21B
100
AcDbEntity
8
rotor_shafts
6
ByLayer
62
256
370
-1
100
AcDbLine
10
-196
20
214
11
-206
21
214
0
ARC
5
21C
100
AcDbEntity
8
rotor_shafts
6
ByLayer
62
256
370
-1
100
AcDbCircle
10
-200
20
200
40
14.4222051019
100
AcDbArc
50
254.359666424
51
15.640333576
0
LINE
5
21D
100
AcDbEntity
8
rotor_shafts
6
ByLayer
62
256
370
-1
100
AcDbLine
10
-209
20
-191
11
-20
21
-1
0
LINE
5
21E
100
AcDbEntity
8
rotor_shafts
6
ByLayer
62
256
370
-1
100
AcDbLine
10
-20
20
-1
11
-1
21
-1
0
LINE
5
21F
100
AcDbEntity
8
rotor_shafts
6
ByLayer
62
256
370
-1
100
AcDbLine
10
-1
20
-1
11
-1
21
-20
0
LINE
5
220
100
AcDbEntity
8
rotor_shafts
6
ByLayer
62
256
370
-1
100
AcDbLine
10
-1
20
-20
11
-191
21
-209
0
LINE
5
221
100
AcDbEntity
8
rotor_shafts
6
ByLayer
62
256
370
-1
100
AcDbLine
10
-191
20
-209
11
-196
21
-214
0
LINE
5
222
100
AcDbEntity
8
rotor_shafts
6
ByLayer
62
256
370
-1
100
AcDbLine
10
-206
20
-214
11
-196
21
-214
0
LINE
5
223
100
AcDbEntity
8
rotor_shafts
6
ByLayer
62
256
370
-1
100
AcDbLine
10
-209
20
-191
11
-214
21
-196
0
LINE
5
224
100
AcDbEntity
8
rotor_shafts
6
ByLayer
62
256
370
-1
100
AcDbLine
10
-214
20
-206
11
-206
21
-214
0
LINE
5
225
100
AcDbEntity
8
rotor_shafts
6
ByLayer
62
256
370
-1
100
AcDbLine
10
-214
20
-196
11
-214
21
-206
0
ARC
5
226
100
AcDbEntity
8
rotor_shafts
6
ByLayer
62
256
370
-1
100
AcDbCircle
10
-200
20
-200
40
14.4222051019
100
AcDbArc
50
344.359666424
51
105.640333576
0
LINE
5
227
100
AcDbEntity
8
rotor_shafts
6
ByLayer
62
256
370
-1
100
AcDbLine
10
191
20
-209
11
1
21
-20
0
LINE
5
228
100
AcDbEntity
8
rotor_shafts
6
ByLayer
62
256
370
-1
100
AcDbLine
10
1
20
-20
11
1
21
-1
0
LINE
5
229
100
AcDbEntity
8
rotor_shafts
6
ByLayer
62
256
370
-1
100
AcDbLine
10
1
20
-1
11
20
21
-1
0
LINE
5
22A
100
AcDbEntity
8
rotor_shafts
6
ByLayer
62
256
370
-1
100
AcDbLine
10
20
20
-1
11
209
21
-191
0
LINE
5
22B
100
AcDbEntity
8
rotor_shafts
6
ByLayer
62
256
370
-1
100
AcDbLine
10
209
20
-191
11
214
21
-196
0
LINE
5
22C
100
AcDbEntity
8
rotor_shafts
6
ByLayer
62
256
370
-1
100
AcDbLine
10
214
20
-206
11
214
21
-196
0
LINE
5
22D
100
AcDbEntity
8
rotor_shafts
6
ByLayer
62
256
370
-1
100
AcDbLine
10
191
20
-209
11
196
21
-214
0
LINE
5
22E
100
AcDbEntity
8
rotor_shafts
6
ByLayer
62
256
370
-1
100
AcDbLine
10
206
20
-214
11
214
21
-206
0
LINE
5
22F
100
AcDbEntity
8
rotor_shafts
6
ByLayer
62
256
370
-1
100
AcDbLine
10
196
20
-214
11
206
21
-214
0
ARC
5
230
100
AcDbEntity
8
rotor_shafts
6
ByLayer
62
256
370
-1
100
AcDbCircle
10
200
20
-200
40
14.4222051019
100
AcDbArc
50
74.359666424
51
195.640333576
0
LINE
5
231
100
AcDbEntity
8
rotor_shafts
6
ByLayer
62
256
370
-1
100
AcDbLine
10
209
20
191
11
20
21
1
0
LINE
5
232
100
AcDbEntity
8
rotor_shafts
6
ByLayer
62
256
370
-1
100
AcDbLine
10
20
20
1
11
1
21
1
0
LINE
5
233
100
AcDbEntity
8
rotor_shafts
6
ByLayer
62
256
370
-1
100
AcDbLine
10
1
20
1
11
1
21
20
0
LINE
5
234
100
AcDbEntity
8
rotor_shafts
6
ByLayer
62
256
370
-1
100
AcDbLine
10
1
20
20
11
191
21
209
0
LINE
5
235
100
AcDbEntity
8
rotor_shafts
6
ByLayer
62
256
370
-1
100
AcDbLine
10
191
20
209
11
196
21
214
0
LINE
5
236
100
AcDbEntity
8
rotor_shafts
6
ByLayer
62
256
370
-1
100
AcDbLine
10
206
20
214
11
196
21
214
0
LINE
5
237
100
AcDbEntity
8
rotor_shafts
6
ByLayer
62
256
370
-1
100
AcDbLine
10
209
20
191
11
214
21
196
0
LINE
5
238
100
AcDbEntity
8
rotor_shafts
6
ByLayer
62
256
370
-1
100
AcDbLine
10
214
20
206
11
206
21
214
0
LINE
5
239
100
AcDbEntity
8
rotor_shafts
6
ByLayer
62
256
370
-1
100
AcDbLine
10
214
20
196
11
214
21
206
0
ARC
5
23A
100
AcDbEntity
8
rotor_shafts
6
ByLayer
62
256
370
-1
100
AcDbCircle
10
200
20
200
40
14.4222051019
100
AcDbArc
50
164.359666424
51
285.640333576
0
DIMENSION
5
23B
100
AcDbEntity
8
measure
6
ByLayer
62
256
370
-1
100
AcDbDimension
2
*D12
10
-228.5
20
246.5
30
0
11
-240.814563037
21
240.814563037
31
0
70
33
71
5
3
Standard
53
0
210
0
220
0
230
1
100
AcDbAlignedDimension
13
-204
23
186
33
0
14
-186
24
204
34
0
0
LEADER
5
23C
100
AcDbEntity
8
measure
6
ByLayer
62
256
370
-1
100
AcDbLeader
3
Standard
71
1
72
0
73
3
74
0
75
0
40
1
41
10
76
2
76
2
10
-214
20
-196
30
0
10
-214
20
-155
30
0
0
DIMENSION
5
23D
100
AcDbEntity
8
measure
6
ByLayer
62
256
370
-1
100
AcDbDimension
2
*D14
10
-214
20
-155
30
0
11
0
21
0
31
0
70
34
71
5
3
Standard
53
0
210
0
220
0
230
1
100
AcDb2LineAngularDimension
13
-209
23
-191
33
0
14
-20
24
-1
34
0
15
-214
25
-196
35
0
16
-201
26
-160
36
0
0
INSERT
5
23E
100
AcDbEntity
8
measure
6
ByLayer
62
256
370
-1
100
AcDbBlockReference
2
Shaft
10
490
20
440
30
0
41
1
42
1
43
0
50
0
70
1
71
1
44
0
45
0
0
INSERT
5
23F
100
AcDbEntity
8
measure
6
ByLayer
62
256
370
-1
100
AcDbBlockReference
2
frame
10
720
20
280
30
0
41
1
42
1
43
0
50
0
70
1
71
1
44
0
45
0
0
CIRCLE
5
240
100
AcDbEntity
8
bolts
6
ByLayer
62
256
370
-1
100
AcDbCircle
10
540
20
210
40
1.5
0
CIRCLE
5
241
100
AcDbEntity
8
bolts
6
ByLayer
62
256
370
-1
100
AcDbCircle
10
530
20
220
40
1.5
0
CIRCLE
5
242
100
AcDbEntity
8
bolts
6
ByLayer
62
256
370
-1
100
AcDbCircle
10
520
20
210
40
1.5
0
CIRCLE
5
243
100
AcDbEntity
8
bolts
6
ByLayer
62
256
370
-1
100
AcDbCircle
10
530
20
200
40
1.5
0
CIRCLE
5
244
100
AcDbEntity
8
bolts
6
ByLayer
62
256
370
-1
100
AcDbCircle
10
720
20
400
40
2
0
CIRCLE
5
245
100
AcDbEntity
8
bolts
6
ByLayer
62
256
370
-1
100
AcDbCircle
10
690
20
380
40
2
0
CIRCLE
5
246
100
AcDbEntity
8
bolts
6
ByLayer
62
256
370
-1
100
AcDbCircle
10
700
20
370
40
2
0
CIRCLE
5
247
100
AcDbEntity
8
bolts
6
ByLayer
62
256
370
-1
100
AcDbCircle
10
660
20
350
40
2
0
CIRCLE
5
248
100
AcDbEntity
8
bolts
6
ByLayer
62
256
370
-1
100
AcDbCircle
10
670
20
340
40
2
0
CIRCLE
5
249
100
AcDbEntity
8
bolts_large
6
ByLayer
62
256
370
-1
100
AcDbCircle
10
660
20
340
40
2
0
DIMENSION
5
24A
100
AcDbEntity
8
Text
6
ByLayer
62
256
370
-1
100
AcDbDimension
2
*D15
10
729
20
382
30
0
11
724.5
21
386.6875
31
0
70
33
71
5
3
Standard
53
0
210
0
220
0
230
1
100
AcDbAlignedDimension
13
720
23
400
33
0
14
729
24
400
34
0
0
DIMENSION
5
24B
100
AcDbEntity
8
Text
6
ByLayer
62
256
370
-1
100
AcDbDimension
2
*D16
10
692
20
409
30
0
11
687.3125
21
404.5
31
0
70
33
71
5
3
Standard
53
0
210
0
220
0
230
1
100
AcDbAlignedDimension
13
720
23
400
33
0
14
720
24
409
34
0
0
DIMENSION
5
24C
100
AcDbEntity
8
Text
6
ByLayer
62
256
370
-1
100
AcDbDimension
2
*D17
10
709
20
353
30
0
11
704.5
21
357.6875
31
0
70
33
71
5
3
Standard
53
0
210
0
220
0
230
1
100
AcDbAlignedDimension
13
700
23
370
33
0
14
709
24
370
34
0
0
DIMENSION
5
24D
100
AcDbEntity
8
Text
6
ByLayer
62
256
370
-1
100
AcDbDimension
2
*D18
10
716
20
361
30
0
11
711.3125
21
365.5
31
0
70
33
71
5
3
Standard
53
0
210
0
220
0
230
1
100
AcDbAlignedDimension
13
700
23
370
33
0
14
700
24
361
34
0
0
DIMENSION
5
24E
100
AcDbEntity
8
Text
6
ByLayer
62
256
370
-1
100
AcDbDimension
2
*D19
10
635
20
435
30
0
11
648.685436963
21
455.314563037
31
0
70
33
71
5
3
Standard
53
0
210
0
220
0
230
1
100
AcDbAlignedDimension
13
729
23
409
33
0
14
695
24
375
34
0
0
DIMENSION
5
24F
100
AcDbEntity
8
Text
6
ByLayer
62
256
370
-1
100
AcDbDimension
2
*D20
10
705
20
305
30
0
11
716.685436963
21
323.314563037
31
0
70
33
71
5
3
Standard
53
0
210
0
220
0
230
1
100
AcDbAlignedDimension
13
700
23
370
33
0
14
670
24
340
34
0
0
DIMENSION
5
250
100
AcDbEntity
8
Text
6
ByLayer
62
256
370
-1
100
AcDbDimension
2
*D21
10
650
20
360
30
0
11
644.185436963
21
360.814563037
31
0
70
33
71
5
3
Standard
53
0
210
0
220
0
230
1
100
AcDbAlignedDimension
13
660
23
340
33
0
14
665
24
345
34
0
0
INSERT
5
251
100
AcDbEntity
8
Text
6
ByLayer
62
256
370
-1
100
AcDbBlockReference
2
Motor
10
-200
20
-200
30
0
41
1
42
1
43
0
50
0
70
1
71
1
44
0
45
0
0
INSERT
5
252
100
AcDbEntity
8
Text
6
ByLayer
62
256
370
-1
100
AcDbBlockReference
2
Voltage Regulator
10
-50
20
80
30
0
41
1
42
1
43
0
50
0
70
1
71
1
44
0
45
0
0
INSERT
5
253
100
AcDbEntity
8
Text
6
ByLayer
62
256
370
-1
100
AcDbBlockReference
2
Battery
10
-66
20
26
30
0
41
1
42
1
43
0
50
0
70
1
71
1
44
0
45
0
0
INSERT
5
254
100
AcDbEntity
8
Text
6
ByLayer
62
256
370
-1
100
AcDbBlockReference
2
Beaglebone
10
-55
20
-22
30
0
41
1
42
1
43
0
50
0
70
1
71
1
44
0
45
0
0
INSERT
5
255
100
AcDbEntity
8
Text
6
ByLayer
62
256
370
-1
100
AcDbBlockReference
2
PD Block
10
-15
20
15
30
0
41
1
42
1
43
0
50
0
70
1
71
1
44
0
45
0
0
DIMENSION
5
256
100
AcDbEntity
8
measure
6
ByLayer
62
256
370
-1
100
AcDbDimension
2
*D22
10
68
20
-70
30
0
11
70
21
-65.3125
31
0
70
35
71
5
72
0
3
Standard
53
0
210
0
220
0
230
1
100
AcDbDiametricDimension
15
72
25
-70
35
0
40
0
0
CIRCLE
5
257
100
AcDbEntity
8
bolts
6
ByLayer
62
256
370
-1
100
AcDbCircle
10
17
20
-17
40
2
0
CIRCLE
5
258
100
AcDbEntity
8
bolts
6
ByLayer
62
256
370
-1
100
AcDbCircle
10
-17
20
-17
40
2
0
CIRCLE
5
259
100
AcDbEntity
8
bolts
6
ByLayer
62
256
370
-1
100
AcDbCircle
10
-17
20
17
40
2
0
CIRCLE
5
25A
100
AcDbEntity
8
bolts
6
ByLayer
62
256
370
-1
100
AcDbCircle
10
17
20
17
40
2
0
MTEXT
5
25B
100
AcDbEntity
8
Text
6
ByLayer
62
256
370
-1
100
AcDbMText
10
-47
20
-40
30
0
40
1
41
7.30555555556
71
1
72
1
1
PWM Pins:\P\PR1: P9_16\PR2: P9_42\PR3: P8_13\PR4: P8_19
7

210
0
220
0
230
1
50
0
73
2
44
1
0
ENDSEC
0
SECTION
2
OBJECTS
0
DICTIONARY
5
C
330
0
100
AcDbDictionary
281
1
3
ACAD_GROUP
350
D
0
DICTIONARY
5
D
330
C
100
AcDbDictionary
281
1
0
ENDSEC
0
EOF
